#N canvas 199 32 493 379 12;
#X obj 136 97 osc~;
#X obj 222 111 osc~;
#X obj 169 185 *~;
#X obj 180 274 dac~;
#X floatatom 125 61 5 0 0 0 - - -;
#X floatatom 228 68 5 0 0 0 - - -;
#X obj 164 239 *~ 0.25;
#X obj 220 158 *~;
#X floatatom 269 134 5 0 0 0 - - -;
#X connect 0 0 2 0;
#X connect 1 0 7 0;
#X connect 2 0 6 0;
#X connect 4 0 0 0;
#X connect 5 0 1 0;
#X connect 6 0 3 0;
#X connect 6 0 3 1;
#X connect 7 0 2 1;
#X connect 8 0 7 1;
