#N canvas 435 46 841 746 12;
#X obj 76 147 osc~ 440;
#X obj 129 278 +~;
#X obj 127 373 dac~;
#X obj 182 152 osc~ 880;
#X obj 86 197 *~ 1;
#X obj 187 204 *~ 0.7;
#X floatatom 75 45 5 0 0 0 - - -;
#X obj 184 102 * 2;
#X floatatom 184 128 5 0 0 0 - - -;
#X obj 332 153 osc~ 1320;
#X obj 342 203 *~ 5;
#X text 77 23 fundamental;
#X floatatom 334 128 5 0 0 0 - - -;
#X obj 334 102 * 3;
#X text 228 126 first harmonic;
#X text 378 126 second harmonic;
#X obj 130 313 *~ 0.15;
#X connect 0 0 4 0;
#X connect 1 0 16 0;
#X connect 3 0 5 0;
#X connect 4 0 1 0;
#X connect 5 0 1 1;
#X connect 6 0 0 0;
#X connect 6 0 7 0;
#X connect 6 0 13 0;
#X connect 7 0 8 0;
#X connect 8 0 3 0;
#X connect 9 0 10 0;
#X connect 10 0 1 1;
#X connect 12 0 9 0;
#X connect 13 0 12 0;
#X connect 16 0 2 0;
#X connect 16 0 2 1;
