#N canvas 440 23 601 458 12;
#X obj 142 138 + 1;
#X obj 94 134 f 1;
#X obj 93 114 bng 15 250 50 0 empty empty empty 17 7 0 10 -262144 -1
-1;
#X floatatom 94 167 5 0 0 0 - - -;
#X obj 92 205 mod 6;
#X floatatom 91 245 5 0 0 0 - - -;
#X obj 92 279 select 5;
#X obj 93 306 bng 15 250 50 0 empty empty empty 17 7 0 10 -262144 -1
-1;
#X text 213 73 detect if button has been pressed 6 times;
#X floatatom 186 242 5 0 0 0 - - -;
#X text 235 239 < how many times ?;
#X connect 0 0 1 1;
#X connect 1 0 0 0;
#X connect 1 0 3 0;
#X connect 2 0 1 0;
#X connect 3 0 4 0;
#X connect 4 0 5 0;
#X connect 5 0 6 0;
#X connect 6 0 7 0;
#X connect 9 0 6 1;
