#N canvas 100 27 585 369 12;
#X obj 154 69 pack f f f;
#X floatatom 155 34 5 0 0 0 - - -;
#X floatatom 197 41 5 0 0 0 - - -;
#X floatatom 241 41 5 0 0 0 - - -;
#X obj 282 172 unpack f f f;
#X floatatom 269 205 5 0 0 0 - - -;
#X floatatom 315 204 5 0 0 0 - - -;
#X floatatom 365 204 5 0 0 0 - - -;
#X obj 109 119 s list;
#X obj 312 114 r list;
#X msg 223 128 20 30 40;
#X connect 0 0 8 0;
#X connect 1 0 0 0;
#X connect 2 0 0 1;
#X connect 3 0 0 2;
#X connect 4 0 5 0;
#X connect 4 1 6 0;
#X connect 4 2 7 0;
#X connect 9 0 4 0;
#X connect 10 0 4 0;
