#N canvas 324 29 709 416 12;
#X obj 342 24 r digital_values;
#X obj 354 64 unpack f f f f;
#X floatatom 280 134 5 0 0 0 - - -;
#X floatatom 333 133 5 0 0 0 - - -;
#X floatatom 384 137 5 0 0 0 - - -;
#X floatatom 441 138 5 0 0 0 - - -;
#X obj 212 177 change;
#X obj 216 205 select 1;
#X obj 215 246 bng 15 250 50 0 empty empty empty 17 7 0 10 -262144
-1 -1;
#X obj 259 246 bng 15 250 50 0 empty empty empty 17 7 0 10 -262144
-1 -1;
#X obj 145 39 metro 100;
#X obj 143 14 tgl 15 0 empty empty empty 17 7 0 10 -262144 -1 -1 0
1;
#X obj 305 178 change;
#X obj 309 206 select 1;
#X obj 308 247 bng 15 250 50 0 empty empty empty 17 7 0 10 -262144
-1 -1;
#X obj 352 247 bng 15 250 50 0 empty empty empty 17 7 0 10 -262144
-1 -1;
#X obj 394 177 change;
#X obj 398 205 select 1;
#X obj 397 246 bng 15 250 50 0 empty empty empty 17 7 0 10 -262144
-1 -1;
#X obj 441 246 bng 15 250 50 0 empty empty empty 17 7 0 10 -262144
-1 -1;
#X obj 488 178 change;
#X obj 492 206 select 1;
#X obj 491 247 bng 15 250 50 0 empty empty empty 17 7 0 10 -262144
-1 -1;
#X obj 535 247 bng 15 250 50 0 empty empty empty 17 7 0 10 -262144
-1 -1;
#X obj 136 233 print;
#X connect 0 0 1 0;
#X connect 1 0 2 0;
#X connect 1 1 3 0;
#X connect 1 2 4 0;
#X connect 1 3 5 0;
#X connect 2 0 6 0;
#X connect 3 0 12 0;
#X connect 4 0 16 0;
#X connect 5 0 20 0;
#X connect 6 0 7 0;
#X connect 6 0 24 0;
#X connect 7 0 8 0;
#X connect 7 1 9 0;
#X connect 10 0 2 0;
#X connect 10 0 3 0;
#X connect 10 0 4 0;
#X connect 10 0 5 0;
#X connect 11 0 10 0;
#X connect 12 0 13 0;
#X connect 13 0 14 0;
#X connect 13 1 15 0;
#X connect 16 0 17 0;
#X connect 17 0 18 0;
#X connect 17 1 19 0;
#X connect 20 0 21 0;
#X connect 21 0 22 0;
#X connect 21 1 23 0;
