#N canvas 156 71 1496 921 12;
#X obj 604 387 *~;
#X obj 482 224 osc~ 300;
#X obj 590 491 dac~;
#X obj 652 343 line~;
#X msg 651 307 \$1 50;
#X obj 652 277 tgl 15 0 empty empty empty 17 7 0 10 -262144 -1 -1 0
1;
#X obj 652 231 metro 500;
#X obj 650 201 tgl 15 0 empty empty empty 17 7 0 10 -262144 -1 -1 0
1;
#X connect 0 0 2 0;
#X connect 0 0 2 1;
#X connect 1 0 0 0;
#X connect 3 0 0 1;
#X connect 4 0 3 0;
#X connect 5 0 4 0;
#X connect 6 0 5 0;
#X connect 7 0 6 0;
