#N canvas 556 24 1132 965 10;
#X obj 125 369 t b b;
#X obj 125 413 timer;
#X obj 247 373 bng 15 250 50 0 empty empty empty 0 -6 0 10 -262144
-1 -1;
#X obj 125 455 expr 60000 / $f1;
#X floatatom 125 491 10 0 0 0 - - -;
#N canvas 0 23 1040 834 superTT 0;
#X obj 307 139 t b b;
#X obj 307 183 timer;
#N canvas 0 0 450 300 (subpatch) 0;
#X array \$0-tt 6 float 2;
#X coords 0 1000 6 -1 40 50 1;
#X restore 501 202 graph;
#X obj 530 320 f;
#X msg 572 289 0;
#X obj 557 378 + 1;
#X obj 530 350 t f f;
#X obj 449 376 tabwrite \$0-tt;
#X obj 572 257 loadbang;
#X obj 308 364 until;
#X msg 355 397 0;
#X obj 308 430 f;
#X obj 308 512 tabread \$0-tt;
#X obj 308 541 + 0;
#X obj 308 462 t f f;
#X obj 335 489 + 1;
#X obj 308 567 t f f;
#X obj 220 472 f;
#X obj 308 300 t b b b;
#X msg 388 396 0;
#X obj 307 223 t b b f b;
#X obj 220 612 expr 60000 / $f1;
#X obj 307 92 inlet bang;
#X obj 96 673 outlet ms;
#X obj 220 671 outlet bpm;
#X obj 557 406 sel 6;
#X msg 308 339 6;
#X obj 220 498 / 6;
#X obj 426 100 pdcontrol;
#X msg 425 71 browse https://forum.pdpatchrepo.info/topic/1494/tap-tempo/2
;
#X text 425 45 example by domien;
#X connect 0 0 1 0;
#X connect 0 1 1 1;
#X connect 1 0 20 0;
#X connect 3 0 6 0;
#X connect 4 0 3 1;
#X connect 5 0 25 0;
#X connect 6 0 7 1;
#X connect 6 1 5 0;
#X connect 8 0 4 0;
#X connect 9 0 11 0;
#X connect 10 0 11 1;
#X connect 11 0 14 0;
#X connect 12 0 13 0;
#X connect 13 0 16 0;
#X connect 14 0 12 0;
#X connect 14 1 15 0;
#X connect 15 0 11 1;
#X connect 16 0 17 1;
#X connect 16 1 13 1;
#X connect 17 0 27 0;
#X connect 18 0 26 0;
#X connect 18 1 10 0;
#X connect 18 2 19 0;
#X connect 19 0 13 1;
#X connect 20 0 17 0;
#X connect 20 1 18 0;
#X connect 20 2 7 0;
#X connect 20 3 3 0;
#X connect 21 0 24 0;
#X connect 22 0 0 0;
#X connect 25 0 4 0;
#X connect 25 1 3 1;
#X connect 26 0 9 0;
#X connect 27 0 21 0;
#X connect 27 0 23 0;
#X connect 29 0 28 0;
#X restore 254 455 pd superTT;
#X floatatom 254 492 8 0 0 3 ms - -;
#X floatatom 311 492 10 0 0 3 bpm - -;
#X obj 426 100 pdcontrol;
#X msg 425 71 browse https://forum.pdpatchrepo.info/topic/1494/tap-tempo/2
;
#X text 425 45 example by domien;
#X obj 270 606 metro 100;
#X obj 269 578 tgl 15 0 empty empty empty 17 7 0 10 -262144 -1 -1 0
1;
#X obj 270 641 bng 15 250 50 0 empty empty empty 17 7 0 10 -262144
-1 -1;
#X text 337 456 averages over 6 taps;
#X obj 114 185 hsl 128 15 0 400 0 0 empty empty empty -2 -8 0 10 -262144
-1 -1 0 1;
#X obj 244 289 tgl 15 0 empty empty empty 17 7 0 10 -262144 -1 -1 0
1;
#X obj 245 310 change;
#X obj 244 341 select 1;
#X obj 93 147 line;
#X msg 87 121 0 \, 380 200;
#X obj 82 48 tgl 15 0 empty empty empty 17 7 0 10 -262144 -1 -1 0 1
;
#X obj 84 72 metro 500;
#X obj 248 261 > 350;
#X connect 0 0 1 0;
#X connect 0 1 1 1;
#X connect 1 0 3 0;
#X connect 2 0 0 0;
#X connect 2 0 5 0;
#X connect 3 0 4 0;
#X connect 5 0 6 0;
#X connect 5 1 7 0;
#X connect 6 0 11 1;
#X connect 9 0 8 0;
#X connect 11 0 13 0;
#X connect 12 0 11 0;
#X connect 15 0 23 0;
#X connect 16 0 17 0;
#X connect 17 0 18 0;
#X connect 18 0 2 0;
#X connect 19 0 15 0;
#X connect 20 0 19 0;
#X connect 21 0 22 0;
#X connect 22 0 20 0;
#X connect 23 0 16 0;
