#N canvas 478 83 1500 737 12;
#X declare -path zexy -lib zexy;
#X obj 672 173 netreceive -u -b;
#X msg 936 118 listen 0;
#X text 1025 117 stop listening;
#X text 811 173 UDP packets \, binary output, f 13;
#X obj 672 202 oscparse;
#X obj 32 263 pdcontrol;
#X msg 672 118 listen 8000;
#X msg 32 235 browse https://hexler.net/products/touchosc;
#X obj 672 230 l2s;
#X obj 672 253 s2l;
#X obj 964 226 print;
#X text 32 196 This patch parses data from the "Mix 2" example;
#X obj 672 331 route rotary1 rotary2 rotary3 rotary4 rotary5 rotary6
;
#X floatatom 672 358 5 0 0 0 - - - 0;
#X floatatom 733 358 5 0 0 0 - - - 0;
#X floatatom 794 358 5 0 0 0 - - - 0;
#X floatatom 856 357 5 0 0 0 - - - 0;
#X floatatom 917 358 5 0 0 0 - - - 0;
#X floatatom 978 357 5 0 0 0 - - - 0;
#X floatatom 670 414 5 0 0 0 - - - 0;
#X floatatom 729 414 5 0 0 0 - - - 0;
#X floatatom 789 414 5 0 0 0 - - - 0;
#X obj 670 387 route fader1 fader2 fader3;
#X floatatom 866 414 5 0 0 0 - - - 0;
#X floatatom 930 414 5 0 0 0 - - - 0;
#X floatatom 994 414 5 0 0 0 - - - 0;
#X obj 866 387 route toggle1 toggle2 toggle3 toggle4;
#X floatatom 1058 414 5 0 0 0 - - - 0;
#X obj 458 482 route multifader1 multifader2;
#X obj 458 510 route 1 2 3 4 5 6 7 8 9 10 11 12 13 14 15 16;
#X floatatom 458 536 5 0 0 0 - - - 0;
#X floatatom 477 556 5 0 0 0 - - - 0;
#X floatatom 496 578 5 0 0 0 - - - 0;
#X floatatom 515 598 5 0 0 0 - - - 0;
#X floatatom 534 539 5 0 0 0 - - - 0;
#X floatatom 553 559 5 0 0 0 - - - 0;
#X floatatom 572 581 5 0 0 0 - - - 0;
#X floatatom 591 601 5 0 0 0 - - - 0;
#X floatatom 610 538 5 0 0 0 - - - 0;
#X floatatom 629 558 5 0 0 0 - - - 0;
#X floatatom 648 580 5 0 0 0 - - - 0;
#X floatatom 667 600 5 0 0 0 - - - 0;
#X floatatom 686 541 5 0 0 0 - - - 0;
#X floatatom 705 561 5 0 0 0 - - - 0;
#X floatatom 724 583 5 0 0 0 - - - 0;
#X floatatom 743 603 5 0 0 0 - - - 0;
#X obj 777 510 route 1 2 3 4 5 6 7 8 9 10 11 12 13 14 15 16;
#X floatatom 777 536 5 0 0 0 - - - 0;
#X floatatom 796 556 5 0 0 0 - - - 0;
#X floatatom 815 578 5 0 0 0 - - - 0;
#X floatatom 834 598 5 0 0 0 - - - 0;
#X floatatom 853 539 5 0 0 0 - - - 0;
#X floatatom 872 559 5 0 0 0 - - - 0;
#X floatatom 891 581 5 0 0 0 - - - 0;
#X floatatom 910 601 5 0 0 0 - - - 0;
#X floatatom 929 538 5 0 0 0 - - - 0;
#X floatatom 948 558 5 0 0 0 - - - 0;
#X floatatom 967 580 5 0 0 0 - - - 0;
#X floatatom 986 600 5 0 0 0 - - - 0;
#X floatatom 1005 541 5 0 0 0 - - - 0;
#X floatatom 1024 561 5 0 0 0 - - - 0;
#X floatatom 1043 583 5 0 0 0 - - - 0;
#X floatatom 1062 603 5 0 0 0 - - - 0;
#X obj 672 306 route 1 2 3, f 53;
#X obj 1185 348 route xy1 xy2, f 20;
#X obj 1185 378 unpack f f;
#X floatatom 1185 408 5 0 0 0 - - - 0;
#X floatatom 1252 408 5 0 0 0 - - - 0;
#X obj 1309 379 unpack f f;
#X floatatom 1309 409 5 0 0 0 - - - 0;
#X floatatom 1376 409 5 0 0 0 - - - 0;
#X text 37 20 OSC (Open Sound Control) is a common format for sending
data over a network (including wireless) or between applications on
the same computer. When trying to connect a piece of hardware to Pd
\, sometimes the best solution is to find an application that already
exists which will convert the data to OSC \, then parse the OSC formatted
data in Pd.;
#X text 34 119 This is an example for receiving data from a popular
app available for iOS and Android called TouchOSC. TouchOSC must be
configured with the IP address of your computer and to send on port
8000 (in this example).;
#X obj 1189 98 route accxyz;
#X obj 1189 134 unpack f f f;
#X floatatom 1189 185 5 0 0 0 - - - 0;
#X floatatom 1229 185 5 0 0 0 - - - 0;
#X floatatom 1270 185 5 0 0 0 - - - 0;
#X obj 672 280 list trim;
#X text 1183 68 enable acceleromter in TouchOSC;
#X text 774 117 listen on port 8000;
#X text 584 34 You need to install the library "zexy" for this to work
(particular to how TouchOSC sends data). Go to Help > Find Externals.
Version recommmended is zexy-v0-0extended from 2015-12-10 (oldest currently
listed as of 11/22/20);
#X obj 69 355 declare -path zexy -lib zexy;
#X connect 0 0 4 0;
#X connect 1 0 0 0;
#X connect 4 0 8 0;
#X connect 6 0 0 0;
#X connect 7 0 5 0;
#X connect 8 0 9 0;
#X connect 9 0 78 0;
#X connect 12 0 13 0;
#X connect 12 1 14 0;
#X connect 12 2 15 0;
#X connect 12 3 16 0;
#X connect 12 4 17 0;
#X connect 12 5 18 0;
#X connect 12 6 22 0;
#X connect 22 0 19 0;
#X connect 22 1 20 0;
#X connect 22 2 21 0;
#X connect 22 3 26 0;
#X connect 26 0 23 0;
#X connect 26 1 24 0;
#X connect 26 2 25 0;
#X connect 26 3 27 0;
#X connect 28 0 29 0;
#X connect 28 1 46 0;
#X connect 29 0 30 0;
#X connect 29 1 31 0;
#X connect 29 2 32 0;
#X connect 29 3 33 0;
#X connect 29 4 34 0;
#X connect 29 5 35 0;
#X connect 29 6 36 0;
#X connect 29 7 37 0;
#X connect 29 8 38 0;
#X connect 29 9 39 0;
#X connect 29 10 40 0;
#X connect 29 11 41 0;
#X connect 29 12 42 0;
#X connect 29 13 43 0;
#X connect 29 14 44 0;
#X connect 29 15 45 0;
#X connect 46 0 47 0;
#X connect 46 1 48 0;
#X connect 46 2 49 0;
#X connect 46 3 50 0;
#X connect 46 4 51 0;
#X connect 46 5 52 0;
#X connect 46 6 53 0;
#X connect 46 7 54 0;
#X connect 46 8 55 0;
#X connect 46 9 56 0;
#X connect 46 10 57 0;
#X connect 46 11 58 0;
#X connect 46 12 59 0;
#X connect 46 13 60 0;
#X connect 46 14 61 0;
#X connect 46 15 62 0;
#X connect 63 0 12 0;
#X connect 63 1 28 0;
#X connect 63 2 64 0;
#X connect 63 3 73 0;
#X connect 64 0 65 0;
#X connect 64 1 68 0;
#X connect 65 0 66 0;
#X connect 65 1 67 0;
#X connect 68 0 69 0;
#X connect 68 1 70 0;
#X connect 73 0 74 0;
#X connect 74 0 75 0;
#X connect 74 1 76 0;
#X connect 74 2 77 0;
#X connect 78 0 63 0;
