#N canvas 649 178 641 391 12;
#X obj 151 234 ps.loop~ lp1;
#X obj 159 347 dac~;
#X obj 158 296 *~ 0.5;
#X obj 146 173 adc~;
#X msg 214 72 /rec \$1;
#X obj 214 33 tgl 15 0 empty empty empty 17 7 0 10 -262144 -1 -1 0
1;
#X obj 347 124 tgl 15 0 empty empty empty 17 7 0 10 -262144 -1 -1 0
1;
#X msg 347 149 /play \$1;
#X floatatom 417 197 5 0 0 0 - - -;
#X msg 417 222 /overlap \$1;
#X msg 347 98 1;
#X obj 336 69 select 0 1;
#X msg 380 97 0;
#X connect 0 0 2 0;
#X connect 2 0 1 0;
#X connect 2 0 1 1;
#X connect 3 0 0 0;
#X connect 4 0 0 1;
#X connect 5 0 4 0;
#X connect 5 0 11 0;
#X connect 6 0 7 0;
#X connect 7 0 0 1;
#X connect 8 0 9 0;
#X connect 9 0 0 1;
#X connect 10 0 6 0;
#X connect 11 0 10 0;
#X connect 11 1 12 0;
#X connect 12 0 6 0;
