#N canvas 182 31 919 590 12;
#X obj 146 120 hsl 200 30 0 1 0 0 empty empty empty -2 -8 0 10 -262144
-1 -1 8955 1;
#X obj 406 408 outlet~;
#X obj 376 345 *~;
#X obj 432 49 inlet~;
#X obj 394 265 line~;
#X msg 313 210 \$1 50;
#X obj 511 51 r \$1;
#X obj 504 136 route /vol;
#X obj 274 294 phasor~ \$2;
#X connect 0 0 5 0;
#X connect 2 0 1 0;
#X connect 3 0 2 0;
#X connect 4 0 2 1;
#X connect 5 0 4 0;
#X connect 6 0 7 0;
#X connect 7 0 0 0;
#X coords 0 -1 1 1 300 60 1 100 100;
