#N canvas 72 53 1201 606 12;
#X obj 98 191 metro 200;
#X obj 98 234 bng 30 250 50 0 empty empty empty 17 7 0 10 #fcfcfc #000000
#000000;
#X obj 98 121 tgl 30 0 empty empty empty 17 7 0 10 #fcfcfc #000000
#000000 0 1;
#X obj 194 119 expr 1000/($f1/60);
#X floatatom 194 86 5 0 0 0 - - - 0;
#X floatatom 194 170 5 0 0 0 - - - 0;
#X msg 193 46 134;
#X msg 241 46 60;
#X msg 290 46 110;
#X msg 326 44 120;
#X obj 191 148 / 4;
#N canvas 0 38 1040 834 superTT 0;
#X obj 307 139 t b b;
#X obj 307 183 timer;
#N canvas 0 0 450 300 (subpatch) 0;
#X array \$0-tt 6 float 2;
#X coords 0 1000 6 -1 40 50 1;
#X restore 501 202 graph;
#X obj 530 320 f;
#X msg 572 289 0;
#X obj 557 378 + 1;
#X obj 530 350 t f f;
#X obj 449 376 tabwrite \$0-tt;
#X obj 572 257 loadbang;
#X obj 308 364 until;
#X msg 355 397 0;
#X obj 308 430 f;
#X obj 308 512 tabread \$0-tt;
#X obj 308 541 + 0;
#X obj 308 462 t f f;
#X obj 335 489 + 1;
#X obj 308 567 t f f;
#X obj 220 472 f;
#X obj 308 300 t b b b;
#X msg 388 396 0;
#X obj 307 223 t b b f b;
#X obj 220 612 expr 60000 / $f1;
#X obj 307 92 inlet bang;
#X obj 96 673 outlet ms;
#X obj 220 671 outlet bpm;
#X obj 557 406 sel 6;
#X msg 308 339 6;
#X obj 220 498 / 6;
#X connect 0 0 1 0;
#X connect 0 1 1 1;
#X connect 1 0 20 0;
#X connect 3 0 6 0;
#X connect 4 0 3 1;
#X connect 5 0 25 0;
#X connect 6 0 7 1;
#X connect 6 1 5 0;
#X connect 8 0 4 0;
#X connect 9 0 11 0;
#X connect 10 0 11 1;
#X connect 11 0 14 0;
#X connect 12 0 13 0;
#X connect 13 0 16 0;
#X connect 14 0 12 0;
#X connect 14 1 15 0;
#X connect 15 0 11 1;
#X connect 16 0 17 1;
#X connect 16 1 13 1;
#X connect 17 0 27 0;
#X connect 18 0 26 0;
#X connect 18 1 10 0;
#X connect 18 2 19 0;
#X connect 19 0 13 1;
#X connect 20 0 17 0;
#X connect 20 1 18 0;
#X connect 20 2 7 0;
#X connect 20 3 3 0;
#X connect 21 0 24 0;
#X connect 22 0 0 0;
#X connect 25 0 4 0;
#X connect 25 1 3 1;
#X connect 26 0 9 0;
#X connect 27 0 21 0;
#X connect 27 0 23 0;
#X restore 419 254 pd superTT;
#X floatatom 419 291 8 0 0 3 ms - - 0;
#X floatatom 487 291 10 0 0 3 bpm - - 0;
#X text 502 255 averages over 6 taps;
#X obj 417 -3 hsl 128 15 0 1 0 0 empty empty empty -2 -8 0 10 #fcfcfc
#000000 #000000 0 1;
#X floatatom 414 58 5 0 0 0 - - - 0;
#X obj 416 28 * 10;
#X obj 418 91 < 2;
#X obj 417 123 tgl 15 0 empty empty empty 17 7 0 10 #fcfcfc #000000
#000000 0 1;
#X obj 418 151 change;
#X obj 419 197 sel 1;
#X obj 419 227 bng 15 250 50 0 empty empty empty 17 7 0 10 #fcfcfc
#000000 #000000;
#X floatatom 547 366 5 0 0 0 - - - 0;
#X obj 547 393 moses 301;
#X obj 487 340 moses 119;
#X floatatom 548 420 5 0 0 0 - - - 0;
#X obj 518 315 int;
#X text 616 363 use moses to limit number range;
#X text 575 -13 sensor;
#X text 574 338 low value;
#X text 629 391 high value;
#X connect 0 0 1 0;
#X connect 2 0 0 0;
#X connect 3 0 10 0;
#X connect 4 0 3 0;
#X connect 5 0 0 1;
#X connect 6 0 4 0;
#X connect 7 0 4 0;
#X connect 8 0 4 0;
#X connect 9 0 4 0;
#X connect 10 0 5 0;
#X connect 11 0 12 0;
#X connect 11 1 13 0;
#X connect 13 0 27 0;
#X connect 15 0 17 0;
#X connect 16 0 18 0;
#X connect 17 0 16 0;
#X connect 18 0 19 0;
#X connect 19 0 20 0;
#X connect 20 0 21 0;
#X connect 21 0 22 0;
#X connect 22 0 11 0;
#X connect 23 0 24 0;
#X connect 24 0 26 0;
#X connect 25 1 23 0;
#X connect 26 0 4 0;
#X connect 27 0 25 0;
