#N canvas 195 99 937 772 12;
#X obj 170 146 hsl 128 15 0 1 0 0 empty empty empty -2 -8 0 10 #fcfcfc
#000000 #000000 0 1;
#X floatatom 169 207 5 0 0 0 - - - 0;
#X obj 168 272 tgl 15 0 empty empty empty 17 7 0 10 #fcfcfc #000000
#000000 0 1;
#X obj 170 298 change;
#X obj 171 344 sel 1;
#X obj 171 374 bng 15 250 50 0 empty empty empty 17 7 0 10 #fcfcfc
#000000 #000000;
#X text 156 34 sensor wire (capacitive);
#X obj 169 177 * 1023;
#X obj 169 240 > 800;
#X obj 152 632 hsl 500 100 0 1 0 0 empty empty empty -2 -8 0 10 #fcfcfc
#000000 #000000 0 1;
#X obj 370 146 hsl 128 15 0 1 0 0 empty empty empty -2 -8 0 10 #fcfcfc
#000000 #000000 0 1;
#X floatatom 369 207 5 0 0 0 - - - 0;
#X obj 368 272 tgl 15 0 empty empty empty 17 7 0 10 #fcfcfc #000000
#000000 0 1;
#X obj 370 298 change;
#X obj 371 344 sel 1;
#X obj 371 374 bng 15 250 50 0 empty empty empty 17 7 0 10 #fcfcfc
#000000 #000000;
#X text 356 34 sensor wire (capacitive);
#X obj 369 177 * 1023;
#X obj 369 240 > 800;
#X obj 583 154 hsl 128 15 0 1 0 0 empty empty empty -2 -8 0 10 #fcfcfc
#000000 #000000 0 1;
#X floatatom 582 215 5 0 0 0 - - - 0;
#X obj 581 280 tgl 15 0 empty empty empty 17 7 0 10 #fcfcfc #000000
#000000 0 1;
#X obj 583 306 change;
#X obj 584 352 sel 1;
#X obj 584 382 bng 15 250 50 0 empty empty empty 17 7 0 10 #fcfcfc
#000000 #000000;
#X text 569 42 sensor wire (capacitive);
#X obj 582 185 * 1023;
#X obj 582 248 > 800;
#X obj 372 564 line;
#X msg 369 521 \$1 100;
#X text 38 137 no touch;
#X text 771 154 touch;
#X obj 169 59 tgl 15 0 empty empty empty 17 7 0 10 #fcfcfc #000000
#000000 0 1;
#X obj 367 60 tgl 15 0 empty empty empty 17 7 0 10 #fcfcfc #000000
#000000 0 1;
#X obj 580 62 tgl 15 0 empty empty empty 17 7 0 10 #fcfcfc #000000
#000000 0 1;
#X obj 172 401 random 100;
#X obj 173 430 * 0.01;
#X floatatom 173 460 5 0 0 0 - - - 0;
#X obj 366 403 random 100;
#X obj 367 432 * 0.01;
#X floatatom 367 462 5 0 0 0 - - - 0;
#X obj 579 409 random 100;
#X obj 580 438 * 0.01;
#X floatatom 580 468 5 0 0 0 - - - 0;
#X connect 0 0 7 0;
#X connect 1 0 8 0;
#X connect 2 0 3 0;
#X connect 3 0 4 0;
#X connect 4 0 5 0;
#X connect 5 0 35 0;
#X connect 7 0 1 0;
#X connect 8 0 2 0;
#X connect 10 0 17 0;
#X connect 11 0 18 0;
#X connect 12 0 13 0;
#X connect 13 0 14 0;
#X connect 14 0 15 0;
#X connect 15 0 38 0;
#X connect 17 0 11 0;
#X connect 18 0 12 0;
#X connect 19 0 26 0;
#X connect 20 0 27 0;
#X connect 21 0 22 0;
#X connect 22 0 23 0;
#X connect 23 0 24 0;
#X connect 24 0 41 0;
#X connect 26 0 20 0;
#X connect 27 0 21 0;
#X connect 28 0 9 0;
#X connect 29 0 28 0;
#X connect 32 0 0 0;
#X connect 33 0 10 0;
#X connect 34 0 19 0;
#X connect 35 0 36 0;
#X connect 36 0 37 0;
#X connect 37 0 29 0;
#X connect 38 0 39 0;
#X connect 39 0 40 0;
#X connect 40 0 29 0;
#X connect 41 0 42 0;
#X connect 42 0 43 0;
#X connect 43 0 29 0;
