#N canvas 179 33 1191 600 12;
#N canvas 0 22 450 278 (subpatch) 0;
#X array \$0-sam 5304 float 2;
#X coords 0 1 5304 -1 200 140 1;
#X restore 893 77 graph;
#X msg 219 164 0;
#X obj 219 129 metro 500;
#X obj 219 98 tgl 15 0 empty empty empty 17 7 0 10 -262144 -1 -1 1
1;
#X obj 640 62 bng 15 250 50 0 empty empty empty 17 7 0 10 -262144 -1
-1;
#X obj 219 199 tabplay~ \$0-sam;
#X msg 429 491 read -resize \$1 \$2;
#X obj 429 521 soundfiler;
#X obj 429 288 openpanel;
#X obj 429 258 t b b;
#X obj 429 318 pack s s;
#X obj 429 232 bng 15 250 50 0 empty empty empty 17 7 0 10 -262144
-1 -1;
#X obj 506 289 symbol \$0-sam;
#X obj 578 437 pack s s;
#X obj 631 405 symbol \$0-sam;
#X msg 578 329 ./sounds/Conga2.wav;
#X obj 578 370 t a b, f 8;
#X text 622 290 use symbol object to put the \$0-sam into a list;
#X text 649 371 file paths gets passed with "a" argument;
#X text 730 405 use symbol object to put the \$0-sam into a list;
#X obj 219 447 dac~;
#X obj 219 246 echo~ e1;
#X msg 25 340 \; e1 /wet 0.5 \; e1 /time 0.25 \; e1 /feedback 0.85
\;;
#X msg 25 268 \; e1 /wet 0.5 \; e1 /time 0.4 \; e1 /feedback 0.65 \;
;
#X msg 25 196 \; e1 /wet 1 \; e1 /time 0.75 \; e1 /feedback 0.9 \;
;
#X msg 25 412 \; e1 /wet 0.5 \; e1 /time 0.15 \; e1 /feedback 0.2 \;
;
#X obj 640 85 f \$0;
#X floatatom 640 112 5 0 0 0 - - -;
#X text 688 112 unique patch number;
#X connect 1 0 5 0;
#X connect 2 0 1 0;
#X connect 3 0 2 0;
#X connect 4 0 26 0;
#X connect 5 0 21 0;
#X connect 6 0 7 0;
#X connect 8 0 10 0;
#X connect 9 0 8 0;
#X connect 9 1 12 0;
#X connect 10 0 6 0;
#X connect 11 0 9 0;
#X connect 12 0 10 1;
#X connect 13 0 6 0;
#X connect 14 0 13 1;
#X connect 15 0 16 0;
#X connect 16 0 13 0;
#X connect 16 1 14 0;
#X connect 21 0 20 0;
#X connect 21 0 20 1;
#X connect 26 0 27 0;
