#N canvas 101 23 1400 999 12;
#N canvas 0 22 450 278 (subpatch) 0;
#X array \$0-sam1 4204 float 2;
#X coords 0 1 4204 -1 200 140 1 0 0;
#X restore 1000 79 graph;
#X obj 218 78 tgl 15 0 empty empty empty 17 7 0 10 -262144 -1 -1 0
1;
#X msg 1000 596 read -resize \$1 \$2;
#X obj 1000 626 soundfiler;
#X obj 1000 568 pack s s;
#X obj 1000 508 t a b, f 8;
#X obj 472 655 dac~;
#X obj 217 395 echo~ e1;
#X msg 1197 595 read -resize \$1 \$2;
#X obj 1197 625 soundfiler;
#X obj 1197 567 pack s s;
#X obj 1197 507 t a b, f 8;
#X obj 1053 536 symbol \$0-sam1;
#X obj 1250 535 symbol \$0-sam2;
#N canvas 0 22 450 278 (subpatch) 0;
#X array \$0-sam2 13147 float 2;
#X coords 0 1 13147 -1 200 140 1 0 0;
#X restore 1000 242 graph;
#X obj 1000 404 loadbang;
#X obj 1127 399 f \$0;
#X floatatom 1127 426 5 0 0 0 - - -;
#X text 1175 426 unique patch number;
#X obj 1000 437 t b b b;
#X obj 381 394 echo~ e2;
#X obj 539 393 echo~ e3;
#X obj 703 392 echo~ e4;
#X obj 217 520 volume~ v1;
#X obj 381 520 volume~ v2;
#X obj 539 521 volume~ v3;
#X obj 703 521 volume~ v4;
#X floatatom 279 77 5 0 0 0 - - -;
#X obj 219 138 f 1;
#X obj 303 137 + 1;
#X obj 217 348 tabread4~ \$0-sam1;
#X obj 539 346 tabread4~ \$0-sam2;
#X floatatom 1000 679 5 0 0 0 samples - -;
#X floatatom 1197 677 5 0 0 0 samples - -;
#X floatatom 1000 764 5 0 0 1 freq-phasor~ - -;
#X obj 1000 722 expr 44100 / $f1;
#X floatatom 1197 763 5 0 0 1 freq-phasor~ - -;
#X obj 1197 721 expr 44100 / $f1;
#X obj 217 318 line~;
#X obj 539 316 line~;
#X floatatom 942 806 5 0 0 0 ms-line~ - -;
#X floatatom 1139 805 5 0 0 0 ms-line~ - -;
#X obj 942 764 / 44.1;
#X obj 1139 762 / 44.1;
#X msg 1000 482 ./sounds/Conga1.wav;
#X msg 1197 481 ./sounds/Conga5.wav;
#X obj 447 112 pdcontrol;
#X msg 447 62 browse http://cgm.cs.mcgill.ca/~godfried/publications/banff.pdf
;
#X text 443 23 read about the use of the The Euclidean Algorithm Generates
Traditional Musical Rhythms;
#X obj 219 191 euc ek1 3 5 0;
#X obj 539 191 euc ek2 4 16 0;
#X msg 40 37 \; e1 /wet 0 \; e2 /wet 0 \; e3 /wet 0 \; e4 /wet 0 \;
\;;
#X msg 186 756 \; ek1 /hits 3 \; ek1 /steps 8 \; ek1 /offset 0 \; ek2
/hits 5 \; ek2 /steps 8 \; ek2 /offset 0 \;;
#X msg 186 874 \; ek1 /hits 7 \; ek1 /steps 12 \; ek1 /offset 0 \;
ek2 /hits 7 \; ek2 /steps 12 \; ek2 /offset 1 \;;
#X msg 186 638 \; ek1 /hits 2 \; ek1 /steps 8 \; ek1 /offset 0 \; ek2
/hits 2 \; ek2 /steps 16 \; ek2 /offset 0 \;;
#X msg 314 756 \; ek1 /hits 3 \; ek1 /steps 8 \; ek1 /offset 0 \; ek2
/hits 5 \; ek2 /steps 8 \; ek2 /offset 2 \;;
#X msg 314 874 \; ek1 /hits 7 \; ek1 /steps 12 \; ek1 /offset 0 \;
ek2 /hits 7 \; ek2 /steps 12 \; ek2 /offset 3 \;;
#X msg 314 638 \; ek1 /hits 3 \; ek1 /steps 8 \; ek1 /offset 0 \; ek2
/hits 7 \; ek2 /steps 16 \; ek2 /offset 0 \;;
#X msg 443 756 \; ek1 /hits 2 \; ek1 /steps 8 \; ek1 /offset 0 \; ek2
/hits 5 \; ek2 /steps 8 \; ek2 /offset 1 \;;
#X msg 443 874 \; ek1 /hits 7 \; ek1 /steps 16 \; ek1 /offset 0 \;
ek2 /hits 7 \; ek2 /steps 23 \; ek2 /offset 3 \;;
#X obj 219 109 metro 125;
#X text 473 708 try some preset for different euclidean rhythms;
#X msg 38 128 \; e1 /wet 0.7 \; e1 /time 0.75 \; e1 /feedback 0.9 \;
e2 /wet 1 \; e2 /time 0.7 \; e2 /feedback 0.5 \; e3 /wet 1 \; e3 /time
0.5 \; e3 /feedback 0.5 \; e4 /wet 0.6 \; e4 /time 0.2 \; e4 /feedback
0.9 \; v1 /vol 0.4 \; v2 /vol 0.7 \; v3 /vol 0.7 \; v4 /vol 0.4 \;
;
#X msg 39 381 \; e1 /wet 0.6 \; e1 /time 0.04 \; e1 /feedback 0.2 \;
e2 /wet 0.7 \; e2 /time 0.4 \; e2 /feedback 0.2 \; e3 /wet 0.7 \; e3
/time 0.2 \; e3 /feedback 0.9 \; e4 /wet 0.6 \; e4 /time 0.02 \; e4
/feedback 0.9 \; v1 /vol 0.5 \; v2 /vol 0.5 \; v3 /vol 0.6 \; v4 /vol
0.3 \;;
#X msg 582 757 \; ek1 /hits 6 \; ek1 /steps 37 \; ek1 /offset 0 \;
ek2 /hits 3 \; ek2 /steps 59 \; ek2 /offset 1 \;;
#X msg 718 757 \; ek1 /hits 21 \; ek1 /steps 37 \; ek1 /offset 0 \;
ek2 /hits 3 \; ek2 /steps 59 \; ek2 /offset 1 \;;
#X msg 582 872 \; ek1 /hits 3 \; ek1 /steps 18 \; ek1 /offset 0 \;
ek2 /hits 3 \; ek2 /steps 19 \; ek2 /offset 1 \;;
#X msg 718 872 \; ek1 /hits 2 \; ek1 /steps 9 \; ek1 /offset 0 \; ek2
/hits 3 \; ek2 /steps 19 \; ek2 /offset 5 \;;
#X msg 219 240 95;
#X msg 219 292 0 \, 4204 \$1;
#X obj 219 265 * 1;
#X floatatom 264 241 5 0 0 1 adjust_speed - -;
#X obj 539 257 * 1;
#X floatatom 584 233 5 0 0 1 adjust_speed - -;
#X msg 539 232 298;
#X msg 539 287 0 \, 13147 \$1;
#X floatatom 253 12 5 0 0 1 BPM*4 - -;
#X obj 253 40 expr (1000/($f1/60))/4;
#X connect 1 0 60 0;
#X connect 2 0 3 0;
#X connect 3 0 32 0;
#X connect 4 0 2 0;
#X connect 5 0 4 0;
#X connect 5 1 12 0;
#X connect 7 0 23 0;
#X connect 8 0 9 0;
#X connect 9 0 33 0;
#X connect 10 0 8 0;
#X connect 11 0 10 0;
#X connect 11 1 13 0;
#X connect 12 0 4 1;
#X connect 13 0 10 1;
#X connect 15 0 19 0;
#X connect 16 0 17 0;
#X connect 19 0 44 0;
#X connect 19 1 45 0;
#X connect 19 2 16 0;
#X connect 20 0 24 0;
#X connect 21 0 25 0;
#X connect 22 0 26 0;
#X connect 23 0 6 0;
#X connect 24 0 6 1;
#X connect 25 0 6 0;
#X connect 26 0 6 1;
#X connect 27 0 60 1;
#X connect 28 0 29 0;
#X connect 28 0 49 0;
#X connect 28 0 50 0;
#X connect 29 0 28 1;
#X connect 30 0 7 0;
#X connect 30 0 20 0;
#X connect 31 0 21 0;
#X connect 31 0 22 0;
#X connect 32 0 35 0;
#X connect 32 0 42 0;
#X connect 33 0 37 0;
#X connect 33 0 43 0;
#X connect 35 0 34 0;
#X connect 37 0 36 0;
#X connect 38 0 30 0;
#X connect 39 0 31 0;
#X connect 42 0 40 0;
#X connect 43 0 41 0;
#X connect 44 0 5 0;
#X connect 45 0 11 0;
#X connect 47 0 46 0;
#X connect 49 0 68 0;
#X connect 50 0 74 0;
#X connect 60 0 28 0;
#X connect 68 0 70 0;
#X connect 69 0 38 0;
#X connect 70 0 69 0;
#X connect 71 0 70 1;
#X connect 72 0 75 0;
#X connect 73 0 72 1;
#X connect 74 0 72 0;
#X connect 75 0 39 0;
#X connect 76 0 77 0;
#X connect 77 0 27 0;
