#N canvas 662 114 702 551 10;
#X obj 450 217 line~;
#X obj 389 349 *~ 0.5;
#X msg 450 187 \$1 100;
#X obj 353 91 inlet~;
#X obj 379 230 *~;
#X obj 26 57 hsl 100 15 0 1 0 0 empty empty volume 20 8 0 10 -204800
-4160 -1 0 1;
#X obj 432 11 r \$1;
#X obj 391 408 outlet~;
#X obj 23 38 tgl 15 0 empty empty mute 17 7 0 10 -262144 -1 -1 0 1
;
#X obj 432 45 route /vol /mute;
#X obj 537 142 sel 1;
#X msg 538 174 0;
#X obj 455 284 line~;
#X msg 455 254 \$1 100;
#X obj 384 297 *~;
#X msg 573 173 1;
#X obj 567 58 loadbang;
#X msg 570 91 0;
#X connect 0 0 4 1;
#X connect 1 0 7 0;
#X connect 2 0 0 0;
#X connect 3 0 4 0;
#X connect 4 0 14 0;
#X connect 5 0 2 0;
#X connect 6 0 9 0;
#X connect 8 0 10 0;
#X connect 9 0 5 0;
#X connect 9 1 8 0;
#X connect 10 0 11 0;
#X connect 10 1 15 0;
#X connect 11 0 13 0;
#X connect 12 0 14 1;
#X connect 13 0 12 0;
#X connect 14 0 1 0;
#X connect 15 0 13 0;
#X connect 16 0 17 0;
#X connect 17 0 8 0;
#X coords 0 -1 1 1 130 60 1 10 20;
