#N canvas 539 23 1104 708 12;
#X obj 71 78 + 1;
#X obj 24 76 f 0;
#X obj 24 48 bng 15 250 50 0 empty empty empty 17 7 0 10 -262144 -1
-1;
#X floatatom 24 121 5 0 0 0 - - -;
#X msg 64 45 0;
#X text 21 18 counter;
#X text 665 43 accumulator;
#X obj 737 272 f 0;
#X obj 690 272 + 1;
#X floatatom 690 316 5 0 0 0 - - -;
#X msg 637 156 1;
#X obj 70 246 + 1;
#X obj 20 245 f 0;
#X obj 17 218 bng 15 250 50 0 empty empty empty 17 7 0 10 -262144 -1
-1;
#X floatatom 25 285 5 0 0 0 - - -;
#X text 16 182 counter;
#X obj 331 124 + 1;
#X obj 373 124 f 0;
#X msg 316 71 1;
#X msg 354 71 -1;
#X floatatom 332 167 5 0 0 0 - - -;
#X text 316 36 accumulator;
#X msg 393 71 2;
#X floatatom 24 401 5 0 0 0 - - -;
#X floatatom 82 406 5 0 0 0 - - -;
#X floatatom 144 401 5 0 0 0 - - -;
#X obj 87 367 mod 8;
#X obj 32 363 mod 4;
#X obj 138 368 mod 16;
#X msg 469 70 4;
#X msg 502 69 15;
#X obj 637 48 tgl 15 0 empty empty empty 17 7 0 10 -262144 -1 -1 0
1;
#X msg 841 205 1;
#X obj 693 404 hsl 128 15 0 127 0 0 empty empty empty -2 -8 0 10 -262144
-1 -1 7400 1;
#X obj 794 314 select 127;
#X text 760 167 reset;
#X obj 690 375 line;
#X msg 690 348 \$1 50;
#X text 735 373 smooth data;
#X floatatom 690 444 5 0 0 0 - - -;
#X obj 637 109 metro 100;
#X obj 735 109 metro 250;
#X msg 678 155 -2;
#X text 683 68 one step forward \, two steps back;
#X msg 431 70 -2;
#X text 171 319 multiple mod objects for rhythmic subdivision;
#X floatatom 202 401 5 0 0 0 - - -;
#X obj 196 368 mod 32;
#X msg 82 211 0;
#X text 127 212 reset;
#X connect 0 0 1 1;
#X connect 1 0 0 0;
#X connect 1 0 3 0;
#X connect 2 0 1 0;
#X connect 4 0 1 1;
#X connect 7 0 8 1;
#X connect 8 0 7 0;
#X connect 8 0 9 0;
#X connect 9 0 34 0;
#X connect 9 0 37 0;
#X connect 10 0 8 0;
#X connect 11 0 12 1;
#X connect 12 0 11 0;
#X connect 12 0 14 0;
#X connect 13 0 12 0;
#X connect 14 0 26 0;
#X connect 14 0 27 0;
#X connect 14 0 28 0;
#X connect 14 0 47 0;
#X connect 16 0 17 0;
#X connect 16 0 20 0;
#X connect 17 0 16 1;
#X connect 18 0 16 0;
#X connect 19 0 16 0;
#X connect 22 0 16 0;
#X connect 26 0 24 0;
#X connect 27 0 23 0;
#X connect 28 0 25 0;
#X connect 29 0 16 0;
#X connect 30 0 16 0;
#X connect 31 0 40 0;
#X connect 31 0 41 0;
#X connect 32 0 8 1;
#X connect 33 0 39 0;
#X connect 34 0 32 0;
#X connect 36 0 33 0;
#X connect 37 0 36 0;
#X connect 40 0 10 0;
#X connect 41 0 42 0;
#X connect 42 0 8 0;
#X connect 44 0 16 0;
#X connect 47 0 46 0;
#X connect 48 0 12 1;
