#N canvas 140 23 1011 609 12;
#X obj 244 172 del 1000;
#X obj 244 105 bng 15 250 50 0 empty empty empty 17 7 0 10 -262144
-1 -1;
#X obj 280 353 bng 15 250 50 0 empty empty empty 17 7 0 10 -262144
-1 -1;
#X obj 262 200 del 1000;
#X obj 280 231 del 1000;
#X obj 262 353 bng 15 250 50 0 empty empty empty 17 7 0 10 -262144
-1 -1;
#X obj 244 353 bng 15 250 50 0 empty empty empty 17 7 0 10 -262144
-1 -1;
#X floatatom 458 138 5 0 0 0 - - -;
#X obj 154 65 spigot;
#X obj 193 39 tgl 15 0 empty empty empty 17 7 0 10 -262144 -1 -1 0
1;
#X text 214 36 loop on/off;
#X text 272 102 first bang;
#X text 509 137 delay interval;
#X obj 298 262 del 1000;
#X obj 334 353 bng 15 250 50 0 empty empty empty 17 7 0 10 -262144
-1 -1;
#X obj 316 290 del 1000;
#X obj 334 321 del 1000;
#X obj 316 353 bng 15 250 50 0 empty empty empty 17 7 0 10 -262144
-1 -1;
#X obj 298 353 bng 15 250 50 0 empty empty empty 17 7 0 10 -262144
-1 -1;
#X connect 0 0 3 0;
#X connect 0 0 6 0;
#X connect 1 0 0 0;
#X connect 3 0 4 0;
#X connect 3 0 5 0;
#X connect 4 0 2 0;
#X connect 4 0 13 0;
#X connect 7 0 0 1;
#X connect 7 0 3 1;
#X connect 7 0 4 1;
#X connect 8 0 1 0;
#X connect 9 0 8 1;
#X connect 13 0 15 0;
#X connect 13 0 18 0;
#X connect 14 0 8 0;
#X connect 15 0 16 0;
#X connect 15 0 17 0;
#X connect 16 0 14 0;
