#N canvas 193 23 696 645 12;
#X obj 67 131 snapshot~;
#X floatatom 67 154 0 0 0 0 - - -;
#X obj 66 80 osc~ 0.1;
#X obj 179 85 metro 100;
#X obj 180 60 tgl 15 0 empty empty empty 17 7 0 10 -262144 -1 -1 1
1;
#X obj 70 252 hsl 128 15 -1 1 0 0 empty empty empty -2 -8 0 10 -262144
-1 -1 5920 1;
#X floatatom 237 60 5 0 0 0 - - -;
#X obj 67 217 line;
#X obj 66 188 pack f 100;
#X text 151 129 use snapshot~ to create control data from an audio
signal;
#X connect 0 0 1 0;
#X connect 0 0 1 0;
#X connect 1 0 8 0;
#X connect 2 0 0 0;
#X connect 3 0 0 0;
#X connect 4 0 3 0;
#X connect 6 0 3 1;
#X connect 7 0 5 0;
#X connect 8 0 7 0;
