#N canvas 116 26 1112 559 12;
#X obj 110 121 route 1 2 3 4 5;
#X floatatom 105 178 5 0 0 0 - - -;
#X floatatom 152 181 5 0 0 0 - - -;
#X floatatom 196 177 5 0 0 0 - - -;
#X floatatom 243 180 5 0 0 0 - - -;
#X floatatom 298 182 5 0 0 0 - - -;
#X msg 112 60 3 \$1;
#X floatatom 116 36 5 0 0 0 - - -;
#X msg 29 59 5 \$1;
#X floatatom 25 33 5 0 0 0 - - -;
#X floatatom 794 87 5 0 0 0 - - -;
#X floatatom 790 173 5 0 0 0 - - -;
#X floatatom 844 174 5 0 0 0 - - -;
#X obj 793 123 moses 64;
#X obj 790 53 hsl 128 15 0 127 0 0 empty empty empty -2 -8 0 10 -262144
-1 -1 0 1;
#X text 879 120 split a stream of numbers;
#N canvas 702 50 696 450 routeExample 0;
#X obj 129 70 inlet;
#X obj 128 114 route /param1 /param2 /param3 /param4;
#X floatatom 117 194 5 0 0 0 - - -;
#X floatatom 191 193 5 0 0 0 - - -;
#X floatatom 282 190 5 0 0 0 - - -;
#X floatatom 367 182 5 0 0 0 - - -;
#X text 228 58 use route to create a subpatch with only 1 inlet;
#X connect 0 0 1 0;
#X connect 1 0 2 0;
#X connect 1 1 3 0;
#X connect 1 2 4 0;
#X connect 1 3 5 0;
#X restore 427 213 pd routeExample;
#X msg 416 83 /param1 \$1;
#X floatatom 415 54 5 0 0 0 - - -;
#X floatatom 505 54 5 0 0 0 - - -;
#X floatatom 599 53 5 0 0 0 - - -;
#X floatatom 632 125 5 0 0 0 - - -;
#X msg 506 83 /param2 \$1;
#X msg 599 88 /param3 \$1;
#X msg 633 154 /param4 \$1;
#X connect 0 0 1 0;
#X connect 0 1 2 0;
#X connect 0 2 3 0;
#X connect 0 3 4 0;
#X connect 0 4 5 0;
#X connect 6 0 0 0;
#X connect 7 0 6 0;
#X connect 8 0 0 0;
#X connect 9 0 8 0;
#X connect 10 0 13 0;
#X connect 13 0 11 0;
#X connect 13 1 12 0;
#X connect 14 0 10 0;
#X connect 17 0 16 0;
#X connect 18 0 17 0;
#X connect 19 0 22 0;
#X connect 20 0 23 0;
#X connect 21 0 24 0;
#X connect 22 0 16 0;
#X connect 23 0 16 0;
#X connect 24 0 16 0;
