#N canvas 131 41 1388 916 12;
#X declare -path cyclone -lib cyclone;
#X declare -path zexy -lib zexy;
#X obj 169 134 hsl 128 15 0 127 0 0 empty empty empty -2 -8 0 10 #fcfcfc
#000000 #000000 0 1;
#X floatatom 166 165 5 0 0 0 - - - 0;
#X text 318 133 sensor data;
#X obj 182 348 textfile;
#X obj 147 234 f;
#X obj 243 224 metro 1000;
#X obj 243 196 tgl 15 0 empty empty empty 17 7 0 10 #fcfcfc #000000
#000000 0 1;
#X floatatom 309 198 5 0 0 0 - - - 0;
#X text 352 197 polling rate;
#X floatatom 472 149 5 0 0 0 - - - 0;
#X text 514 145 seconds;
#X obj 472 176 * 1000;
#X msg 472 117 60;
#X text 517 111 1 minute;
#X msg 444 90 1;
#X text 485 90 1 second;
#X obj 243 249 bng 15 250 50 0 empty empty empty 17 7 0 10 #fcfcfc
#000000 #000000;
#X msg 76 250 rewind;
#X obj 52 252 bng 15 250 50 0 empty empty empty 17 7 0 10 #fcfcfc #000000
#000000;
#X obj 38 202 metro 100;
#X obj 36 169 tgl 15 0 empty empty empty 17 7 0 10 #fcfcfc #000000
#000000 0 1;
#X text 59 168 playback rate;
#X obj 257 391 bng 15 250 50 0 empty empty empty 17 7 0 10 #fcfcfc
#000000 #000000;
#X obj 257 412 spigot;
#X obj 294 389 tgl 15 0 empty empty empty 17 7 0 10 #fcfcfc #000000
#000000 0 1;
#X msg 255 437 rewind \, bang;
#X msg 489 267 write sensor1.txt;
#N canvas 0 22 450 278 (subpatch) 0;
#X array sensor_array 6 float 1;
#A 0 29 53 36 45 54 17;
#X coords 0 127 5 0 200 140 1 0 0;
#X restore 787 283 graph;
#X obj 1156 433 text get \$0-test;
#X obj 1169 212 bng 17 250 50 0 empty empty 1_get_number_lines 28 7
0 10 #fcfcfc #000000 #000000;
#X floatatom 1169 260 5 0 0 0 - - - 0;
#X obj 1169 235 text size \$0-test;
#X obj 1154 362 mod;
#X obj 1133 334 + 1;
#X obj 1099 333 f 0;
#X obj 1099 287 bng 17 250 50 0 empty empty 2_output_lines -88 7 0
10 #fcfcfc #000000 #000000;
#X obj 836 143 openpanel;
#X obj 836 119 bng 15 250 50 0 empty empty empty 17 7 0 10 #fcfcfc
#000000 #000000;
#X obj 1207 516 array set sensor_array;
#X msg 75 228 clear;
#X floatatom 41 515 3 0 0 0 - - - 0;
#X floatatom 70 512 3 0 0 0 - - - 0;
#X obj 642 53 declare -path cyclone -lib cyclone;
#X obj 164 318 route list;
#X obj 164 295 list prepend add;
#X msg 836 165 read \$1;
#X obj 838 193 text define \$0-test;
#X obj 1146 515 print;
#X floatatom 1153 400 5 0 0 0 - - - 0;
#X obj 152 272 zl group 6;
#X obj 36 483 unpack f f f f f f;
#X floatatom 110 519 3 0 0 0 - - - 0;
#X floatatom 139 516 3 0 0 0 - - - 0;
#X floatatom 181 519 3 0 0 0 - - - 0;
#X floatatom 210 516 3 0 0 0 - - - 0;
#X obj 1103 137 metro 1000;
#X obj 1104 103 tgl 15 0 empty empty empty 17 7 0 10 #fcfcfc #000000
#000000 0 1;
#X msg 488 292 write sensor2.txt;
#X obj 642 25 declare -path zexy -lib zexy;
#X obj 532 458 time, f 11;
#X obj 531 411 metro 1000;
#X obj 534 383 tgl 15 0 empty empty empty 17 7 0 10 #fcfcfc #000000
#000000 0 1;
#X floatatom 530 525 5 0 0 0 - - - 0;
#X floatatom 572 525 5 0 0 0 - - - 0;
#X obj 614 630 bng 15 250 50 0 empty empty empty 17 7 0 10 #fcfcfc
#000000 #000000;
#X floatatom 614 526 5 0 0 0 - - - 0;
#X obj 648 663 + 1;
#X obj 614 662 f 0;
#X floatatom 613 701 5 0 0 0 - - - 0;
#X msg 674 633 1;
#X text 717 631 reset;
#X obj 606 801 spigot;
#X obj 643 770 tgl 15 0 empty empty empty 17 7 0 10 #fcfcfc #000000
#000000 0 1;
#X text 681 769 auto save on/off;
#X obj 536 580 select 15;
#X text 617 581 3pm;
#X text 577 366 AUTO_SAVE_TXT_FILE;
#X text 936 53 LOAD TXT FILE AS ARRAY;
#X text 91 19 CREATE TXT FROM SENSOR DATA IN ROWS OF 6 ITEMS;
#X obj 138 64 ctlin 1;
#X text 207 64 Teensy MIDI data from sensor;
#X msg 606 734 write 0-sensor\$1.txt;
#X text 767 737 change the file name for using more than one patch
;
#X connect 0 0 1 0;
#X connect 1 0 4 1;
#X connect 3 0 50 0;
#X connect 3 1 22 0;
#X connect 4 0 49 0;
#X connect 5 0 4 0;
#X connect 5 0 16 0;
#X connect 6 0 5 0;
#X connect 7 0 5 1;
#X connect 9 0 11 0;
#X connect 11 0 7 0;
#X connect 12 0 9 0;
#X connect 14 0 9 0;
#X connect 17 0 3 0;
#X connect 18 0 3 0;
#X connect 19 0 18 0;
#X connect 20 0 19 0;
#X connect 22 0 23 0;
#X connect 23 0 25 0;
#X connect 24 0 23 1;
#X connect 25 0 3 0;
#X connect 26 0 3 0;
#X connect 28 0 47 0;
#X connect 28 0 38 0;
#X connect 29 0 31 0;
#X connect 30 0 32 1;
#X connect 31 0 30 0;
#X connect 32 0 48 0;
#X connect 33 0 34 1;
#X connect 34 0 33 0;
#X connect 34 0 32 0;
#X connect 35 0 34 0;
#X connect 36 0 45 0;
#X connect 37 0 36 0;
#X connect 39 0 3 0;
#X connect 43 0 3 0;
#X connect 44 0 43 0;
#X connect 45 0 46 0;
#X connect 48 0 28 0;
#X connect 49 0 44 0;
#X connect 50 0 40 0;
#X connect 50 1 41 0;
#X connect 50 2 51 0;
#X connect 50 3 52 0;
#X connect 50 4 53 0;
#X connect 50 5 54 0;
#X connect 55 0 35 0;
#X connect 56 0 55 0;
#X connect 57 0 3 0;
#X connect 59 0 62 0;
#X connect 59 1 63 0;
#X connect 59 2 65 0;
#X connect 60 0 59 0;
#X connect 61 0 60 0;
#X connect 62 0 74 0;
#X connect 64 0 67 0;
#X connect 66 0 67 1;
#X connect 67 0 66 0;
#X connect 67 0 68 0;
#X connect 68 0 81 0;
#X connect 69 0 66 1;
#X connect 71 0 3 0;
#X connect 72 0 71 1;
#X connect 74 0 64 0;
#X connect 79 0 0 0;
#X connect 81 0 71 0;
