#N canvas 382 75 619 491 12;
#X obj 246 36 del 500;
#X obj 273 75 del 250;
#X obj 304 126 del 125;
#X obj 132 22 bng 15 250 50 0 empty empty empty 17 7 0 10 -262144 -1
-1;
#X obj 194 72 bng 15 250 50 0 empty empty empty 17 7 0 10 -262144 -1
-1;
#X obj 241 110 bng 15 250 50 0 empty empty empty 17 7 0 10 -262144
-1 -1;
#X obj 303 160 bng 15 250 50 0 empty empty empty 17 7 0 10 -262144
-1 -1;
#X floatatom 310 9 5 0 0 0 - - -;
#X floatatom 337 50 5 0 0 0 - - -;
#X floatatom 366 98 5 0 0 0 - - -;
#X obj 167 120 tgl 15 0 empty empty empty 17 7 0 10 -262144 -1 -1 0
1;
#X obj 281 185 tgl 15 0 empty empty empty 17 7 0 10 -262144 -1 -1 0
1;
#X obj 230 165 tgl 15 0 empty empty empty 17 7 0 10 -262144 -1 -1 0
1;
#X obj 127 55 tgl 15 0 empty empty empty 17 7 0 10 -262144 -1 -1 0
1;
#X obj 85 139 line~;
#X msg 87 117 \$1 20;
#X obj 70 183 *~;
#X obj 17 110 osc~ 200;
#X obj 179 218 line~;
#X msg 181 196 \$1 20;
#X obj 164 262 *~;
#X obj 295 263 line~;
#X msg 297 241 \$1 20;
#X obj 280 307 *~;
#X obj 424 274 line~;
#X msg 426 252 \$1 20;
#X obj 409 318 *~;
#X obj 163 392 dac~;
#X obj 191 357 *~ 0.2;
#X obj 111 189 osc~ 300;
#X obj 227 234 osc~ 400;
#X obj 356 245 osc~ 500;
#X connect 0 0 1 0;
#X connect 0 0 4 0;
#X connect 1 0 2 0;
#X connect 1 0 5 0;
#X connect 2 0 6 0;
#X connect 3 0 0 0;
#X connect 3 0 13 0;
#X connect 4 0 10 0;
#X connect 5 0 12 0;
#X connect 6 0 11 0;
#X connect 7 0 0 1;
#X connect 8 0 1 1;
#X connect 9 0 2 1;
#X connect 10 0 19 0;
#X connect 11 0 25 0;
#X connect 12 0 22 0;
#X connect 13 0 15 0;
#X connect 14 0 16 1;
#X connect 15 0 14 0;
#X connect 16 0 28 0;
#X connect 17 0 16 0;
#X connect 18 0 20 1;
#X connect 19 0 18 0;
#X connect 20 0 28 0;
#X connect 21 0 23 1;
#X connect 22 0 21 0;
#X connect 23 0 28 0;
#X connect 24 0 26 1;
#X connect 25 0 24 0;
#X connect 26 0 28 0;
#X connect 28 0 27 0;
#X connect 28 0 27 1;
#X connect 29 0 20 0;
#X connect 30 0 23 0;
#X connect 31 0 26 0;
