#N canvas 549 85 1872 966 12;
#X declare -path cyclone -lib cyclone;
#X floatatom 117 216 5 0 0 1 MIDI_NOTE - - 0;
#X obj 226 217 dbtorms;
#X floatatom 226 242 5 0 0 1 amplitude - - 0;
#X obj 52 184 fiddle~ 1024 1 20 3;
#X obj 71 60 openpanel;
#X msg 71 86 open \$1;
#X obj 71 37 bng 15 250 50 0 empty empty empty 17 7 0 10 #fcfcfc #000000
#000000;
#X msg 135 86 1;
#X msg 176 86 0;
#X obj 71 123 readsf~ 2;
#X obj 239 28 bng 15 250 50 0 empty empty empty 17 7 0 10 #fcfcfc #000000
#000000;
#X obj 239 66 spigot;
#X obj 278 28 tgl 15 0 empty empty loop 17 7 0 10 #fcfcfc #000000 #000000
0 1;
#X msg 240 99 open ./soundfiles/A-consolarmi-affrettati_jukebox-304383_001_00-00-24.wav
\, 1;
#X obj 196 771 noteout;
#X obj 541 33 declare -path cyclone -lib cyclone;
#X text 541 8 requires cyclone library;
#X obj 116 299 ps.interpret;
#X msg 383 474 0 1 2 3 4 5 6 7 8 9 10 11;
#X text 573 473 chromatic;
#X msg 384 498 0 0 2 2 4 4 6 6 8 8 10 10;
#X text 574 496 whole-tone;
#X msg 385 546 0 0 2 2 2 4 4 4 7 7 9 9;
#X text 575 546 major pentatonic;
#X msg 385 522 0 0 3 3 5 5 6 6 7 7 10 10;
#X text 575 521 blues;
#X text 573 570 major;
#X text 572 594 minor;
#X msg 385 570 0 2 2 4 4 5 5 7 7 9 9 11;
#X msg 385 594 0 2 2 3 3 5 5 7 7 8 8 10;
#X msg 382 210 /offset -12;
#X msg 381 234 /offset 24;
#X msg 381 330 /duration 250;
#X msg 382 354 /duration 125;
#X msg 382 378 /duration 67;
#X msg 382 282 /duration 750;
#X msg 382 306 /duration 500;
#X msg 383 426 /threshold 0.1;
#X msg 383 450 /threshold 0.2;
#X obj 358 632 list prepend /scale;
#X obj 358 655 route list;
#X obj 71 763 dac~;
#X obj 70 719 *~ 0.2;
#X msg 382 258 /offset 0;
#X obj 70 692 *~;
#X obj 88 659 tgl 15 0 empty empty empty 17 7 0 10 #fcfcfc #000000
#000000 0 1;
#X floatatom 926 215 5 0 0 1 MIDI_NOTE - - 0;
#X obj 1035 216 dbtorms;
#X floatatom 1035 241 5 0 0 1 amplitude - - 0;
#X obj 861 183 fiddle~ 1024 1 20 3;
#X obj 880 59 openpanel;
#X msg 880 85 open \$1;
#X obj 880 36 bng 15 250 50 0 empty empty empty 17 7 0 10 #fcfcfc #000000
#000000;
#X msg 944 85 1;
#X msg 985 85 0;
#X obj 880 122 readsf~ 2;
#X obj 1048 27 bng 15 250 50 0 empty empty empty 17 7 0 10 #fcfcfc
#000000 #000000;
#X obj 1048 65 spigot;
#X obj 1087 27 tgl 15 0 empty empty loop 17 7 0 10 #fcfcfc #000000
#000000 0 1;
#X obj 925 298 ps.interpret;
#X msg 1192 473 0 1 2 3 4 5 6 7 8 9 10 11;
#X text 1382 472 chromatic;
#X msg 1193 497 0 0 2 2 4 4 6 6 8 8 10 10;
#X text 1383 495 whole-tone;
#X msg 1194 545 0 0 2 2 2 4 4 4 7 7 9 9;
#X text 1384 545 major pentatonic;
#X msg 1194 521 0 0 3 3 5 5 6 6 7 7 10 10;
#X text 1384 520 blues;
#X text 1382 569 major;
#X text 1381 593 minor;
#X msg 1194 569 0 2 2 4 4 5 5 7 7 9 9 11;
#X msg 1194 593 0 2 2 3 3 5 5 7 7 8 8 10;
#X msg 1191 209 /offset -12;
#X msg 1190 233 /offset 24;
#X msg 1190 329 /duration 250;
#X msg 1191 353 /duration 125;
#X msg 1191 377 /duration 67;
#X msg 1191 281 /duration 750;
#X msg 1191 305 /duration 500;
#X msg 1192 425 /threshold 0.1;
#X msg 1192 449 /threshold 0.2;
#X obj 1167 631 list prepend /scale;
#X obj 1167 654 route list;
#X obj 879 718 *~ 0.2;
#X msg 1191 257 /offset 0;
#X obj 879 691 *~;
#X obj 897 658 tgl 15 0 empty empty empty 17 7 0 10 #fcfcfc #000000
#000000 0 1;
#X obj 278 771 midiformat;
#X obj 278 744 join;
#X obj 954 746 midiformat;
#X obj 954 719 join;
#X obj 604 841 seq;
#X msg 605 761 record;
#X msg 612 786 stop;
#X msg 677 761 write;
#X msg 684 786 record;
#X obj 603 879 midiflush;
#X obj 694 881 bng 15 250 50 0 empty empty empty 17 7 0 10 #fcfcfc
#000000 #000000;
#X obj 603 911 midiout;
#X obj 569 769 bng 15 250 50 0 empty empty empty 17 7 0 10 #fcfcfc
#000000 #000000;
#X msg 1328 346 open ./soundfiles/Aida-selection_jukebox-130287_001_00-00-00.wav
\, 1;
#X msg 240 153 open ./soundfiles/Aida-selection_jukebox-130287_001_00-00-00.wav
\, 1;
#X msg 1048 92 open ./soundfiles/A-consolarmi-affrettati_jukebox-304383_001_00-00-24.wav
\, 1;
#X msg 1326 225 open ./soundfiles/Bridal-chorus_jukebox-187359_001_00-00-00.wav
\, 1;
#X msg 1327 290 open ./soundfiles/Nauja-svieta-emem-griaut_jukebox-37641_001_00-00-23.wav
\, 1;
#X msg 1191 401 /threshold 0.025;
#X msg 382 402 /threshold 0.025;
#X connect 0 0 17 0;
#X connect 1 0 2 0;
#X connect 2 0 17 1;
#X connect 3 2 0 0;
#X connect 3 3 1 0;
#X connect 4 0 5 0;
#X connect 5 0 9 0;
#X connect 6 0 4 0;
#X connect 7 0 9 0;
#X connect 8 0 9 0;
#X connect 9 0 3 0;
#X connect 9 0 44 0;
#X connect 9 2 10 0;
#X connect 10 0 11 0;
#X connect 11 0 13 0;
#X connect 12 0 11 1;
#X connect 13 0 9 0;
#X connect 17 0 14 0;
#X connect 17 0 88 0;
#X connect 17 1 14 1;
#X connect 17 1 88 1;
#X connect 18 0 39 0;
#X connect 20 0 39 0;
#X connect 22 0 39 0;
#X connect 24 0 39 0;
#X connect 28 0 39 0;
#X connect 29 0 39 0;
#X connect 30 0 17 2;
#X connect 31 0 17 2;
#X connect 32 0 17 2;
#X connect 33 0 17 2;
#X connect 34 0 17 2;
#X connect 35 0 17 2;
#X connect 36 0 17 2;
#X connect 37 0 17 2;
#X connect 38 0 17 2;
#X connect 39 0 40 0;
#X connect 40 0 17 2;
#X connect 42 0 41 0;
#X connect 42 0 41 1;
#X connect 43 0 17 2;
#X connect 44 0 42 0;
#X connect 45 0 44 1;
#X connect 46 0 59 0;
#X connect 47 0 48 0;
#X connect 48 0 59 1;
#X connect 49 2 46 0;
#X connect 49 3 47 0;
#X connect 50 0 51 0;
#X connect 51 0 55 0;
#X connect 52 0 50 0;
#X connect 53 0 55 0;
#X connect 54 0 55 0;
#X connect 55 0 49 0;
#X connect 55 0 85 0;
#X connect 55 2 56 0;
#X connect 56 0 57 0;
#X connect 57 0 102 0;
#X connect 58 0 57 1;
#X connect 59 0 14 0;
#X connect 59 0 90 0;
#X connect 59 1 14 1;
#X connect 59 1 90 1;
#X connect 60 0 81 0;
#X connect 62 0 81 0;
#X connect 64 0 81 0;
#X connect 66 0 81 0;
#X connect 70 0 81 0;
#X connect 71 0 81 0;
#X connect 72 0 59 2;
#X connect 73 0 59 2;
#X connect 74 0 59 2;
#X connect 75 0 59 2;
#X connect 76 0 59 2;
#X connect 77 0 59 2;
#X connect 78 0 59 2;
#X connect 79 0 59 2;
#X connect 80 0 59 2;
#X connect 81 0 82 0;
#X connect 82 0 59 2;
#X connect 83 0 41 0;
#X connect 83 0 41 1;
#X connect 84 0 59 2;
#X connect 85 0 83 0;
#X connect 86 0 85 1;
#X connect 87 0 91 0;
#X connect 88 0 87 0;
#X connect 89 0 91 0;
#X connect 90 0 89 0;
#X connect 91 0 96 0;
#X connect 91 1 97 0;
#X connect 92 0 91 0;
#X connect 93 0 91 0;
#X connect 94 0 91 0;
#X connect 95 0 91 0;
#X connect 96 0 98 0;
#X connect 99 0 91 0;
#X connect 100 0 55 0;
#X connect 101 0 9 0;
#X connect 102 0 55 0;
#X connect 103 0 55 0;
#X connect 104 0 55 0;
#X connect 105 0 59 2;
#X connect 106 0 17 2;
