#N canvas 1081 216 1081 867 12;
#X obj 75 215 moses 21;
#X obj 128 247 moses 108;
#X text 173 224 keep with range of MIDI keyboard (21-108);
#X floatatom 128 276 5 0 0 0 - - - 0;
#X obj 71 53 inlet;
#X text 121 82 MIDI notes in;
#X obj 481 46 inlet;
#X text 119 173 note offset (+/- 12 = octave);
#X obj 128 304 bucket 2;
#X obj 128 334 ==;
#X obj 128 367 tgl 15 0 empty empty empty 17 7 0 10 #fcfcfc #000000
#000000 0 1;
#X obj 128 395 select 1;
#X msg 128 429 2;
#X msg 181 430 1;
#X obj 128 468 * 125;
#X floatatom 128 506 5 0 0 0 - - - 0;
#X obj 221 430 i;
#X floatatom 73 128 5 0 0 0 - - - 0;
#X obj 75 174 + 0;
#X text 203 303 creates duration variation;
#X obj 477 100 route /offset /duration /scale /threshold;
#X obj 47 550 speedlim 125;
#X obj 81 655 spigot;
#X obj 123 615 tgl 15 0 empty empty empty 17 7 0 10 #fcfcfc #000000
#000000 0 1;
#X obj 249 85 inlet;
#X text 297 82 amplitude in;
#X floatatom 254 121 5 0 0 0 - - - 0;
#X obj 302 431 > 0.05;
#X obj 46 584 ps.scaled;
#X obj 266 625 spigot;
#X obj 308 585 tgl 15 0 empty empty empty 17 7 0 10 #fcfcfc #000000
#000000 0 1;
#X obj 81 753 makenote 127 125;
#X obj 83 822 outlet;
#X obj 190 824 outlet;
#X floatatom 82 783 5 0 0 0 - - - 0;
#X floatatom 190 787 5 0 0 0 - - - 0;
#X obj 266 684 int;
#X obj 549 358 print;
#X obj 266 658 ps.scale 0 1 80 127;
#X obj 71 98 int;
#X connect 0 1 1 0;
#X connect 1 0 3 0;
#X connect 3 0 8 0;
#X connect 3 0 21 0;
#X connect 4 0 39 0;
#X connect 6 0 20 0;
#X connect 8 0 9 0;
#X connect 8 1 9 1;
#X connect 9 0 10 0;
#X connect 10 0 11 0;
#X connect 11 0 12 0;
#X connect 11 1 13 0;
#X connect 12 0 14 0;
#X connect 13 0 14 0;
#X connect 14 0 15 0;
#X connect 15 0 21 1;
#X connect 15 0 31 2;
#X connect 16 0 14 1;
#X connect 17 0 18 0;
#X connect 18 0 0 0;
#X connect 20 0 18 1;
#X connect 20 1 16 0;
#X connect 20 2 28 1;
#X connect 20 2 37 0;
#X connect 20 3 27 1;
#X connect 21 0 28 0;
#X connect 22 0 31 0;
#X connect 23 0 22 1;
#X connect 24 0 26 0;
#X connect 26 0 27 0;
#X connect 26 0 29 0;
#X connect 27 0 23 0;
#X connect 27 0 30 0;
#X connect 28 0 22 0;
#X connect 29 0 38 0;
#X connect 30 0 29 1;
#X connect 31 0 34 0;
#X connect 31 1 35 0;
#X connect 34 0 32 0;
#X connect 35 0 33 0;
#X connect 36 0 31 1;
#X connect 38 0 36 0;
#X connect 39 0 17 0;
