#N canvas 320 23 1161 745 10;
#N canvas 0 22 450 300 (subpatch) 0;
#X array array_add1 100 float 0;
#X coords 0 1 99 -1 200 140 1;
#X restore 46 101 graph;
#X obj 170 532 tgl 30 0 empty empty empty 17 7 0 10 -262144 -1 -1 1
1;
#X obj 379 293 osc~;
#X msg 446 608 \; pd dsp \$1;
#X obj 446 560 tgl 30 0 empty empty empty 17 7 0 10 -262144 -1 -1 1
1;
#X obj 377 615 dac~;
#X obj 379 233 line~;
#X floatatom 379 78 5 0 0 0 - - -;
#X obj 379 191 pack f 200;
#X text 210 533 <- graph;
#X obj 537 233 line~;
#X floatatom 537 159 5 0 0 0 - - -;
#X obj 537 191 pack f 200;
#X obj 378 389 +~;
#X obj 537 293 osc~;
#X msg 745 253 0;
#X text 448 75 <- fundamental freq.;
#X text 781 251 <- phase synchronize;
#X obj 663 233 line~;
#X floatatom 663 159 5 0 0 0 - - -;
#X obj 663 191 pack f 200;
#X obj 663 293 osc~;
#X obj 663 124 * 3;
#X text 702 124 <- harmonics;
#X obj 377 537 *~ 0.2;
#X obj 170 599 tabwrite~ array_add1;
#X text 445 386 <- when you connect two signals to the same inlet addition
happens automatically;
#X obj 379 337 *~ 1;
#X obj 537 335 *~ 0.7;
#X obj 663 334 *~ 0.5;
#X text 90 50 ADDITIVE SYNTHESIS;
#X obj 537 124 * 2;
#X floatatom 643 35 5 0 0 0 - - -;
#X floatatom 678 35 5 0 0 0 - - -;
#N canvas 0 23 450 300 (subpatch) 0;
#X array spectrum1 128 float 0;
#X coords 0 500 128 0 256 130 1;
#X restore 45 264 graph;
#N canvas 204 23 358 238 fft 0;
#X obj 46 48 inlet~;
#X obj 159 145 inlet;
#X obj 46 78 rfft~;
#X obj 46 111 *~;
#X obj 77 111 *~;
#X obj 46 141 sqrt~;
#X obj 191 45 block~ 1024 1;
#X obj 159 181 tabwrite~ spectrum1;
#X connect 0 0 2 0;
#X connect 1 0 7 0;
#X connect 2 0 3 0;
#X connect 2 0 3 1;
#X connect 2 1 4 0;
#X connect 2 1 4 1;
#X connect 3 0 5 0;
#X connect 4 0 5 0;
#X connect 5 0 7 0;
#X restore 113 599 pd fft;
#X obj 113 574 *~ 1;
#X obj 170 569 metro 100;
#X connect 1 0 37 0;
#X connect 2 0 27 0;
#X connect 4 0 3 0;
#X connect 6 0 2 0;
#X connect 7 0 8 0;
#X connect 7 0 31 0;
#X connect 7 0 22 0;
#X connect 8 0 6 0;
#X connect 10 0 14 0;
#X connect 11 0 12 0;
#X connect 12 0 10 0;
#X connect 13 0 24 0;
#X connect 13 0 36 0;
#X connect 14 0 28 0;
#X connect 15 0 2 1;
#X connect 15 0 14 1;
#X connect 15 0 21 1;
#X connect 18 0 21 0;
#X connect 19 0 20 0;
#X connect 20 0 18 0;
#X connect 21 0 29 0;
#X connect 22 0 19 0;
#X connect 24 0 5 0;
#X connect 24 0 5 1;
#X connect 24 0 25 0;
#X connect 27 0 13 0;
#X connect 28 0 13 1;
#X connect 29 0 13 1;
#X connect 31 0 11 0;
#X connect 32 0 31 1;
#X connect 33 0 22 1;
#X connect 36 0 35 0;
#X connect 37 0 25 0;
#X connect 37 0 35 1;
