#N canvas 331 134 1019 681 10;
#X msg 204 217 close;
#X obj 45 8 cnv 15 440 60 empty empty empty 20 12 0 14 #c0d828 #404040
0;
#X msg 195 190 devices;
#X floatatom 255 198 5 0 0 0 - - - 0;
#X msg 255 217 open \$1;
#X obj 195 304 s;
#X obj 195 282 serial_print any;
#X text 49 82 Requires [comport] object \; install under Help > Find
Externals, f 72;
#X text 52 16 [serial_print]: abstraction that works with Arduinos'
Serial.print() and Serial.println() functions (with the use of [comport]).
It was written by Alexandros Drymonitis. \; See https://github.com/alexdrymonitis/Arduino_Pd
;
#X symbolatom 288 303 20 0 0 0 - - - 0;
#X obj 163 161 r digout;
#X obj 195 260 comport 1 9600;
#X obj 601 88 r touch_values:;
#X floatatom 601 154 5 0 0 0 - - - 0;
#X floatatom 642 155 5 0 0 0 - - - 0;
#X floatatom 691 161 5 0 0 0 - - - 0;
#X floatatom 738 152 5 0 0 0 - - - 0;
#X floatatom 779 153 5 0 0 0 - - - 0;
#X floatatom 828 159 5 0 0 0 - - - 0;
#X obj 604 114 unpack f f f f f f, f 41;
#X obj 656 390 bng 15 250 50 0 empty empty empty 17 7 0 10 #fcfcfc
#000000 #000000;
#X obj 658 494 f;
#X obj 656 365 t b f;
#X obj 657 540 s digout;
#X text 751 413 ensures data isn't sent too fast;
#X obj 630 442 t b b;
#X floatatom 657 298 5 0 0 0 - - - 0;
#X text 502 494 number of output pin;
#X obj 656 413 bangfilter 20;
#X obj 631 494 f 6;
#X obj 663 274 tgl 15 0 empty empty empty 17 7 0 10 #fcfcfc #000000
#000000 0 1;
#X obj 596 211 > 2000;
#X obj 591 243 change;
#X connect 0 0 11 0;
#X connect 2 0 11 0;
#X connect 3 0 4 0;
#X connect 4 0 11 0;
#X connect 6 0 5 0;
#X connect 6 1 5 1;
#X connect 6 1 9 0;
#X connect 10 0 11 0;
#X connect 11 0 6 0;
#X connect 12 0 19 0;
#X connect 13 0 31 0;
#X connect 19 0 13 0;
#X connect 19 1 14 0;
#X connect 19 2 15 0;
#X connect 19 3 16 0;
#X connect 19 4 17 0;
#X connect 19 5 18 0;
#X connect 20 0 28 0;
#X connect 21 0 23 0;
#X connect 22 0 20 0;
#X connect 22 1 21 1;
#X connect 25 0 21 0;
#X connect 25 1 29 0;
#X connect 26 0 22 0;
#X connect 28 0 25 0;
#X connect 29 0 23 0;
#X connect 30 0 26 0;
#X connect 31 0 32 0;
#X connect 32 0 30 0;
