#N canvas 731 243 450 300 12;
#X floatatom 245 60 5 0 0 0 - - -;
#X floatatom 245 152 5 0 0 0 - - -;
#X floatatom 296 59 5 0 0 0 - - -;
#X floatatom 347 59 5 0 0 0 - - -;
#X obj 62 77 * 100;
#X obj 62 123 + 10;
#X floatatom 62 43 5 0 0 0 - - -;
#X floatatom 62 171 5 0 0 0 - - -;
#X text 109 76 scale;
#X text 109 124 offset;
#X obj 245 102 ps.*+ 100 10;
#X connect 0 0 10 0;
#X connect 2 0 10 1;
#X connect 3 0 10 2;
#X connect 4 0 5 0;
#X connect 5 0 7 0;
#X connect 6 0 4 0;
#X connect 10 0 1 0;
