#N canvas 0 42 2029 776 12;
#X floatatom 1597 471 5 0 0 0 - - -;
#X floatatom 1289 449 5 0 0 0 - - -;
#X msg 347 125 0;
#X msg 274 152 \; pd dsp \$1;
#X obj 33 90 tgl 20 0 empty empty 25_main 23 7 0 10 -262144 -1 -1 0
1;
#X obj 117 90 tgl 20 0 empty empty 4_subs 23 7 0 10 -262144 -1 -1 0
1;
#X obj 347 70 bng 40 250 50 0 empty empty panic 42 7 0 10 -258113 -262144
-258113;
#X obj 278 70 tgl 40 0 empty empty dsp 42 7 0 10 -262144 -1 -1 0 1
;
#X obj 32 326 inlet~;
#X obj 82 326 inlet~;
#X obj 132 326 inlet~;
#X obj 182 326 inlet~;
#X obj 232 326 inlet~;
#X obj 282 326 inlet~;
#X obj 332 326 inlet~;
#X obj 382 326 inlet~;
#X obj 432 326 inlet~;
#X obj 482 326 inlet~;
#X obj 1468 325 inlet~;
#X obj 1518 325 inlet~;
#X obj 32 448 *~;
#X obj 82 448 *~;
#X obj 132 448 *~;
#X obj 183 448 *~;
#X obj 233 448 *~;
#X obj 283 448 *~;
#X obj 333 448 *~;
#X obj 383 448 *~;
#X obj 432 448 *~;
#X obj 482 448 *~;
#X obj 1468 372 *~;
#X obj 1519 372 *~;
#X obj 580 178 line~, f 10;
#X obj 580 92 pack f 100;
#X obj 1752 286 inlet;
#X obj 1799 286 r \$1;
#X obj 33 43 hsl 200 20 0 1 0 0 empty empty gain 204 10 0 10 -262144
-1 -1 0 1;
#X obj 1754 337 route /gain /ramp /main /subs;
#N canvas 0 82 1900 758 clip_filter_trim_25_speakers 0;
#X obj 30 416 clip~ -1 1;
#X obj 30 360 *~ 0.1;
#X obj 30 330 *~;
#X obj 30 299 inlet~;
#X obj 30 453 outlet~;
#X obj 109 416 clip~ -1 1;
#X obj 109 360 *~ 0.1;
#X obj 109 330 *~;
#X obj 109 299 inlet~;
#X obj 109 453 outlet~;
#X obj 187 416 clip~ -1 1;
#X obj 187 360 *~ 0.1;
#X obj 187 330 *~;
#X obj 187 299 inlet~;
#X obj 187 453 outlet~;
#X obj 266 416 clip~ -1 1;
#X obj 266 360 *~ 0.1;
#X obj 266 330 *~;
#X obj 266 299 inlet~;
#X obj 266 453 outlet~;
#X obj 344 416 clip~ -1 1;
#X obj 344 360 *~ 0.1;
#X obj 344 330 *~;
#X obj 344 299 inlet~;
#X obj 344 453 outlet~;
#X obj 440 373 clip~ -1 1;
#X obj 440 317 *~ 0.1;
#X obj 440 287 *~;
#X obj 440 256 inlet~;
#X obj 440 410 outlet~;
#X obj 518 373 clip~ -1 1;
#X obj 518 317 *~ 0.1;
#X obj 518 287 *~;
#X obj 518 256 inlet~;
#X obj 518 410 outlet~;
#X obj 597 373 clip~ -1 1;
#X obj 597 317 *~ 0.1;
#X obj 597 287 *~;
#X obj 597 256 inlet~;
#X obj 597 410 outlet~;
#X obj 675 373 clip~ -1 1;
#X obj 675 317 *~ 0.1;
#X obj 675 287 *~;
#X obj 675 256 inlet~;
#X obj 675 410 outlet~;
#X obj 754 373 clip~ -1 1;
#X obj 754 317 *~ 0.1;
#X obj 754 287 *~;
#X obj 754 256 inlet~;
#X obj 754 410 outlet~;
#X obj 526 167 line~;
#X obj 2009 256 inlet;
#X obj 526 134 pack 0 50;
#X obj 30 386 hip~ 30;
#X obj 109 386 hip~ 30;
#X obj 187 386 hip~ 30;
#X obj 266 386 hip~ 30;
#X obj 344 386 hip~ 30;
#X obj 440 343 hip~ 30;
#X obj 518 343 hip~ 30;
#X obj 597 343 hip~ 30;
#X obj 675 343 hip~ 30;
#X obj 754 343 hip~ 30;
#X obj 842 440 clip~ -1 1;
#X obj 842 384 *~ 0.1;
#X obj 842 354 *~;
#X obj 842 323 inlet~;
#X obj 842 477 outlet~;
#X obj 921 440 clip~ -1 1;
#X obj 921 384 *~ 0.1;
#X obj 921 354 *~;
#X obj 921 323 inlet~;
#X obj 921 477 outlet~;
#X obj 999 440 clip~ -1 1;
#X obj 999 384 *~ 0.1;
#X obj 999 354 *~;
#X obj 999 323 inlet~;
#X obj 999 477 outlet~;
#X obj 1078 440 clip~ -1 1;
#X obj 1078 384 *~ 0.1;
#X obj 1078 354 *~;
#X obj 1078 323 inlet~;
#X obj 1078 477 outlet~;
#X obj 1156 440 clip~ -1 1;
#X obj 1156 384 *~ 0.1;
#X obj 1156 354 *~;
#X obj 1156 323 inlet~;
#X obj 1156 477 outlet~;
#X obj 1229 373 clip~ -1 1;
#X obj 1229 317 *~ 0.1;
#X obj 1229 287 *~;
#X obj 1229 256 inlet~;
#X obj 1229 410 outlet~;
#X obj 1307 373 clip~ -1 1;
#X obj 1307 317 *~ 0.1;
#X obj 1307 287 *~;
#X obj 1307 256 inlet~;
#X obj 1307 410 outlet~;
#X obj 1386 373 clip~ -1 1;
#X obj 1386 317 *~ 0.1;
#X obj 1386 287 *~;
#X obj 1386 256 inlet~;
#X obj 1386 410 outlet~;
#X obj 1464 373 clip~ -1 1;
#X obj 1464 317 *~ 0.1;
#X obj 1464 287 *~;
#X obj 1464 256 inlet~;
#X obj 1464 410 outlet~;
#X obj 1543 375 clip~ -1 1;
#X obj 1543 319 *~ 0.1;
#X obj 1543 289 *~;
#X obj 1543 258 inlet~;
#X obj 1543 412 outlet~;
#X obj 842 410 hip~ 30;
#X obj 921 410 hip~ 30;
#X obj 999 410 hip~ 30;
#X obj 1078 410 hip~ 30;
#X obj 1156 410 hip~ 30;
#X obj 1229 343 hip~ 30;
#X obj 1307 343 hip~ 30;
#X obj 1386 343 hip~ 30;
#X obj 1464 343 hip~ 30;
#X obj 1543 345 hip~ 30;
#X obj 1630 416 clip~ -1 1;
#X obj 1630 360 *~ 0.1;
#X obj 1630 330 *~;
#X obj 1630 299 inlet~;
#X obj 1630 453 outlet~;
#X obj 1709 416 clip~ -1 1;
#X obj 1709 360 *~ 0.1;
#X obj 1709 330 *~;
#X obj 1709 299 inlet~;
#X obj 1709 453 outlet~;
#X obj 1787 416 clip~ -1 1;
#X obj 1787 360 *~ 0.1;
#X obj 1787 330 *~;
#X obj 1787 299 inlet~;
#X obj 1787 453 outlet~;
#X obj 1866 416 clip~ -1 1;
#X obj 1866 360 *~ 0.1;
#X obj 1866 330 *~;
#X obj 1866 299 inlet~;
#X obj 1866 453 outlet~;
#X obj 1630 386 hip~ 30;
#X obj 1709 386 hip~ 30;
#X obj 1787 386 hip~ 30;
#X obj 1866 386 hip~ 30;
#X obj 1944 415 clip~ -1 1;
#X obj 1944 359 *~ 0.1;
#X obj 1944 329 *~;
#X obj 1944 298 inlet~;
#X obj 1944 452 outlet~;
#X obj 1944 385 hip~ 30;
#X connect 0 0 4 0;
#X connect 1 0 53 0;
#X connect 2 0 1 0;
#X connect 3 0 2 0;
#X connect 5 0 9 0;
#X connect 6 0 54 0;
#X connect 7 0 6 0;
#X connect 8 0 7 0;
#X connect 10 0 14 0;
#X connect 11 0 55 0;
#X connect 12 0 11 0;
#X connect 13 0 12 0;
#X connect 15 0 19 0;
#X connect 16 0 56 0;
#X connect 17 0 16 0;
#X connect 18 0 17 0;
#X connect 20 0 24 0;
#X connect 21 0 57 0;
#X connect 22 0 21 0;
#X connect 23 0 22 0;
#X connect 25 0 29 0;
#X connect 26 0 58 0;
#X connect 27 0 26 0;
#X connect 28 0 27 0;
#X connect 30 0 34 0;
#X connect 31 0 59 0;
#X connect 32 0 31 0;
#X connect 33 0 32 0;
#X connect 35 0 39 0;
#X connect 36 0 60 0;
#X connect 37 0 36 0;
#X connect 38 0 37 0;
#X connect 40 0 44 0;
#X connect 41 0 61 0;
#X connect 42 0 41 0;
#X connect 43 0 42 0;
#X connect 45 0 49 0;
#X connect 46 0 62 0;
#X connect 47 0 46 0;
#X connect 48 0 47 0;
#X connect 50 0 2 1;
#X connect 50 0 7 1;
#X connect 50 0 12 1;
#X connect 50 0 22 1;
#X connect 50 0 17 1;
#X connect 50 0 27 1;
#X connect 50 0 32 1;
#X connect 50 0 37 1;
#X connect 50 0 42 1;
#X connect 50 0 47 1;
#X connect 50 0 65 1;
#X connect 50 0 70 1;
#X connect 50 0 75 1;
#X connect 50 0 80 1;
#X connect 50 0 85 1;
#X connect 50 0 90 1;
#X connect 50 0 95 1;
#X connect 50 0 100 1;
#X connect 50 0 105 1;
#X connect 50 0 110 1;
#X connect 50 0 125 1;
#X connect 50 0 130 1;
#X connect 50 0 135 1;
#X connect 50 0 140 1;
#X connect 50 0 149 1;
#X connect 51 0 52 0;
#X connect 52 0 50 0;
#X connect 53 0 0 0;
#X connect 54 0 5 0;
#X connect 55 0 10 0;
#X connect 56 0 15 0;
#X connect 57 0 20 0;
#X connect 58 0 25 0;
#X connect 59 0 30 0;
#X connect 60 0 35 0;
#X connect 61 0 40 0;
#X connect 62 0 45 0;
#X connect 63 0 67 0;
#X connect 64 0 113 0;
#X connect 65 0 64 0;
#X connect 66 0 65 0;
#X connect 68 0 72 0;
#X connect 69 0 114 0;
#X connect 70 0 69 0;
#X connect 71 0 70 0;
#X connect 73 0 77 0;
#X connect 74 0 115 0;
#X connect 75 0 74 0;
#X connect 76 0 75 0;
#X connect 78 0 82 0;
#X connect 79 0 116 0;
#X connect 80 0 79 0;
#X connect 81 0 80 0;
#X connect 83 0 87 0;
#X connect 84 0 117 0;
#X connect 85 0 84 0;
#X connect 86 0 85 0;
#X connect 88 0 92 0;
#X connect 89 0 118 0;
#X connect 90 0 89 0;
#X connect 91 0 90 0;
#X connect 93 0 97 0;
#X connect 94 0 119 0;
#X connect 95 0 94 0;
#X connect 96 0 95 0;
#X connect 98 0 102 0;
#X connect 99 0 120 0;
#X connect 100 0 99 0;
#X connect 101 0 100 0;
#X connect 103 0 107 0;
#X connect 104 0 121 0;
#X connect 105 0 104 0;
#X connect 106 0 105 0;
#X connect 108 0 112 0;
#X connect 109 0 122 0;
#X connect 110 0 109 0;
#X connect 111 0 110 0;
#X connect 113 0 63 0;
#X connect 114 0 68 0;
#X connect 115 0 73 0;
#X connect 116 0 78 0;
#X connect 117 0 83 0;
#X connect 118 0 88 0;
#X connect 119 0 93 0;
#X connect 120 0 98 0;
#X connect 121 0 103 0;
#X connect 122 0 108 0;
#X connect 123 0 127 0;
#X connect 124 0 143 0;
#X connect 125 0 124 0;
#X connect 126 0 125 0;
#X connect 128 0 132 0;
#X connect 129 0 144 0;
#X connect 130 0 129 0;
#X connect 131 0 130 0;
#X connect 133 0 137 0;
#X connect 134 0 145 0;
#X connect 135 0 134 0;
#X connect 136 0 135 0;
#X connect 138 0 142 0;
#X connect 139 0 146 0;
#X connect 140 0 139 0;
#X connect 141 0 140 0;
#X connect 143 0 123 0;
#X connect 144 0 128 0;
#X connect 145 0 133 0;
#X connect 146 0 138 0;
#X connect 147 0 151 0;
#X connect 148 0 152 0;
#X connect 149 0 148 0;
#X connect 150 0 149 0;
#X connect 152 0 147 0;
#X restore 153 571 pd clip_filter_trim_25_speakers;
#X f 105;
#X obj 143 621 dac~ 1 2 3 4 5 6 7 8 9 10 11 12 13 14 15 16 17 18 19
20 21 22 23 24 25 26 27 28 29, f 130;
#X obj 533 327 inlet~;
#X obj 583 327 inlet~;
#X obj 633 327 inlet~;
#X obj 683 327 inlet~;
#X obj 733 327 inlet~;
#X obj 783 327 inlet~;
#X obj 833 327 inlet~;
#X obj 883 327 inlet~;
#X obj 933 327 inlet~;
#X obj 983 327 inlet~;
#X obj 533 449 *~;
#X obj 583 449 *~;
#X obj 633 449 *~;
#X obj 684 449 *~;
#X obj 734 449 *~;
#X obj 784 449 *~;
#X obj 834 449 *~;
#X obj 884 449 *~;
#X obj 933 449 *~;
#X obj 983 449 *~;
#X obj 1037 327 inlet~;
#X obj 1087 327 inlet~;
#X obj 1137 327 inlet~;
#X obj 1187 327 inlet~;
#X obj 1237 327 inlet~;
#X obj 1038 449 *~;
#X obj 1088 449 *~;
#X obj 1138 449 *~;
#X obj 1187 449 *~;
#X obj 1237 449 *~;
#N canvas 712 93 707 552 clip_dcoffset_trim_4_subs 0;
#X obj 47 404 clip~ -1 1;
#X obj 47 317 *~ 0.1;
#X obj 47 287 *~;
#X obj 47 213 inlet~;
#X obj 47 441 outlet~;
#X obj 126 404 clip~ -1 1;
#X obj 126 317 *~ 0.1;
#X obj 126 287 *~;
#X obj 126 213 inlet~;
#X obj 126 441 outlet~;
#X obj 523 249 line~;
#X obj 513 189 inlet;
#X obj 513 218 pack 0 50;
#X obj 47 347 lop~ 100;
#X obj 126 347 lop~ 100;
#X obj 47 374 hip~ 20;
#X obj 126 374 hip~ 20;
#X obj 210 404 clip~ -1 1;
#X obj 210 317 *~ 0.1;
#X obj 210 287 *~;
#X obj 210 213 inlet~;
#X obj 210 441 outlet~;
#X obj 289 404 clip~ -1 1;
#X obj 289 317 *~ 0.1;
#X obj 289 287 *~;
#X obj 289 213 inlet~;
#X obj 289 441 outlet~;
#X obj 210 347 lop~ 100;
#X obj 289 347 lop~ 100;
#X obj 210 374 hip~ 20;
#X obj 289 374 hip~ 20;
#X connect 0 0 4 0;
#X connect 1 0 13 0;
#X connect 2 0 1 0;
#X connect 3 0 2 0;
#X connect 5 0 9 0;
#X connect 6 0 14 0;
#X connect 7 0 6 0;
#X connect 8 0 7 0;
#X connect 10 0 7 1;
#X connect 10 0 2 1;
#X connect 10 0 19 1;
#X connect 10 0 24 1;
#X connect 11 0 12 0;
#X connect 12 0 10 0;
#X connect 13 0 15 0;
#X connect 14 0 16 0;
#X connect 15 0 0 0;
#X connect 16 0 5 0;
#X connect 17 0 21 0;
#X connect 18 0 27 0;
#X connect 19 0 18 0;
#X connect 20 0 19 0;
#X connect 22 0 26 0;
#X connect 23 0 28 0;
#X connect 24 0 23 0;
#X connect 25 0 24 0;
#X connect 27 0 29 0;
#X connect 28 0 30 0;
#X connect 29 0 17 0;
#X connect 30 0 22 0;
#X restore 1404 503 pd clip_dcoffset_trim_4_subs;
#X obj 1571 326 inlet~;
#X obj 1621 326 inlet~;
#X obj 1571 373 *~;
#X obj 1622 373 *~;
#X connect 0 0 70 4;
#X connect 1 0 38 25;
#X connect 2 0 4 0;
#X connect 2 0 5 0;
#X connect 2 0 36 0;
#X connect 4 0 1 0;
#X connect 5 0 0 0;
#X connect 6 0 2 0;
#X connect 7 0 3 0;
#X connect 8 0 20 0;
#X connect 9 0 21 0;
#X connect 10 0 22 0;
#X connect 11 0 23 0;
#X connect 12 0 24 0;
#X connect 13 0 25 0;
#X connect 14 0 26 0;
#X connect 15 0 27 0;
#X connect 16 0 28 0;
#X connect 17 0 29 0;
#X connect 18 0 30 0;
#X connect 19 0 31 0;
#X connect 20 0 38 0;
#X connect 21 0 38 1;
#X connect 22 0 38 2;
#X connect 23 0 38 3;
#X connect 24 0 38 4;
#X connect 25 0 38 5;
#X connect 26 0 38 6;
#X connect 27 0 38 7;
#X connect 28 0 38 8;
#X connect 29 0 38 9;
#X connect 30 0 70 0;
#X connect 31 0 70 1;
#X connect 32 0 31 1;
#X connect 32 0 30 1;
#X connect 32 0 29 1;
#X connect 32 0 28 1;
#X connect 32 0 27 1;
#X connect 32 0 26 1;
#X connect 32 0 25 1;
#X connect 32 0 24 1;
#X connect 32 0 23 1;
#X connect 32 0 22 1;
#X connect 32 0 21 1;
#X connect 32 0 20 1;
#X connect 32 0 50 1;
#X connect 32 0 51 1;
#X connect 32 0 52 1;
#X connect 32 0 53 1;
#X connect 32 0 54 1;
#X connect 32 0 55 1;
#X connect 32 0 56 1;
#X connect 32 0 57 1;
#X connect 32 0 58 1;
#X connect 32 0 59 1;
#X connect 32 0 65 1;
#X connect 32 0 66 1;
#X connect 32 0 67 1;
#X connect 32 0 68 1;
#X connect 32 0 69 1;
#X connect 32 0 73 1;
#X connect 32 0 74 1;
#X connect 33 0 32 0;
#X connect 34 0 37 0;
#X connect 35 0 37 0;
#X connect 36 0 33 0;
#X connect 37 0 36 0;
#X connect 37 1 33 1;
#X connect 37 2 4 0;
#X connect 37 3 5 0;
#X connect 38 0 39 0;
#X connect 38 1 39 1;
#X connect 38 2 39 2;
#X connect 38 3 39 3;
#X connect 38 4 39 4;
#X connect 38 5 39 5;
#X connect 38 6 39 6;
#X connect 38 7 39 7;
#X connect 38 8 39 8;
#X connect 38 9 39 9;
#X connect 38 10 39 10;
#X connect 38 11 39 11;
#X connect 38 12 39 12;
#X connect 38 13 39 13;
#X connect 38 14 39 14;
#X connect 38 15 39 15;
#X connect 38 16 39 16;
#X connect 38 17 39 17;
#X connect 38 18 39 18;
#X connect 38 19 39 19;
#X connect 38 20 39 20;
#X connect 38 21 39 21;
#X connect 38 22 39 22;
#X connect 38 23 39 23;
#X connect 38 24 39 24;
#X connect 40 0 50 0;
#X connect 41 0 51 0;
#X connect 42 0 52 0;
#X connect 43 0 53 0;
#X connect 44 0 54 0;
#X connect 45 0 55 0;
#X connect 46 0 56 0;
#X connect 47 0 57 0;
#X connect 48 0 58 0;
#X connect 49 0 59 0;
#X connect 50 0 38 10;
#X connect 51 0 38 11;
#X connect 52 0 38 12;
#X connect 53 0 38 13;
#X connect 54 0 38 14;
#X connect 55 0 38 15;
#X connect 56 0 38 16;
#X connect 57 0 38 17;
#X connect 58 0 38 18;
#X connect 59 0 38 19;
#X connect 60 0 65 0;
#X connect 61 0 66 0;
#X connect 62 0 67 0;
#X connect 63 0 68 0;
#X connect 64 0 69 0;
#X connect 65 0 38 20;
#X connect 66 0 38 21;
#X connect 67 0 38 22;
#X connect 68 0 38 23;
#X connect 69 0 38 24;
#X connect 70 0 39 25;
#X connect 70 1 39 26;
#X connect 70 2 39 27;
#X connect 70 3 39 28;
#X connect 71 0 73 0;
#X connect 72 0 74 0;
#X connect 73 0 70 2;
#X connect 74 0 70 3;
#X coords 0 -1 1 1 400 100 1 20 20;
