#N canvas 368 52 982 420 12;
#X obj 27 216 outlet;
#X obj 108 148 del \$1;
#X obj 178 148 del \$1;
#X obj 251 148 del \$1;
#X obj 321 148 del \$1;
#X obj 401 148 del \$1;
#X obj 475 148 del \$1;
#X obj 543 148 del \$1;
#X obj 64 70 inlet;
#X obj 107 216 outlet;
#X obj 178 216 outlet;
#X obj 251 216 outlet;
#X obj 321 216 outlet;
#X obj 401 216 outlet;
#X obj 475 216 outlet;
#X obj 543 216 outlet;
#X obj 582 70 inlet;
#X connect 1 0 2 0;
#X connect 1 0 9 0;
#X connect 2 0 3 0;
#X connect 2 0 10 0;
#X connect 3 0 11 0;
#X connect 3 0 4 0;
#X connect 4 0 5 0;
#X connect 4 0 12 0;
#X connect 5 0 6 0;
#X connect 5 0 13 0;
#X connect 6 0 7 0;
#X connect 6 0 14 0;
#X connect 7 0 15 0;
#X connect 8 0 0 0;
#X connect 8 0 1 0;
#X connect 16 0 7 1;
#X connect 16 0 6 1;
#X connect 16 0 5 1;
#X connect 16 0 4 1;
#X connect 16 0 3 1;
#X connect 16 0 2 1;
#X connect 16 0 1 1;
