#N canvas 219 77 1184 854 12;
#X floatatom 726 179 5 0 0 1 offset - -;
#X floatatom 333 68 5 0 0 1 hits - -;
#X floatatom 595 179 5 0 0 1 steps - -;
#X obj 380 362 * \$2;
#X obj 380 438 < \$2;
#X obj 380 400 mod \$3;
#X obj 380 324 + \$4;
#X obj 333 198 until;
#X obj 333 167 f;
#X obj 382 258 + 1;
#X obj 333 258 f 0;
#X obj 333 130 bng 15 250 50 0 empty empty empty 17 7 0 10 -262144
-1 -1;
#N canvas 0 22 450 278 (subpatch) 0;
#X array \$0-euk 8 float 3;
#A 0 1 0 1 0 1 1 0 1;
#X coords 0 2 8 -1 200 140 1 0 0;
#X restore 110 150 graph;
#X floatatom 596 379 5 0 0 0 - - -;
#X obj 333 100 t b f f b, f 25;
#X msg 351 232 0;
#N canvas 501 407 933 621 list-group 0;
#X floatatom 273 31 5 0 0 2 change-size - -;
#X obj 341 40 inlet;
#X obj 180 60 inlet;
#X obj 180 302 outlet;
#X obj 180 183 list prepend;
#X obj 180 111 t b a;
#X obj 180 151 until;
#X obj 261 270 t b a;
#X obj 261 153 list prepend;
#X obj 341 118 t b b f;
#X text 407 117 reset (b) and set new length (f).;
#X obj 395 40 loadbang;
#X obj 180 228 list split 1;
#X obj 387 154 max 1;
#X obj 341 84 f 8;
#X obj 431 327 pdcontrol;
#X msg 431 298 browse https://github.com/pd-externals/list-abs;
#X text 430 268 This taken from list-abs library.;
#X connect 0 0 14 0;
#X connect 1 0 14 0;
#X connect 2 0 5 0;
#X connect 4 0 12 0;
#X connect 5 0 6 0;
#X connect 5 1 8 0;
#X connect 6 0 4 0;
#X connect 7 0 6 1;
#X connect 7 1 8 1;
#X connect 8 0 4 1;
#X connect 9 0 4 1;
#X connect 9 1 8 1;
#X connect 9 2 13 0;
#X connect 11 0 14 0;
#X connect 12 0 3 0;
#X connect 12 1 4 1;
#X connect 12 2 7 0;
#X connect 13 0 12 1;
#X connect 14 0 9 0;
#X connect 16 0 15 0;
#X restore 380 476 pd list-group;
#X obj 380 508 array set \$0-euk;
#X obj 596 418 array size \$0-euk;
#X obj 758 441 symbol \$0-euk;
#X obj 758 525 outlet;
#X msg 758 470 set \$1;
#X msg 853 522 1038-euk;
#X obj 830 27 loadbang;
#X obj 333 31 f \$2;
#X obj 595 150 f \$3;
#X obj 726 150 f \$4;
#X obj 831 62 t b b b b b;
#X obj 942 522 outlet;
#X obj 966 25 r \$1;
#X obj 966 55 route /offset /steps /hits;
#X obj 1011 23 inlet;
#X text 994 521 number of steps;
#X text 541 526 set tabread with correct array;
#X connect 0 0 6 1;
#X connect 1 0 14 0;
#X connect 2 0 5 1;
#X connect 2 0 8 1;
#X connect 2 0 13 0;
#X connect 2 0 28 0;
#X connect 3 0 5 0;
#X connect 4 0 16 0;
#X connect 5 0 4 0;
#X connect 6 0 3 0;
#X connect 7 0 10 0;
#X connect 8 0 7 0;
#X connect 9 0 10 1;
#X connect 10 0 9 0;
#X connect 10 0 6 0;
#X connect 11 0 8 0;
#X connect 13 0 16 1;
#X connect 13 0 18 0;
#X connect 14 0 11 0;
#X connect 14 1 3 1;
#X connect 14 2 4 1;
#X connect 14 3 15 0;
#X connect 15 0 10 1;
#X connect 16 0 17 0;
#X connect 19 0 21 0;
#X connect 21 0 22 0;
#X connect 21 0 20 0;
#X connect 23 0 27 0;
#X connect 24 0 1 0;
#X connect 25 0 2 0;
#X connect 26 0 0 0;
#X connect 27 1 24 0;
#X connect 27 2 25 0;
#X connect 27 3 26 0;
#X connect 27 4 19 0;
#X connect 29 0 30 0;
#X connect 30 0 26 0;
#X connect 30 1 25 0;
#X connect 30 2 24 0;
#X connect 31 0 30 0;
#X coords 0 -1 1 1 220 200 1 100 100;
