#N canvas 857 271 1095 730 12;
#X obj 249 205 ps.mean m1, f 11;
#X msg 412 131 /rate \$1;
#X floatatom 412 107 5 0 0 0 - - -;
#X msg 379 65 /poll \$1;
#X obj 379 35 tgl 15 0 empty empty empty 17 7 0 10 -262144 -1 -1 0
1;
#X floatatom 389 194 5 0 0 0 - - -;
#X msg 389 219 /size \$1;
#X floatatom 249 74 5 0 0 0 - - -;
#X floatatom 249 237 5 0 0 0 - - -;
#X obj 249 331 int;
#X floatatom 249 395 5 0 0 0 - - -;
#X obj 249 366 change;
#X text 348 298 additional steps:;
#X obj 19 453 line;
#X obj 22 592 hsl 128 15 0 127 0 0 empty empty empty -2 -8 0 10 -262144
-1 -1 5700 1;
#X text 79 448 <- use line to smooth out values;
#X text 316 366 <- filter out redundant numbers;
#X text 288 333 <- convert float to integer;
#X text 408 31 <- turn on polling;
#X text 465 104 <- set polling rate;
#X text 442 190 <- size of window for averaging;
#X text 715 95 example problem: analog sensor readings that don't stabilize
(jumpy potentiometer);
#X obj 647 12 loadbang;
#X obj 647 37 t b b;
#X msg 647 63 100;
#X msg 682 63 10;
#X msg 19 417 \$1 200;
#X floatatom 19 484 5 0 0 0 - - -;
#X obj 19 511 int;
#X floatatom 19 566 5 0 0 0 - - -;
#X obj 19 537 change;
#X text 69 534 <- filter out redundant numbers;
#X text 58 510 <- convert float to integer;
#X obj 249 41 ctlin 1, f 9;
#X connect 0 0 8 0;
#X connect 1 0 0 1;
#X connect 2 0 1 0;
#X connect 3 0 0 1;
#X connect 4 0 3 0;
#X connect 5 0 6 0;
#X connect 6 0 0 1;
#X connect 7 0 0 0;
#X connect 7 0 26 0;
#X connect 8 0 9 0;
#X connect 9 0 11 0;
#X connect 11 0 10 0;
#X connect 13 0 27 0;
#X connect 22 0 23 0;
#X connect 23 0 24 0;
#X connect 23 1 25 0;
#X connect 24 0 2 0;
#X connect 25 0 5 0;
#X connect 26 0 13 0;
#X connect 27 0 28 0;
#X connect 28 0 30 0;
#X connect 29 0 14 0;
#X connect 30 0 29 0;
#X connect 33 0 7 0;
