#N canvas 497 96 1365 851 12;
#X floatatom 41 12 5 0 0 0 - - -;
#X floatatom 41 70 5 0 0 0 - - -;
#X floatatom 239 147 5 0 0 0 - - -;
#X floatatom 323 303 5 0 0 0 - - -;
#X floatatom 380 328 5 0 0 0 - - -;
#X floatatom 380 397 5 0 0 0 - - -;
#X obj 380 362 ps.scale 50 800 500 5;
#X floatatom 419 109 5 0 0 0 - - -;
#X text 222 56 calibrating sensors?;
#X obj 438 158 + 100;
#X floatatom 438 194 5 0 0 0 - - -;
#X text 461 109 low reading of sensor;
#X text 475 194 high value;
#X text 490 160 establish range with math;
#X text 276 147 sensor reading;
#X obj 418 83 f;
#X floatatom 436 49 5 0 0 0 - - -;
#X obj 391 49 bng 15 250 50 0 empty empty empty 17 7 0 10 -262144 -1
-1;
#X text 485 53 sensor on start;
#X obj 324 268 ps.scale 0 1024 0 1;
#X obj 41 46 ps.scale -150 150 0 1;
#X obj 43 115 + 100;
#X obj 42 91 * 1900;
#X floatatom 42 142 5 0 0 0 - - -;
#X obj 41 170 ftom;
#X floatatom 41 199 5 0 0 0 - - -;
#X obj 42 225 int;
#X floatatom 41 252 5 0 0 0 - - -;
#X obj 42 299 route 12 15 17 18 59 49 32;
#X floatatom 221 328 5 0 0 0 - - -;
#X connect 0 0 20 0;
#X connect 1 0 22 0;
#X connect 2 0 19 0;
#X connect 4 0 6 0;
#X connect 6 0 5 0;
#X connect 7 0 9 0;
#X connect 7 0 19 1;
#X connect 9 0 10 0;
#X connect 15 0 7 0;
#X connect 16 0 15 1;
#X connect 17 0 15 0;
#X connect 19 0 3 0;
#X connect 20 0 1 0;
#X connect 21 0 23 0;
#X connect 22 0 21 0;
#X connect 23 0 24 0;
#X connect 24 0 25 0;
#X connect 25 0 26 0;
#X connect 26 0 27 0;
#X connect 27 0 28 0;
#X connect 28 7 29 0;
