#N canvas 122 23 1158 755 10;
#X msg 203 631 \; pd dsp \$1;
#X obj 203 583 tgl 30 0 empty empty empty 17 7 0 10 -262144 -1 -1 0
1;
#X obj 116 650 dac~;
#N canvas 0 22 771 392 vol 0;
#X obj 110 220 outlet~;
#X obj 109 36 inlet~;
#X obj 180 36 inlet;
#X obj 110 167 *~;
#X obj 137 133 line~;
#X msg 137 101 \$1 100;
#X connect 1 0 3 0;
#X connect 2 0 5 0;
#X connect 3 0 0 0;
#X connect 4 0 3 1;
#X connect 5 0 4 0;
#X restore 116 572 pd vol;
#X floatatom 179 539 5 0 1 0 - - -;
#X obj 182 491 hsl 128 30 0 1 0 0 empty empty empty -2 -8 0 10 -262144
-1 -1 0 1;
#X text 325 495 volume;
#X text 639 470 ADSR = Attack Decay Sustain Release;
#X text 639 485 Attack = time to reach loudest point;
#X text 639 501 Decay = time to reach sustain volume;
#X text 639 517 Sustain = volume of note till released;
#X text 640 532 Release = time to zero after note is released;
#X obj 116 512 *~;
#X obj 146 393 line~;
#X obj 146 428 tabread4~ adsr_envelope;
#X msg 146 351 0 \, 7 1000;
#X msg 260 351 0 \, 7 4000;
#N canvas 0 22 450 278 (subpatch) 0;
#X array adsr_envelope 8 float 1;
#A 0 0 0 1 0.7 0.7 0 0 0;
#X coords 0 1 7 0 200 140 1 0 0;
#X restore 397 453 graph;
#X text 559 160 when using messages to write an array \, the first
value is the index to begin writing \, so 0 will be following by 8
values in this case as the array size is 8;
#X msg 643 332 \; adsr_envelope 0 0 0.6 0.6 0.6 1 0 0 0 \;;
#X msg 642 389 \; adsr_envelope 0 0 1 0.6 0.6 0.6 0 0 0 \;;
#X msg 643 274 \; adsr_envelope 0 0 0 1 0.7 0.7 0 0 0 \;;
#X msg 643 233 \; adsr_envelope 0 0 0.2 0.4 0.5 0.4 0.2 0 0 \;;
#X obj 684 694 tabwrite adsr_envelope;
#X floatatom 813 668 5 0 0 0 - - -;
#X floatatom 684 656 5 0 0 0 - - -;
#X obj 687 614 hsl 128 15 0 1 0 0 empty empty empty -2 -8 0 10 -262144
-1 -1 0 1;
#X obj 813 645 hradio 15 1 0 8 empty empty empty 0 -8 0 10 -262144
-1 -1 0;
#X msg 376 352 0 \, 7 400;
#X obj 497 342 snapshot~;
#X floatatom 491 366 5 0 0 0 - - -;
#X obj 498 305 metro 20;
#X obj 497 266 tgl 15 0 empty empty empty 17 7 0 10 -262144 -1 -1 0
1;
#X obj 491 400 hsl 128 15 0 1 0 0 empty empty empty -2 -8 0 10 -262144
-1 -1 0 1;
#X obj 55 423 phasor~;
#X obj 56 347 *~ 2000;
#X obj 61 373 +~ 100;
#X connect 1 0 0 0;
#X connect 3 0 2 0;
#X connect 3 0 2 1;
#X connect 4 0 3 1;
#X connect 5 0 4 0;
#X connect 12 0 3 0;
#X connect 13 0 14 0;
#X connect 14 0 12 1;
#X connect 14 0 29 0;
#X connect 14 0 35 0;
#X connect 15 0 13 0;
#X connect 16 0 13 0;
#X connect 24 0 23 1;
#X connect 25 0 23 0;
#X connect 26 0 25 0;
#X connect 27 0 24 0;
#X connect 28 0 13 0;
#X connect 29 0 30 0;
#X connect 30 0 33 0;
#X connect 31 0 29 0;
#X connect 32 0 31 0;
#X connect 34 0 12 0;
#X connect 35 0 36 0;
#X connect 36 0 34 0;
