#N canvas 52 23 1228 695 12;
#X obj 376 589 dac~;
#X obj 381 543 *~ 0.4;
#N canvas 0 22 450 278 (subpatch) 0;
#X array soundfile1 4204 float 2;
#X coords 0 1 4204 -1 200 140 1;
#X restore 716 46 graph;
#X obj 408 247 tabread4~ soundfile1;
#X obj 408 208 line~;
#X obj 31 9 bng 15 250 50 0 empty empty empty 17 7 0 10 -262144 -1
-1;
#X obj 32 131 soundfiler;
#X msg 32 99 read -resize \$1 soundfile1;
#X floatatom 30 171 15 0 0 0 - - -;
#X obj 31 210 / 44100;
#X floatatom 25 245 15 0 0 0 - - -;
#X obj 34 280 * 1000;
#X floatatom 25 312 15 0 0 0 - - -;
#X obj 34 51 openpanel;
#X obj 420 51 metro 100;
#X obj 420 24 tgl 15 0 empty empty empty 17 7 0 10 -262144 -1 -1 0
1;
#X obj 226 10 bng 15 250 50 0 empty empty empty 17 7 0 10 -262144 -1
-1;
#X obj 227 132 soundfiler;
#X floatatom 225 172 15 0 0 0 - - -;
#X obj 226 211 / 44100;
#X floatatom 220 246 15 0 0 0 - - -;
#X obj 229 281 * 1000;
#X floatatom 220 313 15 0 0 0 - - -;
#X obj 229 52 openpanel;
#N canvas 0 22 450 278 (subpatch) 0;
#X array soundfile2 2531 float 2;
#X coords 0 1 2531 -1 200 140 1;
#X restore 716 244 graph;
#X msg 227 100 read -resize \$1 soundfile2;
#X obj 423 360 line~;
#X obj 423 399 tabread4~ soundfile2;
#X obj 426 110 select 0 1 2 3 4 5 6 7 8;
#X floatatom 471 21 5 0 0 0 - - -;
#X obj 115 427 print;
#X msg 475 529 read -resize /Users/s3g/Desktop/sounds/bossdr550mk2/WoodBlock1.wav
soundfile2;
#X msg 467 486 read -resize /Users/s3g/Desktop/sounds/bossdr550mk2/Conga1.wav
soundfile1;
#X obj 475 434 loadbang;
#X obj 425 85 random 13;
#X msg 607 303 0 \, 2531 10;
#X msg 512 301 0 \, 2531 20;
#X msg 413 300 0 \, 2531 30;
#X msg 398 149 0 \, 4204 10;
#X msg 497 150 0 \, 4204 10;
#X msg 592 151 0 \, 4204 20;
#X connect 1 0 0 0;
#X connect 1 0 0 1;
#X connect 3 0 1 0;
#X connect 4 0 3 0;
#X connect 5 0 13 0;
#X connect 6 0 8 0;
#X connect 7 0 6 0;
#X connect 8 0 9 0;
#X connect 9 0 10 0;
#X connect 10 0 11 0;
#X connect 11 0 12 0;
#X connect 13 0 7 0;
#X connect 14 0 34 0;
#X connect 15 0 14 0;
#X connect 16 0 23 0;
#X connect 17 0 18 0;
#X connect 18 0 19 0;
#X connect 19 0 20 0;
#X connect 20 0 21 0;
#X connect 21 0 22 0;
#X connect 23 0 25 0;
#X connect 23 0 30 0;
#X connect 25 0 17 0;
#X connect 26 0 27 0;
#X connect 27 0 1 0;
#X connect 28 0 38 0;
#X connect 28 1 39 0;
#X connect 28 2 40 0;
#X connect 28 5 37 0;
#X connect 28 7 36 0;
#X connect 28 8 35 0;
#X connect 29 0 14 1;
#X connect 31 0 17 0;
#X connect 32 0 6 0;
#X connect 33 0 32 0;
#X connect 33 0 31 0;
#X connect 34 0 28 0;
#X connect 35 0 26 0;
#X connect 36 0 26 0;
#X connect 37 0 26 0;
#X connect 38 0 4 0;
#X connect 39 0 4 0;
#X connect 40 0 4 0;
