#N canvas 264 23 1157 755 12;
#X obj 329 499 dac~;
#X obj 320 455 *~ 0.4;
#N canvas 0 22 450 278 (subpatch) 0;
#X array soundfile1 4204 float 2;
#X coords 0 1 4204 -1 200 140 1;
#X restore 509 97 graph;
#X obj 248 332 tabread4~ soundfile1;
#X obj 248 283 line~;
#X obj 69 25 openpanel;
#X obj 69 0 bng 15 250 50 0 empty empty empty 17 7 0 10 -262144 -1
-1;
#X obj 29 136 soundfiler;
#X msg 30 93 read -resize \$1 soundfile1;
#X floatatom 30 175 15 0 0 0 - - -;
#X obj 30 208 / 44100;
#X floatatom 32 241 15 0 0 0 - - -;
#X obj 31 272 * 1000;
#X floatatom 34 299 15 0 0 0 - - -;
#X obj 302 -8 tgl 15 0 empty empty empty 17 7 0 10 -262144 -1 -1 0
1;
#X obj 312 26 metro 200;
#X floatatom 370 3 5 0 0 0 - - -;
#X obj 80 55 print;
#X msg 56 569 read -resize /Users/s3g/Desktop/psps20-master/class3/1_sampling/3_sequencingSamples/sounds/bossdr550mk2/Conga1.wav
soundfile1;
#N canvas 0 22 450 278 (subpatch) 0;
#X array soundfile2 9579 float 2;
#X coords 0 1 9579 -1 200 140 1;
#X restore 731 97 graph;
#X obj 685 343 openpanel;
#X obj 685 318 bng 15 250 50 0 empty empty empty 17 7 0 10 -262144
-1 -1;
#X obj 645 454 soundfiler;
#X floatatom 646 493 15 0 0 0 - - -;
#X obj 646 526 / 44100;
#X floatatom 648 559 15 0 0 0 - - -;
#X obj 647 590 * 1000;
#X floatatom 650 617 15 0 0 0 - - -;
#X obj 696 373 print;
#X msg 646 411 read -resize \$1 soundfile2;
#X obj 466 294 line~;
#X obj 466 343 tabread4~ soundfile2;
#X obj 324 95 select 0 1 2 3 4 5;
#X obj 319 65 random 8;
#X msg 572 265 0 \, 9579 160;
#X msg 466 265 0 \, 9579 100;
#X msg 561 308 0 \, 9579 240;
#X msg 248 254 0 \, 4204 100;
#X msg 354 254 0 \, 4204 60;
#X msg 343 297 0 \, 4204 140;
#X connect 1 0 0 0;
#X connect 1 0 0 1;
#X connect 3 0 1 0;
#X connect 4 0 3 0;
#X connect 5 0 8 0;
#X connect 5 0 17 0;
#X connect 6 0 5 0;
#X connect 7 0 9 0;
#X connect 8 0 7 0;
#X connect 9 0 10 0;
#X connect 10 0 11 0;
#X connect 11 0 12 0;
#X connect 12 0 13 0;
#X connect 14 0 15 0;
#X connect 15 0 33 0;
#X connect 16 0 15 1;
#X connect 20 0 29 0;
#X connect 20 0 28 0;
#X connect 21 0 20 0;
#X connect 22 0 23 0;
#X connect 23 0 24 0;
#X connect 24 0 25 0;
#X connect 25 0 26 0;
#X connect 26 0 27 0;
#X connect 29 0 22 0;
#X connect 30 0 31 0;
#X connect 31 0 1 0;
#X connect 32 0 37 0;
#X connect 32 1 38 0;
#X connect 32 2 39 0;
#X connect 32 3 35 0;
#X connect 32 4 34 0;
#X connect 32 5 36 0;
#X connect 33 0 32 0;
#X connect 34 0 30 0;
#X connect 35 0 30 0;
#X connect 36 0 30 0;
#X connect 37 0 4 0;
#X connect 38 0 4 0;
#X connect 39 0 4 0;
