#N canvas 244 67 1027 479 12;
#X obj 114 125 phasor~ \$1;
#X obj 127 237 outlet~;
#X obj 113 43 inlet;
#X text 394 45 you can use \$1 \$2 \$3... variables in abstractions
to set the values in the toplevel patch;
#X obj 204 126 phasor~ \$2;
#X obj 299 128 phasor~ \$3;
#X obj 114 165 *~ 1;
#X obj 176 166 *~ 0.7;
#X obj 252 166 *~ 0.5;
#X obj 210 40 inlet;
#X obj 303 49 inlet;
#X connect 0 0 6 0;
#X connect 2 0 0 0;
#X connect 4 0 7 0;
#X connect 5 0 8 0;
#X connect 6 0 1 0;
#X connect 7 0 1 0;
#X connect 8 0 1 0;
#X connect 9 0 4 0;
#X connect 10 0 5 0;
