#N canvas 539 39 863 451 10;
#X msg 53 169 close;
#X obj 45 8 cnv 15 440 60 empty empty empty 20 12 0 14 #c0d828 #404040
0;
#X msg 44 142 devices;
#X floatatom 104 150 5 0 0 0 - - - 0;
#X msg 104 169 open \$1;
#X obj 44 256 s;
#X obj 44 234 serial_print any;
#X text 46 88 Requires [comport] object \; install under Help > Find
Externals, f 72;
#X text 52 16 [serial_print]: abstraction that works with Arduinos'
Serial.print() and Serial.println() functions (with the use of [comport]).
It was written by Alexandros Drymonitis. \; See https://github.com/alexdrymonitis/Arduino_Pd
;
#X floatatom 268 221 5 0 0 0 - - - 0;
#X obj 44 210 comport 1 9600;
#X obj 268 148 r distance:;
#X text 303 220 millimeters;
#X obj 268 268 / 25.4;
#X listbox 268 303 20 0 0 0 - - - 0;
#X text 398 303 inches;
#X text 457 158 This breakout ships with a plastic film protector over
the sensor. It must be removed before use!;
#X connect 0 0 10 0;
#X connect 2 0 10 0;
#X connect 3 0 4 0;
#X connect 4 0 10 0;
#X connect 6 0 5 0;
#X connect 6 1 5 1;
#X connect 9 0 13 0;
#X connect 10 0 6 0;
#X connect 11 0 9 0;
#X connect 13 0 14 0;
