#N canvas 395 255 237 236 10;
#X obj 43 35 inlet;
#X msg 88 104 0;
#X obj 43 127 spigot 1;
#X obj 43 58 b;
#X msg 120 104 1;
#X obj 153 35 inlet;
#X obj 120 81 del \$1;
#X obj 43 150 t b b;
#X obj 43 173 outlet;
#X obj 88 173 s \$0-del;
#X obj 88 35 r \$0-del;
#X obj 88 58 t b b;
#X connect 0 0 3 0;
#X connect 1 0 2 1;
#X connect 2 0 7 0;
#X connect 3 0 2 0;
#X connect 4 0 2 1;
#X connect 5 0 6 1;
#X connect 6 0 4 0;
#X connect 7 0 8 0;
#X connect 7 1 9 0;
#X connect 10 0 11 0;
#X connect 11 0 1 0;
#X connect 11 1 6 0;
