#N canvas 492 23 1019 730 10;
#X msg 52 168 close;
#X obj 37 14 cnv 15 440 60 empty empty empty 20 12 0 14 -200075 -66577
0;
#X msg 44 142 devices;
#X floatatom 104 150 5 0 0 0 - - -;
#X msg 104 169 open \$1;
#X obj 44 277 s;
#X obj 44 234 serial_print any;
#X text 46 88 Requires [comport] object \; install under Help > Find
Externals, f 72;
#X text 44 22 [serial_print]: abstraction that works with Arduinos'
Serial.print() and Serial.println() functions (with the use of [comport]).
It was written by Alexandros Drymonitis. \; See https://github.com/alexdrymonitis/Arduino_Pd
;
#X floatatom 269 270 5 0 0 1 - - -;
#X floatatom 270 358 5 0 0 0 - - -;
#X floatatom 423 274 5 0 0 1 - - -;
#X floatatom 423 357 5 0 0 0 - - -;
#X obj 423 425 line 1;
#X obj 426 459 hsl 128 15 0 1 0 0 empty empty empty -2 -8 0 10 -262144
-1 -1 0 1;
#X floatatom 578 276 5 0 0 1 - - -;
#X floatatom 579 359 5 0 0 0 - - -;
#X obj 579 427 line 1;
#X obj 582 459 hsl 128 15 0 1 0 0 empty empty empty -2 -8 0 10 -262144
-1 -1 0 1;
#X obj 44 212 comport 1 9600;
#X floatatom 63 553 5 0 0 0 - - -;
#X text 117 316 use scale to calibrate;
#X obj 269 148 r analog_values:;
#X obj 63 480 r digital_values:;
#X msg 423 394 \$1 20;
#X msg 579 396 \$1 20;
#X obj 270 422 line 1;
#X obj 273 459 hsl 128 15 0 1 0 0 empty empty empty -2 -8 0 10 -262144
-1 -1 0 1;
#X msg 270 391 \$1 20;
#X obj 269 316 ps.scale 0 1023 0 1;
#X obj 423 315 ps.scale 0 1023 0 1;
#X obj 578 317 ps.scale 0 1023 0 1;
#X floatatom 744 277 5 0 0 1 - - -;
#X floatatom 745 360 5 0 0 0 - - -;
#X obj 745 428 line 1;
#X obj 748 460 hsl 128 15 0 1 0 0 empty empty empty -2 -8 0 10 -262144
-1 -1 0 1;
#X msg 745 397 \$1 20;
#X obj 744 318 ps.scale 0 1023 0 1;
#X obj 269 179 unpack f f f f;
#X obj 63 516 unpack f;
#X connect 0 0 19 0;
#X connect 2 0 19 0;
#X connect 3 0 4 0;
#X connect 4 0 19 0;
#X connect 6 0 5 0;
#X connect 6 1 5 1;
#X connect 9 0 29 0;
#X connect 10 0 28 0;
#X connect 11 0 30 0;
#X connect 12 0 24 0;
#X connect 13 0 14 0;
#X connect 15 0 31 0;
#X connect 16 0 25 0;
#X connect 17 0 18 0;
#X connect 19 0 6 0;
#X connect 22 0 38 0;
#X connect 23 0 39 0;
#X connect 24 0 13 0;
#X connect 25 0 17 0;
#X connect 26 0 27 0;
#X connect 28 0 26 0;
#X connect 29 0 10 0;
#X connect 30 0 12 0;
#X connect 31 0 16 0;
#X connect 32 0 37 0;
#X connect 33 0 36 0;
#X connect 34 0 35 0;
#X connect 36 0 34 0;
#X connect 37 0 33 0;
#X connect 38 0 9 0;
#X connect 38 1 11 0;
#X connect 38 2 15 0;
#X connect 38 3 32 0;
#X connect 39 0 20 0;
