#N canvas 1070 127 1097 489 12;
#X declare -path cyclone;
#X obj 318 38 declare -path cyclone;
#X obj 104 101 mousestate;
#X text 498 40 requires installation of cyclone library;
#X msg 89 62 poll;
#X msg 144 62 nopoll;
#X obj 46 172 tgl 15 0 empty empty empty 17 7 0 10 #fcfcfc #000000
#000000 0 1;
#X floatatom 136 182 5 0 0 0 - - - 0;
#X floatatom 250 183 5 0 0 0 - - - 0;
#X floatatom 450 176 5 0 0 0 - - - 0;
#X floatatom 687 180 5 0 0 0 - - - 0;
#X text 130 210 x position;
#X text 250 212 y position;
#X text 39 199 click;
#X text 433 127 delta x (position difference);
#X text 682 130 delta y (position difference);
#X obj 450 207 change;
#X obj 450 236 abs;
#X floatatom 450 266 5 0 0 0 - - - 0;
#X obj 451 296 > 100;
#X obj 451 328 tgl 40 0 empty empty empty 17 7 0 10 #fcfcfc #000000
#000000 0 1;
#X connect 1 0 5 0;
#X connect 1 1 6 0;
#X connect 1 2 7 0;
#X connect 1 3 8 0;
#X connect 1 4 9 0;
#X connect 3 0 1 0;
#X connect 4 0 1 0;
#X connect 8 0 15 0;
#X connect 15 0 16 0;
#X connect 16 0 17 0;
#X connect 17 0 18 0;
#X connect 18 0 19 0;
