#N canvas 367 88 905 768 12;
#X obj 37 41 metro 20;
#X obj 38 10 tgl 15 0 empty empty empty 17 7 0 10 #fcfcfc #000000 #000000
0 1;
#X floatatom 353 250 10 0 0 0 - - - 0;
#X obj 352 296 > 10;
#X obj 350 376 tgl 15 0 empty empty empty 17 7 0 10 #fcfcfc #000000
#000000 0 1;
#X obj 349 401 change;
#X obj 620 326 metro 100;
#X obj 617 295 tgl 15 0 empty empty empty 17 7 0 10 #fcfcfc #000000
#000000 0 1;
#X obj 340 337 f;
#X text 654 296 polling rate;
#X obj 347 506 +;
#X obj 395 505 f;
#X floatatom 373 551 5 0 0 0 - - - 0;
#X obj 378 578 mod 6;
#X floatatom 357 614 5 0 0 0 - - - 0;
#X msg 395 474 0;
#X obj 362 689 select 0 1 2 3 4 5;
#X obj 342 739 bng 15 250 50 0 empty empty empty 17 7 0 10 #fcfcfc
#000000 #000000;
#X obj 379 742 bng 15 250 50 0 empty empty empty 17 7 0 10 #fcfcfc
#000000 #000000;
#X obj 426 744 bng 15 250 50 0 empty empty empty 17 7 0 10 #fcfcfc
#000000 #000000;
#X obj 463 747 bng 15 250 50 0 empty empty empty 17 7 0 10 #fcfcfc
#000000 #000000;
#X obj 513 751 bng 15 250 50 0 empty empty empty 17 7 0 10 #fcfcfc
#000000 #000000;
#X obj 550 754 bng 15 250 50 0 empty empty empty 17 7 0 10 #fcfcfc
#000000 #000000;
#X floatatom 453 281 5 0 0 0 - - - 0;
#X text 489 275 threshold;
#X obj 79 99 hsl 128 15 0 1 0 0 empty empty empty -2 -8 0 10 #fcfcfc
#000000 #000000 0 1;
#X obj 72 136 * 20;
#X obj 342 443 select 1;
#X msg 341 475 1;
#X text 73 13 sensor simulation because it continuously sends data
value;
#X connect 0 0 25 0;
#X connect 1 0 0 0;
#X connect 2 0 3 0;
#X connect 3 0 8 1;
#X connect 4 0 5 0;
#X connect 5 0 27 0;
#X connect 6 0 8 0;
#X connect 7 0 6 0;
#X connect 8 0 4 0;
#X connect 10 0 11 0;
#X connect 10 0 12 0;
#X connect 11 0 10 1;
#X connect 12 0 13 0;
#X connect 13 0 14 0;
#X connect 14 0 16 0;
#X connect 15 0 11 0;
#X connect 16 0 17 0;
#X connect 16 1 18 0;
#X connect 16 2 19 0;
#X connect 16 3 20 0;
#X connect 16 4 21 0;
#X connect 16 5 22 0;
#X connect 23 0 3 1;
#X connect 25 0 26 0;
#X connect 26 0 2 0;
#X connect 27 0 28 0;
#X connect 28 0 10 0;
