#N canvas 105 85 918 628 12;
#X obj 307 26 r proximity:;
#X text 434 124 0 - 500+ values \; control when value is less than
100;
#X floatatom 302 150 5 0 0 0 - - - 0;
#X floatatom 301 213 5 0 0 0 - - - 0;
#X floatatom 510 218 5 0 0 0 - - - 0;
#X obj 301 180 moses 101;
#X obj 512 250 >= 101;
#X obj 513 306 tgl 15 0 empty empty empty 17 7 0 10 #fcfcfc #000000
#000000 0 1;
#X obj 513 279 change;
#X obj 300 243 * 0.01;
#X floatatom 300 277 5 0 0 0 - - - 0;
#X obj 304 343 hsl 128 15 0 1 0 0 empty empty empty -2 -8 0 10 #fcfcfc
#000000 #000000 0 1;
#N canvas 121 159 450 300 rev_sub 0;
#X obj 92 21 inlet;
#X obj 124 240 outlet;
#X floatatom 92 57 5 0 0 0 - - - 0;
#X obj 124 204 - 1;
#X obj 92 106 trigger b f;
#X obj 82 158 f 1;
#X connect 0 0 2 0;
#X connect 2 0 4 0;
#X connect 3 0 1 0;
#X connect 4 0 5 0;
#X connect 4 1 3 1;
#X connect 5 0 3 0;
#X restore 301 308 pd rev_sub;
#X obj 305 414 + 0.1;
#X floatatom 300 483 5 0 0 0 - - - 0;
#X obj 306 389 * 0.9;
#X text 386 432 scale and offset to set minimum value;
#X obj 514 333 select 1;
#X msg 511 367 0.1;
#X obj 303 450 f;
#X obj 305 113 clip 0 500;
#X floatatom 309 72 5 0 0 0 - - - 0;
#X connect 0 0 21 0;
#X connect 2 0 5 0;
#X connect 2 0 4 0;
#X connect 3 0 9 0;
#X connect 4 0 6 0;
#X connect 5 0 3 0;
#X connect 6 0 8 0;
#X connect 7 0 17 0;
#X connect 8 0 7 0;
#X connect 9 0 10 0;
#X connect 10 0 12 0;
#X connect 11 0 15 0;
#X connect 12 0 11 0;
#X connect 13 0 19 0;
#X connect 15 0 13 0;
#X connect 17 0 18 0;
#X connect 18 0 19 0;
#X connect 19 0 14 0;
#X connect 20 0 2 0;
#X connect 21 0 20 0;
