#N canvas 357 88 885 663 12;
#N canvas 0 22 450 278 (subpatch) 0;
#X array sound1 441000 float 2;
#X coords 0 1 441000 -1 200 140 1;
#X restore 40 238 graph;
#X obj 407 227 tabwrite~ sound1;
#X obj 417 173 adc~;
#X obj 587 50 bng 15 250 50 0 empty empty empty 17 7 0 10 #fcfcfc #000000
#000000;
#X obj 348 367 phasor~;
#X obj 348 345 * 1, f 8;
#X floatatom 347 318 5 0 0 0 - - - 0;
#X floatatom 413 319 5 0 0 0 - - - 0;
#X obj 398 493 *~;
#X obj 529 415 line~;
#X obj 392 550 dac~;
#X obj 395 526 *~ 0.5;
#X obj 348 425 tabread4~ sound1;
#X msg 524 380 \$1 100;
#X msg 520 355 0;
#X msg 557 352 1;
#X msg 459 352 0;
#X obj 314 196 loadbang;
#X obj 608 180 bng 15 250 50 0 empty empty empty 17 7 0 10 #fcfcfc
#000000 #000000;
#X obj 604 127 delay 10 1 sec;
#X msg 676 301 44100;
#X obj 681 332 * 10;
#X floatatom 679 379 15 0 0 0 - - - 0;
#X obj 348 395 *~ 441000;
#X msg 347 294 0.1;
#X text 110 58 10 second auto loop;
#X obj 519 131 t b b b;
#X msg 558 226 \; sound1 const 0;
#X connect 2 0 1 0;
#X connect 3 0 19 0;
#X connect 3 0 26 0;
#X connect 4 0 23 0;
#X connect 5 0 4 0;
#X connect 6 0 5 0;
#X connect 7 0 5 1;
#X connect 8 0 11 0;
#X connect 9 0 8 1;
#X connect 11 0 10 0;
#X connect 11 0 10 1;
#X connect 12 0 8 0;
#X connect 13 0 9 0;
#X connect 14 0 13 0;
#X connect 15 0 13 0;
#X connect 16 0 4 1;
#X connect 17 0 24 0;
#X connect 18 0 15 0;
#X connect 19 0 18 0;
#X connect 20 0 21 0;
#X connect 21 0 22 0;
#X connect 23 0 12 0;
#X connect 24 0 6 0;
#X connect 26 0 1 0;
#X connect 26 1 14 0;
#X connect 26 2 27 0;
