#N canvas 155 23 953 739 12;
#X obj 39 54 comport 4 9600;
#X obj 39 85 serial_print;
#X obj 39 119 s;
#X obj 224 13 r touch_values:;
#X obj 224 49 unpack f f f;
#X floatatom 226 94 5 0 0 0 - - -;
#X floatatom 278 73 5 0 0 0 - - -;
#X floatatom 326 72 5 0 0 0 - - -;
#X msg 33 -1 devices;
#X msg 98 2 close;
#X msg 149 2 open 4;
#X obj 195 170 ps.scale 664 8700 0 1;
#X floatatom 195 194 5 0 0 0 - - -;
#X floatatom 230 145 5 0 0 0 - - -;
#X floatatom 280 122 5 0 0 0 - - -;
#X obj 198 226 > 0.5;
#X obj 204 258 tgl 15 0 empty empty empty 17 7 0 10 -262144 -1 -1 0
1;
#X obj 200 309 select 1;
#X obj 199 345 bng 15 250 50 0 empty empty empty 17 7 0 10 -262144
-1 -1;
#X obj 140 312 print;
#X obj 200 282 change;
#X obj 292 256 hsl 128 15 0 1 0 0 empty empty empty -2 -8 0 10 -262144
-1 -1 488 1;
#X obj 288 228 line;
#X msg 282 201 \$1 100;
#X connect 0 0 1 0;
#X connect 1 0 2 0;
#X connect 1 1 2 1;
#X connect 3 0 4 0;
#X connect 4 0 5 0;
#X connect 4 1 6 0;
#X connect 4 2 7 0;
#X connect 5 0 11 0;
#X connect 8 0 0 0;
#X connect 9 0 0 0;
#X connect 10 0 0 0;
#X connect 11 0 12 0;
#X connect 12 0 15 0;
#X connect 12 0 23 0;
#X connect 13 0 11 1;
#X connect 14 0 11 2;
#X connect 15 0 16 0;
#X connect 16 0 20 0;
#X connect 17 0 18 0;
#X connect 20 0 17 0;
#X connect 20 0 19 0;
#X connect 22 0 21 0;
#X connect 23 0 22 0;
