#N canvas 320 23 1028 672 10;
#X obj 233 593 dac~;
#X msg 46 252 \; pd dsp \$1;
#X obj 46 199 tgl 30 0 empty empty empty 17 7 0 10 -262144 -1 -1 0
1;
#X text 83 200 <- turn on sound;
#X obj 233 504 *~;
#X obj 233 265 line~;
#X floatatom 284 199 5 0 0 1 glide - -;
#X obj 233 305 phasor~ 440;
#X obj 233 352 *~ 2;
#X obj 233 395 -~ 1;
#X obj 409 347 tgl 15 0 empty empty note_on/off 17 7 0 10 -262144 -1
-1 1 1;
#X floatatom 434 373 5 0 0 1 attack_ms - -;
#X floatatom 460 400 5 0 0 1 decay_ms - -;
#X floatatom 486 426 5 0 0 1 sustain_% - -;
#X floatatom 514 455 5 0 0 1 release_ms - -;
#X obj 409 481 adsr~ 10 10 80 50, f 18;
#X obj 233 545 *~ 0.5;
#X text 530 477 this is an abstraction: an abstraction is another Pd
patch made to be loaded into a 'parent' patch \; it is in the same
folder as this patch;
#X obj 457 175 metro 500;
#X obj 457 84 tgl 15 0 empty empty empty 17 7 0 10 -262144 -1 -1 1
1;
#X obj 508 91 expr 1000/($f1/60);
#X floatatom 508 58 5 0 0 0 - - -;
#X floatatom 508 142 5 0 0 0 - - -;
#X msg 573 18 134;
#X msg 508 18 60;
#X msg 542 18 110;
#X msg 605 18 200;
#X msg 639 18 300;
#X obj 409 177 sel 0;
#X msg 409 197 0;
#X obj 233 140 mtof;
#X floatatom 233 169 5 0 0 0 - - -;
#X obj 236 104 hsl 128 15 0 127 0 0 empty empty empty -2 -8 0 10 -262144
-1 -1 6800 1;
#X obj 572 205 + 1;
#X floatatom 538 288 5 0 0 0 - - -;
#X text 602 205 counter using addition;
#X text 586 171 reset;
#X msg 538 353 60;
#X msg 569 353 64;
#X msg 601 353 68;
#X msg 633 353 69;
#X msg 665 353 64;
#X msg 697 353 60;
#X msg 729 353 60;
#X msg 761 353 62;
#X obj 648 436 s note;
#X obj 233 48 r note;
#X obj 233 223 pack f 50;
#X msg 671 18 400;
#X obj 508 118 * 0.25;
#X text 628 92 basic BPM to MS conversion;
#X text 557 117 speed it up a bit;
#X floatatom 233 79 5 0 0 0 - - -;
#X text 265 139 midi note value to frequency;
#X obj 538 258 mod 8;
#X floatatom 538 229 5 0 0 0 - - -;
#X obj 538 205 f 0;
#X msg 553 172 0;
#X obj 538 327 select 0 1 2 3 4 5 6 7, f 43;
#X text 583 259 mod forces the count to be looped 0 thru 7;
#X connect 2 0 1 0;
#X connect 4 0 16 0;
#X connect 5 0 7 0;
#X connect 6 0 47 1;
#X connect 7 0 8 0;
#X connect 8 0 9 0;
#X connect 9 0 4 0;
#X connect 10 0 15 0;
#X connect 11 0 15 1;
#X connect 12 0 15 2;
#X connect 13 0 15 3;
#X connect 14 0 15 4;
#X connect 15 0 4 1;
#X connect 16 0 0 0;
#X connect 16 0 0 1;
#X connect 18 0 10 0;
#X connect 18 0 56 0;
#X connect 19 0 18 0;
#X connect 19 0 28 0;
#X connect 20 0 49 0;
#X connect 21 0 20 0;
#X connect 22 0 18 1;
#X connect 23 0 21 0;
#X connect 24 0 21 0;
#X connect 25 0 21 0;
#X connect 26 0 21 0;
#X connect 27 0 21 0;
#X connect 28 0 29 0;
#X connect 29 0 10 0;
#X connect 30 0 31 0;
#X connect 31 0 47 0;
#X connect 32 0 30 0;
#X connect 33 0 56 1;
#X connect 34 0 58 0;
#X connect 37 0 45 0;
#X connect 38 0 45 0;
#X connect 39 0 45 0;
#X connect 40 0 45 0;
#X connect 41 0 45 0;
#X connect 42 0 45 0;
#X connect 43 0 45 0;
#X connect 44 0 45 0;
#X connect 46 0 52 0;
#X connect 47 0 5 0;
#X connect 48 0 21 0;
#X connect 49 0 22 0;
#X connect 52 0 32 0;
#X connect 54 0 34 0;
#X connect 55 0 54 0;
#X connect 56 0 33 0;
#X connect 56 0 55 0;
#X connect 57 0 56 1;
#X connect 58 0 37 0;
#X connect 58 1 38 0;
#X connect 58 2 39 0;
#X connect 58 3 40 0;
#X connect 58 4 41 0;
#X connect 58 5 42 0;
#X connect 58 6 43 0;
#X connect 58 7 44 0;
