#N canvas 521 33 1265 801 12;
#X obj 243 135 qlist;
#X obj 643 18 r ------------------------;
#X msg 396 127 next;
#X floatatom 643 52 5 0 0 0 - - -;
#X obj 192 187 bng 15 250 50 0 empty empty empty 17 7 0 10 -262144
-1 -1;
#X msg 396 61 tempo 1;
#X msg 396 39 tempo 0.5;
#X msg 396 83 tempo 2;
#X text 841 18 using this receive to indicate sections in qlist;
#X obj 259 484 mtof;
#X obj 259 541 line~;
#X obj 259 673 *~;
#X obj 259 758 dac~;
#X obj 259 705 *~ 0.2;
#X obj 519 513 ps.adsr~ e1;
#X floatatom 259 433 5 0 0 0 - - -;
#X msg 651 253 \; e1 /attack 10 \; e1 /decay 20 \; e1 /sustain 50 \;
e1 /release 400 \;;
#X obj 259 571 ps.tri~;
#X obj 651 226 loadbang;
#X floatatom 259 375 5 0 0 0 - - -;
#X floatatom 380 375 5 0 0 0 - - -;
#X obj 519 485 change;
#X obj 259 343 r pitch;
#X obj 259 513 pack f 10;
#X msg 395 15 read close-encounters.txt;
#X obj 519 433 > 1;
#X obj 519 460 tgl 15 0 empty empty empty 17 7 0 10 -262144 -1 -1 1
1;
#X obj 426 513 line~;
#X obj 426 485 pack f 10;
#X obj 426 460 / 127;
#X obj 259 632 *~;
#X obj 380 406 moses 1;
#X floatatom 426 433 5 0 0 0 - - -;
#X obj 192 209 spigot;
#X obj 231 186 tgl 15 0 empty empty empty 17 7 0 10 -262144 -1 -1 0
1;
#X msg 192 235 rewind \, bang;
#X msg 243 36 rewind \, bang;
#X msg 396 105 tempo 3;
#X text 251 184 turn on to loop;
#X obj 380 343 r vel;
#X text 429 342 velocity;
#X text 553 431 use to trigger on/off for ADSR;
#X text 444 406 adjust amplitude based on velocity (filter out 0);
#X connect 0 1 4 0;
#X connect 1 0 3 0;
#X connect 2 0 0 0;
#X connect 4 0 33 0;
#X connect 5 0 0 0;
#X connect 6 0 0 0;
#X connect 7 0 0 0;
#X connect 9 0 23 0;
#X connect 10 0 17 0;
#X connect 11 0 13 0;
#X connect 13 0 12 0;
#X connect 13 0 12 1;
#X connect 14 0 11 1;
#X connect 15 0 9 0;
#X connect 17 0 30 0;
#X connect 18 0 16 0;
#X connect 19 0 15 0;
#X connect 20 0 31 0;
#X connect 20 0 25 0;
#X connect 21 0 14 0;
#X connect 22 0 19 0;
#X connect 23 0 10 0;
#X connect 24 0 0 0;
#X connect 25 0 26 0;
#X connect 26 0 21 0;
#X connect 27 0 30 1;
#X connect 28 0 27 0;
#X connect 29 0 28 0;
#X connect 30 0 11 0;
#X connect 31 1 32 0;
#X connect 32 0 29 0;
#X connect 33 0 35 0;
#X connect 34 0 33 1;
#X connect 35 0 0 0;
#X connect 36 0 0 0;
#X connect 37 0 0 0;
#X connect 39 0 20 0;
