#N canvas 55 31 1225 632 12;
#X obj 76 25 ctlin 1;
#X obj 79 90 hsl 128 15 0 127 0 0 empty empty empty -2 -8 0 10 -262144
-1 -1 4300 1;
#X floatatom 76 58 5 0 0 0 - - -;
#X floatatom 75 237 5 0 0 0 - - -;
#X obj 73 401 phasor~;
#X obj 696 65 ctlin 51;
#X floatatom 696 98 5 0 0 0 - - -;
#X obj 696 134 / 127;
#X floatatom 696 191 5 0 0 0 - - -;
#X obj 73 483 *~;
#X obj 696 219 select 1;
#X obj 757 258 + 1;
#X floatatom 696 288 5 0 0 0 - - -;
#X obj 696 313 mod 4;
#X msg 765 220 0;
#X obj 696 259 f 0;
#X floatatom 696 341 5 0 0 0 - - -;
#X obj 696 370 select 0 1 2 3;
#X obj 73 277 f;
#X obj 73 368 line~;
#X obj 173 452 line~;
#X obj 219 90 hsl 128 15 0 127 0 0 empty empty empty -2 -8 0 10 -262144
-1 -1 6000 1;
#X floatatom 216 58 5 0 0 0 - - -;
#X floatatom 215 237 5 0 0 0 - - -;
#X obj 213 277 f;
#X obj 359 90 hsl 128 15 0 127 0 0 empty empty empty -2 -8 0 10 -262144
-1 -1 5300 1;
#X floatatom 356 58 5 0 0 0 - - -;
#X floatatom 355 237 5 0 0 0 - - -;
#X obj 353 277 f;
#X obj 499 90 hsl 128 15 0 127 0 0 empty empty empty -2 -8 0 10 -262144
-1 -1 6300 1;
#X floatatom 496 58 5 0 0 0 - - -;
#X floatatom 495 237 5 0 0 0 - - -;
#X obj 493 277 f;
#X obj 216 25 ctlin 2;
#X obj 356 25 ctlin 3;
#X obj 496 25 ctlin 4;
#X obj 73 522 *~ 0.3;
#X obj 73 573 dac~;
#X obj 173 418 pack f 200;
#X obj 73 334 pack f 100;
#X obj 696 165 tgl 15 0 empty empty empty 17 7 0 10 -262144 -1 -1 0
1;
#X obj 76 167 ps.scales;
#X msg 851 231 0 1 2 3 4 5 6 7 8 9 10 11;
#X msg 848 255 0 0 2 2 4 4 6 6 8 8 10 10;
#X msg 845 300 0 0 2 2 2 4 4 4 7 7 9 9;
#X msg 845 279 0 0 3 3 5 5 6 6 7 7 10 10;
#X msg 843 321 0 2 2 4 4 5 5 7 7 9 9 11;
#X msg 844 343 0 2 2 3 3 5 5 7 7 8 8 10;
#X obj 825 485 list prepend /scale;
#X obj 825 508 route list;
#X obj 215 168 ps.scales;
#X obj 354 168 ps.scales;
#X obj 493 169 ps.scales;
#X text 1044 225 chromatic;
#X text 1045 253 whole-tone;
#X text 1033 301 major pentatonic;
#X text 1043 278 blues;
#X text 1036 321 major;
#X text 1037 342 minor;
#X obj 76 132 + 32;
#X obj 219 133 + 32;
#X obj 353 129 + 32;
#X obj 490 132 + 32;
#X connect 0 0 2 0;
#X connect 1 0 59 0;
#X connect 2 0 1 0;
#X connect 3 0 18 1;
#X connect 4 0 9 0;
#X connect 5 0 6 0;
#X connect 6 0 7 0;
#X connect 7 0 40 0;
#X connect 8 0 10 0;
#X connect 8 0 38 0;
#X connect 9 0 36 0;
#X connect 10 0 15 0;
#X connect 11 0 15 1;
#X connect 12 0 13 0;
#X connect 13 0 16 0;
#X connect 14 0 15 1;
#X connect 15 0 11 0;
#X connect 15 0 12 0;
#X connect 16 0 17 0;
#X connect 17 0 18 0;
#X connect 17 1 24 0;
#X connect 17 2 28 0;
#X connect 17 3 32 0;
#X connect 18 0 39 0;
#X connect 19 0 4 0;
#X connect 20 0 9 1;
#X connect 21 0 60 0;
#X connect 22 0 21 0;
#X connect 23 0 24 1;
#X connect 24 0 39 0;
#X connect 25 0 61 0;
#X connect 26 0 25 0;
#X connect 27 0 28 1;
#X connect 28 0 39 0;
#X connect 29 0 62 0;
#X connect 30 0 29 0;
#X connect 31 0 32 1;
#X connect 32 0 39 0;
#X connect 33 0 22 0;
#X connect 34 0 26 0;
#X connect 35 0 30 0;
#X connect 36 0 37 0;
#X connect 36 0 37 1;
#X connect 38 0 20 0;
#X connect 39 0 19 0;
#X connect 40 0 8 0;
#X connect 41 0 3 0;
#X connect 42 0 48 0;
#X connect 43 0 48 0;
#X connect 44 0 48 0;
#X connect 45 0 48 0;
#X connect 46 0 48 0;
#X connect 47 0 48 0;
#X connect 48 0 49 0;
#X connect 49 0 41 1;
#X connect 49 0 50 1;
#X connect 49 0 51 1;
#X connect 49 0 52 1;
#X connect 50 0 23 0;
#X connect 51 0 27 0;
#X connect 52 0 31 0;
#X connect 59 0 41 0;
#X connect 60 0 50 0;
#X connect 61 0 51 0;
#X connect 62 0 52 0;
