#N canvas 633 46 1066 584 12;
#X obj 75 74 ctlin 1;
#X obj 75 168 mtof;
#X obj 78 139 hsl 128 15 0 127 0 0 empty empty empty -2 -8 0 10 -262144
-1 -1 5000 1;
#X floatatom 75 107 5 0 0 0 - - -;
#X floatatom 75 201 5 0 0 0 - - -;
#X obj 73 365 phasor~;
#X obj 696 65 ctlin 51;
#X floatatom 696 98 5 0 0 0 - - -;
#X obj 696 134 / 127;
#X floatatom 696 191 5 0 0 0 - - -;
#X obj 73 447 *~;
#X obj 696 219 select 1;
#X obj 757 258 + 1;
#X floatatom 696 288 5 0 0 0 - - -;
#X obj 696 313 mod 4;
#X msg 765 220 0;
#X obj 696 259 f 0;
#X floatatom 696 341 5 0 0 0 - - -;
#X obj 696 370 select 0 1 2 3;
#X obj 73 241 f;
#X obj 73 332 line~;
#X obj 173 416 line~;
#X obj 215 168 mtof;
#X obj 218 139 hsl 128 15 0 127 0 0 empty empty empty -2 -8 0 10 -262144
-1 -1 4500 1;
#X floatatom 215 107 5 0 0 0 - - -;
#X floatatom 215 201 5 0 0 0 - - -;
#X obj 213 241 f;
#X obj 355 168 mtof;
#X obj 358 139 hsl 128 15 0 127 0 0 empty empty empty -2 -8 0 10 -262144
-1 -1 4100 1;
#X floatatom 355 107 5 0 0 0 - - -;
#X floatatom 355 201 5 0 0 0 - - -;
#X obj 353 241 f;
#X obj 495 168 mtof;
#X obj 498 139 hsl 128 15 0 127 0 0 empty empty empty -2 -8 0 10 -262144
-1 -1 2600 1;
#X floatatom 495 107 5 0 0 0 - - -;
#X floatatom 495 201 5 0 0 0 - - -;
#X obj 493 241 f;
#X obj 215 74 ctlin 2;
#X obj 355 74 ctlin 3;
#X obj 495 74 ctlin 4;
#X obj 73 486 *~ 0.3;
#X obj 73 537 dac~;
#X obj 173 382 pack f 200;
#X obj 73 298 pack f 100;
#X obj 696 165 tgl 15 0 empty empty empty 17 7 0 10 -262144 -1 -1 0
1;
#X connect 0 0 3 0;
#X connect 1 0 4 0;
#X connect 2 0 1 0;
#X connect 3 0 2 0;
#X connect 4 0 19 1;
#X connect 5 0 10 0;
#X connect 6 0 7 0;
#X connect 7 0 8 0;
#X connect 8 0 44 0;
#X connect 9 0 11 0;
#X connect 9 0 42 0;
#X connect 10 0 40 0;
#X connect 11 0 16 0;
#X connect 12 0 16 1;
#X connect 13 0 14 0;
#X connect 14 0 17 0;
#X connect 15 0 16 1;
#X connect 16 0 12 0;
#X connect 16 0 13 0;
#X connect 17 0 18 0;
#X connect 18 0 19 0;
#X connect 18 1 26 0;
#X connect 18 2 31 0;
#X connect 18 3 36 0;
#X connect 19 0 43 0;
#X connect 20 0 5 0;
#X connect 21 0 10 1;
#X connect 22 0 25 0;
#X connect 23 0 22 0;
#X connect 24 0 23 0;
#X connect 25 0 26 1;
#X connect 26 0 43 0;
#X connect 27 0 30 0;
#X connect 28 0 27 0;
#X connect 29 0 28 0;
#X connect 30 0 31 1;
#X connect 31 0 43 0;
#X connect 32 0 35 0;
#X connect 33 0 32 0;
#X connect 34 0 33 0;
#X connect 35 0 36 1;
#X connect 36 0 43 0;
#X connect 37 0 24 0;
#X connect 38 0 29 0;
#X connect 39 0 34 0;
#X connect 40 0 41 0;
#X connect 40 0 41 1;
#X connect 42 0 21 0;
#X connect 43 0 20 0;
#X connect 44 0 9 0;
