#N canvas 440 64 1033 735 10;
#X msg 53 169 close;
#X obj 45 8 cnv 15 440 60 empty empty empty 20 12 0 14 -200075 -66577
0;
#X msg 44 142 devices;
#X obj 44 256 s;
#X obj 44 234 serial_print any;
#X text 46 88 Requires [comport] object \; install under Help > Find
Externals, f 72;
#X text 52 16 [serial_print]: abstraction that works with Arduinos'
Serial.print() and Serial.println() functions (with the use of [comport]).
It was written by Alexandros Drymonitis. \; See https://github.com/alexdrymonitis/Arduino_Pd
;
#X floatatom 319 259 5 0 0 0 - - -;
#X symbolatom 137 255 20 0 0 0 - - -;
#X obj 44 212 comport 1 9600;
#X msg 104 169 open 1;
#X obj 319 186 r Pulse:;
#X obj 321 311 > 550;
#X obj 307 369 tgl 15 0 empty empty empty 17 7 0 10 -262144 -1 -1 0
1;
#X text 413 273 set threshold to detect pulse;
#X floatatom 381 273 5 0 0 0 - - -;
#N canvas 0 23 1040 834 superTT 0;
#X obj 307 139 t b b;
#X obj 307 183 timer;
#N canvas 0 0 450 300 (subpatch) 0;
#X array \$0-tt 6 float 2;
#X coords 0 1000 6 -1 40 50 1;
#X restore 501 202 graph;
#X obj 530 320 f;
#X msg 572 289 0;
#X obj 557 378 + 1;
#X obj 530 350 t f f;
#X obj 449 376 tabwrite \$0-tt;
#X obj 572 257 loadbang;
#X obj 308 364 until;
#X msg 355 397 0;
#X obj 308 430 f;
#X obj 308 512 tabread \$0-tt;
#X obj 308 541 + 0;
#X obj 308 462 t f f;
#X obj 335 489 + 1;
#X obj 308 567 t f f;
#X obj 220 472 f;
#X obj 308 300 t b b b;
#X msg 388 396 0;
#X obj 307 223 t b b f b;
#X obj 220 612 expr 60000 / $f1;
#X obj 307 92 inlet bang;
#X obj 96 673 outlet ms;
#X obj 220 671 outlet bpm;
#X obj 557 406 sel 6;
#X msg 308 339 6;
#X obj 220 498 / 6;
#X obj 426 100 pdcontrol;
#X msg 425 71 browse https://forum.pdpatchrepo.info/topic/1494/tap-tempo/2
;
#X text 425 45 example by domien;
#X connect 0 0 1 0;
#X connect 0 1 1 1;
#X connect 1 0 20 0;
#X connect 3 0 6 0;
#X connect 4 0 3 1;
#X connect 5 0 25 0;
#X connect 6 0 7 1;
#X connect 6 1 5 0;
#X connect 8 0 4 0;
#X connect 9 0 11 0;
#X connect 10 0 11 1;
#X connect 11 0 14 0;
#X connect 12 0 13 0;
#X connect 13 0 16 0;
#X connect 14 0 12 0;
#X connect 14 1 15 0;
#X connect 15 0 11 1;
#X connect 16 0 17 1;
#X connect 16 1 13 1;
#X connect 17 0 27 0;
#X connect 18 0 26 0;
#X connect 18 1 10 0;
#X connect 18 2 19 0;
#X connect 19 0 13 1;
#X connect 20 0 17 0;
#X connect 20 1 18 0;
#X connect 20 2 7 0;
#X connect 20 3 3 0;
#X connect 21 0 24 0;
#X connect 22 0 0 0;
#X connect 25 0 4 0;
#X connect 25 1 3 1;
#X connect 26 0 9 0;
#X connect 27 0 21 0;
#X connect 27 0 23 0;
#X connect 29 0 28 0;
#X restore 311 450 pd superTT;
#X floatatom 311 487 8 0 0 3 ms - -;
#X floatatom 368 487 10 0 0 3 bpm - -;
#X obj 327 601 metro 100;
#X obj 326 573 tgl 15 0 empty empty empty 17 7 0 10 -262144 -1 -1 0
1;
#X obj 327 636 bng 15 250 50 0 empty empty empty 17 7 0 10 -262144
-1 -1;
#X text 394 451 averages over 6 taps;
#X obj 312 403 select 1;
#X obj 316 342 change;
#N canvas 0 22 450 278 (subpatch) 0;
#X array pulsegraph 100 float 1;
#A 0 266 399 415 364 707 954 954 953 953 428 215 379 417 317 260 381
475 462 476 819 954 953 954 461 1 1 297 423 363 281 242 258 386 949
954 954 954 189 55 375 576 525 368 250 209 331 953 954 954 518 470
348 252 211 283 364 387 484 954 954 954 954 433 111 307 479 426 288
215 254 330 371 428 887 954 953 954 846 220 223 433 459 341 242 235
313 373 385 639 955 954 953 952 474 205 374 466 388 258 210;
#X coords 0 1024 99 0 200 140 1 0 0;
#X restore 653 451 graph;
#X obj 642 388 tabwrite pulsegraph;
#X obj 721 272 metro 50;
#X obj 721 243 tgl 15 0 empty empty empty 17 7 0 10 -262144 -1 -1 0
1;
#X obj 767 306 + 1;
#X obj 724 306 f 0;
#X obj 725 337 mod 100;
#X text 745 239 graph pulse;
#X connect 0 0 9 0;
#X connect 2 0 9 0;
#X connect 4 0 3 0;
#X connect 4 1 3 1;
#X connect 4 1 8 0;
#X connect 7 0 12 0;
#X connect 7 0 26 0;
#X connect 9 0 4 0;
#X connect 10 0 9 0;
#X connect 11 0 7 0;
#X connect 12 0 24 0;
#X connect 13 0 23 0;
#X connect 15 0 12 1;
#X connect 16 0 17 0;
#X connect 16 1 18 0;
#X connect 17 0 19 1;
#X connect 19 0 21 0;
#X connect 20 0 19 0;
#X connect 23 0 16 0;
#X connect 24 0 13 0;
#X connect 27 0 30 0;
#X connect 28 0 27 0;
#X connect 29 0 30 1;
#X connect 30 0 29 0;
#X connect 30 0 31 0;
#X connect 31 0 26 1;
