#N canvas 456 260 1168 764 10;
#X floatatom 111 187 5 0 0 0 - - -;
#X floatatom 166 187 5 0 0 0 - - -;
#X floatatom 221 187 5 0 0 0 - - -;
#X floatatom 56 187 5 0 0 0 - - -;
#X floatatom 436 141 5 0 0 0 - - -;
#X floatatom 498 141 5 0 0 0 - - -;
#X floatatom 560 141 5 0 0 0 - - -;
#X floatatom 622 141 5 0 0 0 - - -;
#X obj 56 98 ctlin 1;
#X obj 111 98 ctlin 2;
#X obj 166 98 ctlin 3;
#X obj 221 98 ctlin 4;
#X obj 436 52 ctlin 51;
#X obj 498 52 ctlin 52;
#X obj 560 52 ctlin 53;
#X obj 622 52 ctlin 54;
#X msg 508 334 /rate \$1;
#X floatatom 508 310 5 0 0 0 - - -;
#X msg 475 268 /poll \$1;
#X obj 475 238 tgl 15 0 empty empty empty 17 7 0 10 -262144 -1 -1 1
1;
#X floatatom 485 397 5 0 0 0 - - -;
#X msg 485 422 /size \$1;
#X floatatom 345 440 5 0 0 0 - - -;
#X obj 345 534 int;
#X floatatom 345 598 5 0 0 0 - - -;
#X obj 345 569 change;
#X text 444 501 additional steps:;
#X obj 54 444 line;
#X obj 57 583 hsl 128 15 0 127 0 0 empty empty empty -2 -8 0 10 -262144
-1 -1 5100 1;
#X text 114 439 <- use line to smooth out values;
#X text 412 569 <- filter out redundant numbers;
#X text 384 536 <- convert float to integer;
#X text 504 234 <- turn on polling;
#X text 561 307 <- set polling rate;
#X text 538 393 <- size of window for averaging;
#X text 811 298 example problem: analog sensor readings that don't
stabilize (jumpy potentiometer);
#X obj 743 215 loadbang;
#X obj 743 240 t b b;
#X msg 743 266 100;
#X msg 778 266 10;
#X msg 54 408 \$1 200;
#X floatatom 54 475 5 0 0 0 - - -;
#X obj 54 502 int;
#X floatatom 54 557 5 0 0 0 - - -;
#X obj 54 528 change;
#X text 104 525 <- filter out redundant numbers;
#X text 93 501 <- convert float to integer;
#X obj 345 408 ps.mean mi1;
#X connect 3 0 40 0;
#X connect 3 0 47 0;
#X connect 8 0 3 0;
#X connect 9 0 0 0;
#X connect 10 0 1 0;
#X connect 11 0 2 0;
#X connect 12 0 4 0;
#X connect 13 0 5 0;
#X connect 14 0 6 0;
#X connect 15 0 7 0;
#X connect 16 0 47 1;
#X connect 17 0 16 0;
#X connect 18 0 47 1;
#X connect 19 0 18 0;
#X connect 20 0 21 0;
#X connect 21 0 47 1;
#X connect 22 0 23 0;
#X connect 23 0 25 0;
#X connect 25 0 24 0;
#X connect 27 0 41 0;
#X connect 36 0 37 0;
#X connect 37 0 38 0;
#X connect 37 1 39 0;
#X connect 38 0 17 0;
#X connect 39 0 20 0;
#X connect 40 0 27 0;
#X connect 41 0 42 0;
#X connect 42 0 44 0;
#X connect 43 0 28 0;
#X connect 44 0 43 0;
#X connect 47 0 22 0;
