#N canvas 300 76 1389 685 12;
#X floatatom 273 94 5 0 0 0 - - -;
#X obj 348 217 f;
#X obj 381 217 + 1;
#X obj 348 136 tgl 15 0 empty empty empty 17 7 0 10 -262144 -1 -1 1
1;
#X obj 379 295 until;
#X obj 458 489 f;
#X obj 394 489 +;
#X obj 412 368 f;
#X obj 443 369 + 1;
#X msg 431 344 0;
#X obj 412 418 t f b;
#X obj 394 523 / 50;
#X obj 419 218 t b b b;
#X msg 544 428 0;
#X floatatom 394 549 5 0 0 0 - - -;
#X obj 348 165 metro 100;
#X obj 273 63 inlet;
#X obj 727 489 pdcontrol;
#X msg 691 386 browse https://forum.pdpatchrepo.info/topic/5602/smoothing-sensor-readings-from-pduino-inside-pd/3
;
#X text 706 359 idea borrowed from;
#X obj 394 637 outlet;
#X obj 607 137 table \$0-mean 50;
#X obj 239 282 tabwrite \$0-mean;
#X obj 348 242 mod 51;
#X obj 348 62 r \$1;
#X obj 389 63 inlet;
#X text 160 64 incoming stream;
#X obj 348 95 route /poll /rate /size;
#X obj 402 261 f 50;
#X obj 412 392 tabread \$0-mean;
#X floatatom 555 248 5 1 100 0 - - -;
#X obj 555 273 array size \$0-mean;
#X obj 452 125 t f f f f;
#X obj 492 154 + 1;
#X connect 0 0 22 0;
#X connect 1 0 2 0;
#X connect 1 0 23 0;
#X connect 2 0 1 1;
#X connect 3 0 15 0;
#X connect 4 0 7 0;
#X connect 5 0 6 1;
#X connect 6 0 5 1;
#X connect 6 0 11 0;
#X connect 7 0 8 0;
#X connect 7 0 29 0;
#X connect 8 0 7 1;
#X connect 9 0 7 1;
#X connect 10 0 6 0;
#X connect 10 1 5 0;
#X connect 11 0 14 0;
#X connect 12 0 28 0;
#X connect 12 1 9 0;
#X connect 12 2 13 0;
#X connect 13 0 5 1;
#X connect 14 0 20 0;
#X connect 15 0 1 0;
#X connect 15 0 12 0;
#X connect 16 0 0 0;
#X connect 18 0 17 0;
#X connect 23 0 22 1;
#X connect 24 0 27 0;
#X connect 25 0 27 0;
#X connect 27 0 3 0;
#X connect 27 1 15 1;
#X connect 27 2 32 0;
#X connect 28 0 4 0;
#X connect 29 0 10 0;
#X connect 30 0 31 0;
#X connect 32 0 11 1;
#X connect 32 1 28 1;
#X connect 32 2 33 0;
#X connect 32 3 30 0;
#X connect 33 0 23 1;
