#N canvas 225 80 681 529 12;
#X obj 132 301 dac~;
#X obj 143 238 *~ 0.2;
#X floatatom 138 54 5 0 0 0 - - -;
#X floatatom 217 44 5 0 0 0 - - -;
#X floatatom 286 55 5 0 0 0 - - -;
#X obj 132 143 *~;
#X obj 148 123 tgl 15 0 empty empty empty 17 7 0 10 -262144 -1 -1 0
1;
#X floatatom 374 53 5 0 0 0 - - -;
#X floatatom 453 43 5 0 0 0 - - -;
#X floatatom 522 54 5 0 0 0 - - -;
#X obj 368 142 *~;
#X obj 384 122 tgl 15 0 empty empty empty 17 7 0 10 -262144 -1 -1 0
1;
#X obj 367 87 sr.phasor~ 600 299 298;
#X obj 131 88 sr.phasor~ 700 499 499.5;
#X connect 1 0 0 0;
#X connect 1 0 0 1;
#X connect 2 0 13 0;
#X connect 3 0 13 1;
#X connect 4 0 13 2;
#X connect 5 0 1 0;
#X connect 6 0 5 1;
#X connect 7 0 12 0;
#X connect 8 0 12 1;
#X connect 9 0 12 2;
#X connect 10 0 1 0;
#X connect 11 0 10 1;
#X connect 12 0 10 0;
#X connect 13 0 5 0;
