#N canvas 649 113 863 451 10;
#X msg 53 169 close;
#X obj 45 8 cnv 15 440 60 empty empty empty 20 12 0 14 #c0d828 #404040
0;
#X msg 44 142 devices;
#X floatatom 104 150 5 0 0 0 - - - 0;
#X msg 104 169 open \$1;
#X obj 44 256 s;
#X obj 44 234 serial_print any;
#X text 46 88 Requires [comport] object \; install under Help > Find
Externals, f 72;
#X text 52 16 [serial_print]: abstraction that works with Arduinos'
Serial.print() and Serial.println() functions (with the use of [comport]).
It was written by Alexandros Drymonitis. \; See https://github.com/alexdrymonitis/Arduino_Pd
;
#X floatatom 268 221 10 0 0 0 - - - 0;
#X obj 44 210 comport 1 9600;
#X floatatom 438 220 10 0 0 0 - - - 0;
#X obj 271 330 hsl 128 15 0 1 0 0 empty empty empty -2 -8 0 10 #fcfcfc
#000000 #000000 0 1;
#X obj 441 330 hsl 128 15 0 1 0 0 empty empty empty -2 -8 0 10 #fcfcfc
#000000 #000000 0 1;
#X obj 268 283 ps.scale -7 7 0 1;
#X obj 438 283 ps.scale -7 7 0 1;
#X obj 268 148 r humidity:;
#X obj 438 148 r temperature:;
#X connect 0 0 10 0;
#X connect 2 0 10 0;
#X connect 3 0 4 0;
#X connect 4 0 10 0;
#X connect 6 0 5 0;
#X connect 6 1 5 1;
#X connect 10 0 6 0;
#X connect 14 0 12 0;
#X connect 15 0 13 0;
#X connect 16 0 9 0;
#X connect 17 0 11 0;
