#N canvas 302 192 1280 684 12;
#X msg 203 460 \; pd dsp \$1;
#X obj 203 412 tgl 30 0 empty empty empty 17 7 0 10 -262144 -1 -1 1
1;
#X obj 471 602 dac~;
#N canvas 0 22 771 392 vol 0;
#X obj 110 220 outlet~;
#X obj 109 36 inlet~;
#X obj 180 36 inlet;
#X obj 110 167 *~;
#X obj 137 133 line~;
#X msg 137 101 \$1 100;
#X connect 1 0 3 0;
#X connect 2 0 5 0;
#X connect 3 0 0 0;
#X connect 4 0 3 1;
#X connect 5 0 4 0;
#X restore 471 524 pd vol;
#X floatatom 528 491 5 0 1 0 - - -;
#X obj 531 449 hsl 128 30 0 1 0 0 empty empty empty -2 -8 0 10 -262144
-1 -1 5200 1;
#X text 666 451 volume;
#X obj 352 102 noise~;
#X obj 453 449 *~;
#X obj 352 277 hip~ 300;
#X obj 352 199 lop~ 3000;
#X obj 352 225 lop~ 3000;
#X obj 352 251 hip~ 300;
#X floatatom 466 143 5 0 0 0 - - -;
#X floatatom 466 218 5 0 0 0 - - -;
#X obj 466 187 r lowerlim;
#X obj 466 111 r upperlim;
#X msg 144 82 \; upperlim 3000 \; lowerlim 300 \;;
#X msg 144 193 \; upperlim 1000 \; lowerlim 600 \;;
#X msg 144 249 \; upperlim 3000 \; lowerlim 1000 \;;
#X msg 144 306 \; upperlim 15000 \; lowerlim 10000 \;;
#X text 495 59 combining things to get percussion sounds;
#X msg 144 137 \; upperlim 800 \; lowerlim 500 \;;
#X obj 707 308 tgl 30 0 empty empty empty 17 7 0 10 -262144 -1 -1 0
1;
#X obj 707 151 tgl 15 0 empty empty empty 17 7 0 10 -262144 -1 -1 0
1;
#X floatatom 776 146 5 0 0 0 - - -;
#X obj 707 191 metro 400;
#X msg 881 233 /attack \$1;
#X floatatom 881 209 5 0 0 0 - - -;
#X floatatom 965 209 5 0 0 0 - - -;
#X floatatom 1043 209 5 0 0 0 - - -;
#X floatatom 1135 209 5 0 0 0 - - -;
#X msg 965 233 /decay \$1;
#X msg 1043 233 /sustain \$1;
#X msg 1135 233 /release \$1;
#X msg 779 233 /on;
#X msg 822 233 /off;
#X obj 707 358 ps.adsr~;
#X connect 1 0 0 0;
#X connect 3 0 2 0;
#X connect 3 0 2 1;
#X connect 4 0 3 1;
#X connect 5 0 4 0;
#X connect 7 0 10 0;
#X connect 8 0 3 0;
#X connect 9 0 8 0;
#X connect 10 0 11 0;
#X connect 11 0 12 0;
#X connect 12 0 9 0;
#X connect 13 0 10 1;
#X connect 13 0 11 1;
#X connect 14 0 12 1;
#X connect 14 0 9 1;
#X connect 15 0 14 0;
#X connect 16 0 13 0;
#X connect 23 0 37 0;
#X connect 24 0 26 0;
#X connect 25 0 26 1;
#X connect 26 0 23 0;
#X connect 27 0 37 1;
#X connect 28 0 27 0;
#X connect 29 0 32 0;
#X connect 30 0 33 0;
#X connect 31 0 34 0;
#X connect 32 0 37 1;
#X connect 33 0 37 1;
#X connect 34 0 37 1;
#X connect 35 0 37 1;
#X connect 36 0 37 1;
#X connect 37 0 8 1;
