#N canvas 614 132 982 649 10;
#X obj 100 86 inlet;
#X obj 167 223 + 1;
#X obj 236 228 + 2;
#X obj 127 389 outlet;
#X obj 99 256 tabread \$1;
#X obj 168 256 tabread \$1;
#X obj 238 257 tabread \$1;
#X obj 126 342 pack 0 0 0 0 0 0 0 0, f 66;
#X obj 101 142 * 8;
#X obj 101 171 t a a a a a a a a, f 72;
#X obj 308 257 tabread \$1;
#X obj 308 231 + 3;
#X obj 378 257 tabread \$1;
#X obj 448 256 tabread \$1;
#X obj 518 255 tabread \$1;
#X obj 585 255 tabread \$1;
#X obj 378 231 + 4;
#X obj 448 230 + 5;
#X obj 518 229 + 6;
#X obj 585 229 + 7;
#X text 148 86 index;
#X connect 0 0 8 0;
#X connect 1 0 5 0;
#X connect 2 0 6 0;
#X connect 4 0 7 0;
#X connect 5 0 7 1;
#X connect 6 0 7 2;
#X connect 7 0 3 0;
#X connect 8 0 9 0;
#X connect 9 0 4 0;
#X connect 9 1 1 0;
#X connect 9 2 2 0;
#X connect 9 3 11 0;
#X connect 9 4 16 0;
#X connect 9 5 17 0;
#X connect 9 6 18 0;
#X connect 9 7 19 0;
#X connect 10 0 7 3;
#X connect 11 0 10 0;
#X connect 12 0 7 4;
#X connect 13 0 7 5;
#X connect 14 0 7 6;
#X connect 15 0 7 7;
#X connect 16 0 12 0;
#X connect 17 0 13 0;
#X connect 18 0 14 0;
#X connect 19 0 15 0;
