#N canvas 388 127 881 573 10;
#X obj 73 50 inlet;
#X obj 329 47 inlet;
#X obj 211 490 tabwrite \$1;
#X obj 56 288 pack 0 0;
#X obj 111 288 pack 0 1;
#X obj 165 288 pack 0 2;
#X obj 329 86 * 8;
#X obj 331 253 + 1;
#X obj 356 253 + 2;
#X obj 304 223 t a a a a a a a a, f 24;
#X obj 382 253 + 3;
#X obj 409 253 + 4;
#X obj 436 253 + 5;
#X obj 463 253 + 6;
#X obj 488 253 + 7;
#X obj 73 103 unpack 0 0 0 0 0 0 0 0;
#X obj 222 288 pack 0 3;
#X obj 98 320 pack 0 4;
#X obj 153 320 pack 0 5;
#X obj 207 320 pack 0 6;
#X obj 264 320 pack 0 7;
#X connect 0 0 15 0;
#X connect 1 0 6 0;
#X connect 3 0 2 0;
#X connect 4 0 2 0;
#X connect 5 0 2 0;
#X connect 6 0 9 0;
#X connect 7 0 4 1;
#X connect 8 0 5 1;
#X connect 9 0 3 1;
#X connect 9 1 7 0;
#X connect 9 2 8 0;
#X connect 9 3 10 0;
#X connect 9 4 11 0;
#X connect 9 5 12 0;
#X connect 9 6 13 0;
#X connect 9 7 14 0;
#X connect 10 0 16 1;
#X connect 11 0 17 1;
#X connect 12 0 18 1;
#X connect 13 0 19 1;
#X connect 14 0 20 1;
#X connect 15 0 3 0;
#X connect 15 1 4 0;
#X connect 15 2 5 0;
#X connect 15 3 16 0;
#X connect 15 4 17 0;
#X connect 15 5 18 0;
#X connect 15 6 19 0;
#X connect 15 7 20 0;
#X connect 16 0 2 0;
#X connect 17 0 2 0;
#X connect 18 0 2 0;
#X connect 19 0 2 0;
#X connect 20 0 2 0;
