#N canvas 137 29 1400 956 12;
#N canvas 0 22 450 278 (subpatch) 0;
#X array \$0-sam1 6839 float 2;
#X coords 0 1 6839 -1 200 140 1 0 0;
#X restore 1000 79 graph;
#X msg 218 265 0;
#X obj 219 78 tgl 15 0 empty empty empty 17 7 0 10 -262144 -1 -1 1
1;
#X msg 1000 596 read -resize \$1 \$2;
#X obj 1000 626 soundfiler;
#X obj 1000 568 pack s s;
#X obj 1000 508 t a b, f 8;
#X obj 473 607 dac~;
#X obj 218 347 echo~ e1;
#X msg 1161 595 read -resize \$1 \$2;
#X obj 1161 625 soundfiler;
#X obj 1161 567 pack s s;
#X obj 1161 507 t a b, f 8;
#X obj 1053 536 symbol \$0-sam1;
#X obj 1214 535 symbol \$0-sam2;
#N canvas 0 22 450 278 (subpatch) 0;
#X array \$0-sam2 4204 float 2;
#X coords 0 1 4204 -1 200 140 1 0 0;
#X restore 1000 242 graph;
#X obj 1000 404 loadbang;
#X obj 1127 399 f \$0;
#X floatatom 1127 426 5 0 0 0 - - -;
#X text 1175 426 unique patch number;
#X obj 1000 437 t b b b;
#X obj 218 300 tabplay~ \$0-sam1;
#X obj 382 346 echo~ e2;
#X msg 540 263 0;
#X obj 540 345 echo~ e3;
#X obj 704 344 echo~ e4;
#X obj 540 298 tabplay~ \$0-sam2;
#X obj 218 472 volume~ v1;
#X obj 382 472 volume~ v2;
#X obj 540 473 volume~ v3;
#X obj 704 473 volume~ v4;
#X msg 1161 481 ./sounds/Conga1.wav;
#X msg 1000 482 ./sounds/Conga3.wav;
#X msg 26 46 \; e1 /wet 1 \; e1 /time 0.75 \; e1 /feedback 0.9 \; e2
/wet 1 \; e2 /time 0.7 \; e2 /feedback 0.5 \; e3 /wet 1 \; e3 /time
0.5 \; e3 /feedback 0.5 \; e4 /wet 0.9 \; e4 /time 0.2 \; e4 /feedback
0.9 \; v1 /vol 0.4 \; v2 /vol 0.7 \; v3 /vol 0.7 \; v4 /vol 0.4 \;
;
#X msg 28 303 \; e1 /wet 0.6 \; e1 /time 0.08 \; e1 /feedback 0.2 \;
e2 /wet 0.7 \; e2 /time 0.9 \; e2 /feedback 0.2 \; e3 /wet 0.7 \; e3
/time 0.06 \; e3 /feedback 0.9 \; e4 /wet 0.6 \; e4 /time 0.05 \; e4
/feedback 0.9 \; v1 /vol 0.8 \; v2 /vol 0.5 \; v3 /vol 0.6 \; v4 /vol
0.8 \;;
#X floatatom 279 77 5 0 0 0 - - -;
#X obj 219 138 f 1;
#X obj 303 137 + 1;
#X floatatom 219 192 5 0 0 0 - - -;
#X obj 219 165 mod 16;
#X obj 219 109 metro 500;
#X obj 219 224 select 1 3 5 7 9 11 13 15;
#X obj 540 226 select 0 2 4 6 8 10 12 14;
#X msg 28 562 \; e1 /wet 0.9 \; e1 /time 0.8 \; e1 /feedback 0.2 \;
e2 /wet 0.8 \; e2 /time 0.9 \; e2 /feedback 0.2 \; e3 /wet 0.8 \; e3
/time 0.01 \; e3 /feedback 0.9 \; e4 /wet 0.7 \; e4 /time 0.02 \; e4
/feedback 0.9 \; v1 /vol 0.8 \; v2 /vol 0.5 \; v3 /vol 0.6 \; v4 /vol
0.8 \;;
#X connect 1 0 21 0;
#X connect 2 0 40 0;
#X connect 3 0 4 0;
#X connect 5 0 3 0;
#X connect 6 0 5 0;
#X connect 6 1 13 0;
#X connect 8 0 27 0;
#X connect 9 0 10 0;
#X connect 11 0 9 0;
#X connect 12 0 11 0;
#X connect 12 1 14 0;
#X connect 13 0 5 1;
#X connect 14 0 11 1;
#X connect 16 0 20 0;
#X connect 17 0 18 0;
#X connect 20 0 32 0;
#X connect 20 1 31 0;
#X connect 20 2 17 0;
#X connect 21 0 8 0;
#X connect 21 0 22 0;
#X connect 22 0 28 0;
#X connect 23 0 26 0;
#X connect 24 0 29 0;
#X connect 25 0 30 0;
#X connect 26 0 24 0;
#X connect 26 0 25 0;
#X connect 27 0 7 0;
#X connect 28 0 7 1;
#X connect 29 0 7 0;
#X connect 30 0 7 1;
#X connect 31 0 12 0;
#X connect 32 0 6 0;
#X connect 35 0 40 1;
#X connect 36 0 37 0;
#X connect 36 0 39 0;
#X connect 37 0 36 1;
#X connect 38 0 41 0;
#X connect 38 0 42 0;
#X connect 39 0 38 0;
#X connect 40 0 36 0;
#X connect 41 0 1 0;
#X connect 41 1 1 0;
#X connect 41 2 1 0;
#X connect 41 3 1 0;
#X connect 41 4 1 0;
#X connect 41 5 1 0;
#X connect 41 6 1 0;
#X connect 41 7 1 0;
#X connect 42 0 23 0;
#X connect 42 1 23 0;
#X connect 42 2 23 0;
#X connect 42 3 23 0;
#X connect 42 4 23 0;
#X connect 42 5 23 0;
#X connect 42 6 23 0;
#X connect 42 7 23 0;
