#N canvas 137 29 1400 956 12;
#N canvas 0 22 450 278 (subpatch) 0;
#X array \$0-sam1 6839 float 2;
#X coords 0 1 6839 -1 200 140 1 0 0;
#X restore 1000 79 graph;
#X obj 218 78 tgl 15 0 empty empty empty 17 7 0 10 -262144 -1 -1 1
1;
#X msg 1000 596 read -resize \$1 \$2;
#X obj 1000 626 soundfiler;
#X obj 1000 568 pack s s;
#X obj 1000 508 t a b, f 8;
#X obj 472 655 dac~;
#X obj 217 395 echo~ e1;
#X msg 1197 595 read -resize \$1 \$2;
#X obj 1197 625 soundfiler;
#X obj 1197 567 pack s s;
#X obj 1197 507 t a b, f 8;
#X obj 1053 536 symbol \$0-sam1;
#X obj 1250 535 symbol \$0-sam2;
#N canvas 0 22 450 278 (subpatch) 0;
#X array \$0-sam2 4204 float 2;
#X coords 0 1 4204 -1 200 140 1 0 0;
#X restore 1000 242 graph;
#X obj 1000 404 loadbang;
#X obj 1127 399 f \$0;
#X floatatom 1127 426 5 0 0 0 - - -;
#X text 1175 426 unique patch number;
#X obj 1000 437 t b b b;
#X obj 381 394 echo~ e2;
#X obj 539 393 echo~ e3;
#X obj 703 392 echo~ e4;
#X obj 217 520 volume~ v1;
#X obj 381 520 volume~ v2;
#X obj 539 521 volume~ v3;
#X obj 703 521 volume~ v4;
#X msg 1197 481 ./sounds/Conga1.wav;
#X msg 1000 482 ./sounds/Conga3.wav;
#X msg 26 46 \; e1 /wet 1 \; e1 /time 0.75 \; e1 /feedback 0.9 \; e2
/wet 1 \; e2 /time 0.7 \; e2 /feedback 0.5 \; e3 /wet 1 \; e3 /time
0.5 \; e3 /feedback 0.5 \; e4 /wet 0.9 \; e4 /time 0.2 \; e4 /feedback
0.9 \; v1 /vol 0.4 \; v2 /vol 0.7 \; v3 /vol 0.7 \; v4 /vol 0.4 \;
;
#X msg 28 303 \; e1 /wet 0.6 \; e1 /time 0.08 \; e1 /feedback 0.2 \;
e2 /wet 0.7 \; e2 /time 0.9 \; e2 /feedback 0.2 \; e3 /wet 0.7 \; e3
/time 0.06 \; e3 /feedback 0.9 \; e4 /wet 0.6 \; e4 /time 0.05 \; e4
/feedback 0.9 \; v1 /vol 0.8 \; v2 /vol 0.5 \; v3 /vol 0.6 \; v4 /vol
0.8 \;;
#X floatatom 279 77 5 0 0 0 - - -;
#X obj 219 138 f 1;
#X obj 303 137 + 1;
#X floatatom 219 192 5 0 0 0 - - -;
#X obj 219 165 mod 16;
#X obj 219 109 metro 500;
#X obj 219 224 select 1 3 5 7 9 11 13 15;
#X obj 540 226 select 0 2 4 6 8 10 12 14;
#X obj 217 348 tabread4~ \$0-sam1;
#X obj 539 346 tabread4~ \$0-sam2;
#X floatatom 1000 679 5 0 0 0 samples - -;
#X floatatom 1197 677 5 0 0 0 samples - -;
#X floatatom 1000 764 5 0 0 1 freq-phasor~ - -;
#X obj 1000 722 expr 44100 / $f1;
#X floatatom 1197 763 5 0 0 1 freq-phasor~ - -;
#X obj 1197 721 expr 44100 / $f1;
#X obj 217 318 line~;
#X obj 539 316 line~;
#X floatatom 942 806 5 0 0 0 ms-line~ - -;
#X floatatom 1139 805 5 0 0 0 ms-line~ - -;
#X obj 942 764 / 44.1;
#X obj 1139 762 / 44.1;
#X msg 217 286 0 \, 6839 155;
#X msg 308 286 0 \, 6839 75;
#X msg 29 562 \; e1 /wet 0.9 \; e1 /time 0.04 \; e1 /feedback 0.2 \;
e2 /wet 0.8 \; e2 /time 0.4 \; e2 /feedback 0.2 \; e3 /wet 0.8 \; e3
/time 0.2 \; e3 /feedback 0.9 \; e4 /wet 0.7 \; e4 /time 0.02 \; e4
/feedback 0.9 \; v1 /vol 0.5 \; v2 /vol 0.5 \; v3 /vol 0.6 \; v4 /vol
0.3 \;;
#X msg 394 286 0 \, 6839 100;
#X msg 539 287 0 \, 4204 95;
#X msg 626 286 0 \, 4204 80;
#X msg 715 288 0 \, 4204 105;
#X connect 1 0 36 0;
#X connect 2 0 3 0;
#X connect 3 0 41 0;
#X connect 4 0 2 0;
#X connect 5 0 4 0;
#X connect 5 1 12 0;
#X connect 7 0 23 0;
#X connect 8 0 9 0;
#X connect 9 0 42 0;
#X connect 10 0 8 0;
#X connect 11 0 10 0;
#X connect 11 1 13 0;
#X connect 12 0 4 1;
#X connect 13 0 10 1;
#X connect 15 0 19 0;
#X connect 16 0 17 0;
#X connect 19 0 28 0;
#X connect 19 1 27 0;
#X connect 19 2 16 0;
#X connect 20 0 24 0;
#X connect 21 0 25 0;
#X connect 22 0 26 0;
#X connect 23 0 6 0;
#X connect 24 0 6 1;
#X connect 25 0 6 0;
#X connect 26 0 6 1;
#X connect 27 0 11 0;
#X connect 28 0 5 0;
#X connect 31 0 36 1;
#X connect 32 0 33 0;
#X connect 32 0 35 0;
#X connect 33 0 32 1;
#X connect 34 0 37 0;
#X connect 34 0 38 0;
#X connect 35 0 34 0;
#X connect 36 0 32 0;
#X connect 37 0 53 0;
#X connect 37 1 54 0;
#X connect 37 2 54 0;
#X connect 37 3 54 0;
#X connect 37 4 56 0;
#X connect 37 5 56 0;
#X connect 37 6 54 0;
#X connect 37 7 53 0;
#X connect 38 0 57 0;
#X connect 38 1 59 0;
#X connect 38 2 58 0;
#X connect 38 3 58 0;
#X connect 38 4 59 0;
#X connect 38 5 57 0;
#X connect 38 6 57 0;
#X connect 38 7 59 0;
#X connect 39 0 7 0;
#X connect 39 0 20 0;
#X connect 40 0 21 0;
#X connect 40 0 22 0;
#X connect 41 0 44 0;
#X connect 41 0 51 0;
#X connect 42 0 46 0;
#X connect 42 0 52 0;
#X connect 44 0 43 0;
#X connect 46 0 45 0;
#X connect 47 0 39 0;
#X connect 48 0 40 0;
#X connect 51 0 49 0;
#X connect 52 0 50 0;
#X connect 53 0 47 0;
#X connect 54 0 47 0;
#X connect 56 0 47 0;
#X connect 57 0 48 0;
#X connect 58 0 48 0;
#X connect 59 0 48 0;
