#N canvas 325 23 1038 907 10;
#X floatatom 529 235 20 0 0 0 - - -;
#X floatatom 685 553 0 0 0 0 - - -;
#X obj 685 625 line~;
#X obj 685 601 pack 0 100;
#X obj 685 577 * 0.01;
#X obj 335 380 +~;
#X obj 664 651 *~;
#X text 766 617 <-- feedback (hundredths);
#X obj 664 675 clip~ -1 1;
#X obj 323 -18 inlet~;
#X obj 40 749 outlet~;
#X obj 529 294 line~;
#X msg 529 266 \$1 100;
#X obj 806 125 loadbang;
#X obj 806 148 f \$0;
#X floatatom 806 173 5 0 0 0 - - -;
#X obj 423 -16 r \$1;
#X obj 116 155 hsl 100 15 0 1 0 0 empty empty time 20 8 0 10 -204800
-4160 -1 7920 1;
#X obj 116 175 hsl 100 15 0 1 0 0 empty empty feedback 20 8 0 10 -204800
-4160 -1 1980 1;
#X obj 116 135 hsl 100 15 0 1 0 0 empty empty wet 20 8 0 10 -204800
-4160 -1 8910 1;
#X obj 133 697 *~;
#X obj 40 697 *~;
#X obj 40 727 +~;
#X obj 148 619 sin;
#X obj 55 619 cos;
#X obj 177 528 * 2;
#X obj 177 549 / 4;
#X obj 177 571 * 3.14159;
#X floatatom 177 593 5 0 0 0 - - -;
#X obj 148 668 line~;
#X obj 55 668 line~;
#X obj 148 641 pack f 60;
#X obj 55 641 pack f 60;
#X obj 685 529 * 96;
#X obj 664 699 delwrite~ \$0-l 5000;
#X obj 423 15 route /wet /time /feedback;
#X floatatom 529 187 5 0 0 0 - - -;
#X floatatom 685 509 5 0 0 0 - - -;
#X obj 758 29 loadbang;
#X obj 758 62 t b b b;
#X msg 758 85 1;
#X obj 731 32 bng 15 250 50 0 empty empty empty 17 7 0 10 -262144 -1
-1;
#X msg 790 86 0.5;
#X msg 827 83 0.5;
#X obj 529 209 * 5000;
#X text 249 622 cross-fade between wet and dry;
#X obj 529 346 delread4~ \$0-l;
#X text 656 240 <-- delay time;
#X connect 0 0 12 0;
#X connect 1 0 4 0;
#X connect 2 0 6 1;
#X connect 3 0 2 0;
#X connect 4 0 3 0;
#X connect 5 0 6 0;
#X connect 5 0 20 0;
#X connect 6 0 8 0;
#X connect 8 0 34 0;
#X connect 9 0 5 0;
#X connect 9 0 21 0;
#X connect 11 0 46 0;
#X connect 12 0 11 0;
#X connect 13 0 14 0;
#X connect 14 0 15 0;
#X connect 16 0 35 0;
#X connect 17 0 36 0;
#X connect 18 0 37 0;
#X connect 19 0 25 0;
#X connect 20 0 22 1;
#X connect 21 0 22 0;
#X connect 22 0 10 0;
#X connect 23 0 31 0;
#X connect 24 0 32 0;
#X connect 25 0 26 0;
#X connect 26 0 27 0;
#X connect 27 0 28 0;
#X connect 28 0 23 0;
#X connect 28 0 24 0;
#X connect 29 0 20 1;
#X connect 30 0 21 1;
#X connect 31 0 29 0;
#X connect 32 0 30 0;
#X connect 33 0 1 0;
#X connect 35 0 19 0;
#X connect 35 1 17 0;
#X connect 35 2 18 0;
#X connect 36 0 44 0;
#X connect 37 0 33 0;
#X connect 38 0 39 0;
#X connect 39 0 40 0;
#X connect 39 1 42 0;
#X connect 39 2 43 0;
#X connect 40 0 19 0;
#X connect 41 0 39 0;
#X connect 42 0 17 0;
#X connect 43 0 18 0;
#X connect 44 0 0 0;
#X connect 46 0 5 1;
#X coords 0 -1 1 1 130 100 1 100 100;
