#N canvas 813 127 618 587 12;
#X obj 124 424 sel 1;
#X floatatom 124 154 5 0 0 1 clock-in - -;
#X floatatom 232 156 5 0 0 1 offset - -;
#X floatatom 332 156 5 0 0 1 hits - -;
#X floatatom 423 155 5 0 0 1 steps - -;
#X obj 124 508 outlet;
#X text 184 509 bang output;
#X obj 124 53 inlet;
#X obj 232 55 inlet;
#X obj 233 99 route /offset /hits /steps;
#X obj 302 56 r \$1;
#X obj 124 310 * \$2;
#X obj 124 386 < \$2;
#X text 253 343 basic implementation of euclidean algorithm;
#X obj 124 348 mod \$3;
#X obj 124 272 + \$4;
#X obj 190 443 pdcontrol;
#X msg 190 394 browse http://cgm.cs.mcgill.ca/~godfried/publications/banff.pdf
;
#X floatatom 69 309 5 0 0 0 - - -;
#X floatatom 69 344 5 0 0 0 - - -;
#X floatatom 69 379 5 0 0 0 - - -;
#X floatatom 69 414 5 0 0 0 - - -;
#X connect 0 0 5 0;
#X connect 1 0 15 0;
#X connect 2 0 15 1;
#X connect 3 0 11 1;
#X connect 3 0 12 1;
#X connect 4 0 14 1;
#X connect 7 0 1 0;
#X connect 8 0 9 0;
#X connect 9 0 2 0;
#X connect 9 1 3 0;
#X connect 9 2 4 0;
#X connect 10 0 9 0;
#X connect 11 0 14 0;
#X connect 11 0 19 0;
#X connect 12 0 0 0;
#X connect 12 0 21 0;
#X connect 14 0 12 0;
#X connect 14 0 20 0;
#X connect 15 0 11 0;
#X connect 15 0 18 0;
#X connect 17 0 16 0;
