#N canvas 12 23 1680 948 12;
#X obj 705 503 tabread;
#X floatatom 705 530 5 0 0 0 - - -;
#X floatatom 737 408 5 0 0 0 - - -;
#X obj 705 442 mod 4;
#X obj 705 335 metro 125;
#X obj 705 307 tgl 15 0 empty empty empty 17 7 0 10 -262144 -1 -1 0
1;
#X obj 705 369 f 0;
#X obj 750 369 + 1;
#X floatatom 765 307 5 0 0 0 - - -;
#X floatatom 705 470 5 0 0 0 - - -;
#X msg 295 58 \; ec1 /offset 0 \; ec1 /steps 8 \; ec1 /hits 3 \;;
#X msg 425 58 \; ec1 /offset 0 \; ec1 /steps 18 \; ec1 /hits 6 \;;
#X obj 705 556 sel 1;
#X obj 826 503 tabread;
#X floatatom 826 530 5 0 0 0 - - -;
#X floatatom 858 408 5 0 0 0 - - -;
#X obj 826 442 mod 4;
#X obj 826 369 f 0;
#X obj 871 369 + 1;
#X floatatom 826 470 5 0 0 0 - - -;
#X obj 826 556 sel 1;
#X msg 860 55 \; ec2 /offset 0 \; ec2 /steps 8 \; ec2 /hits 3 \;;
#X msg 990 55 \; ec2 /offset 0 \; ec2 /steps 18 \; ec2 /hits 6 \;;
#N canvas 0 22 450 278 (subpatch) 0;
#X array \$0-sam1 32255 float 2;
#X coords 0 1 32255 -1 200 140 1 0 0;
#X restore 43 400 graph;
#N canvas 0 22 450 278 (subpatch) 0;
#X array \$0-sam2 21551 float 2;
#X coords 0 1 21551 -1 200 140 1 0 0;
#X restore 43 563 graph;
#X obj 705 626 tabplay~ \$0-sam1;
#X msg 705 590 0;
#X msg 826 589 0;
#X obj 826 625 tabplay~ \$0-sam2;
#X obj 859 885 dac~;
#X msg 275 506 read -resize \$1 \$2;
#X obj 275 536 soundfiler;
#X obj 275 448 openpanel;
#X obj 275 418 t b b;
#X obj 275 478 pack s s;
#X obj 275 392 bng 15 250 50 0 empty empty empty 17 7 0 10 -262144
-1 -1;
#X obj 352 449 symbol \$0-sam1;
#X msg 277 682 read -resize \$1 \$2;
#X obj 277 712 soundfiler;
#X obj 277 624 openpanel;
#X obj 277 594 t b b;
#X obj 277 654 pack s s;
#X obj 277 568 bng 15 250 50 0 empty empty empty 17 7 0 10 -262144
-1 -1;
#X obj 354 625 symbol \$0-sam2;
#X msg 860 126 \; ec2 /offset 0 \; ec2 /steps 8 \; ec2 /hits 5 \;;
#X msg 295 132 \; ec1 /offset 1 \; ec1 /steps 8 \; ec1 /hits 5 \;;
#X obj 39 60 ps.euclidean ec1 2 4 0;
#X obj 604 57 ps.euclidean ec2 2 4 0;
#X msg 990 126 \; ec2 /offset 0 \; ec2 /steps 9 \; ec2 /hits 5 \;;
#X msg 425 132 \; ec1 /offset 6 \; ec1 /steps 11 \; ec1 /hits 7 \;
;
#X msg 295 206 \; ec1 /offset 0 \; ec1 /steps 8 \; ec1 /hits 4 \;;
#X msg 860 197 \; ec2 /offset 0 \; ec2 /steps 8 \; ec2 /hits 2 \;;
#X msg 990 197 \; ec2 /offset 0 \; ec2 /steps 18 \; ec2 /hits 12 \;
;
#X msg 425 206 \; ec1 /offset 0 \; ec1 /steps 18 \; ec1 /hits 11 \;
;
#X msg 937 330 0;
#X text 971 329 reset;
#N canvas 0 22 450 278 (subpatch) 0;
#X array \$0-sam3 13147 float 2;
#X coords 0 1 13147 -1 200 140 1 0 0;
#X restore 45 738 graph;
#X msg 279 857 read -resize \$1 \$2;
#X obj 279 887 soundfiler;
#X obj 279 799 openpanel;
#X obj 279 769 t b b;
#X obj 279 829 pack s s;
#X obj 279 743 bng 15 250 50 0 empty empty empty 17 7 0 10 -262144
-1 -1;
#X obj 356 800 symbol \$0-sam3;
#X obj 954 503 tabread;
#X floatatom 954 530 5 0 0 0 - - -;
#X floatatom 986 408 5 0 0 0 - - -;
#X obj 954 442 mod 4;
#X obj 954 369 f 0;
#X obj 999 369 + 1;
#X floatatom 954 470 5 0 0 0 - - -;
#X obj 954 556 sel 1;
#X msg 954 589 0;
#X obj 954 625 tabplay~ \$0-sam3;
#X obj 1166 57 ps.euclidean ec3 2 4 0;
#X msg 1422 55 \; ec3 /offset 0 \; ec3 /steps 8 \; ec3 /hits 3 \;;
#X msg 1552 197 \; ec3 /offset 0 \; ec3 /steps 14 \; ec3 /hits 9 \;
;
#X msg 1422 197 \; ec3 /offset 0 \; ec3 /steps 22 \; ec3 /hits 4 \;
;
#X msg 1422 126 \; ec3 /offset 0 \; ec3 /steps 18 \; ec3 /hits 15 \;
;
#X msg 1552 126 \; ec3 /offset 0 \; ec3 /steps 19 \; ec3 /hits 6 \;
;
#X obj 843 783 *~ 0.5;
#X msg 1552 55 \; ec3 /offset 0 \; ec3 /steps 16 \; ec3 /hits 3 \;
;
#X msg 1424 269 \; ec3 /offset 2 \; ec3 /steps 5 \; ec3 /hits 1 \;
;
#X msg 427 279 \; ec1 /offset 1 \; ec1 /steps 15 \; ec1 /hits 3 \;
;
#X msg 294 276 \; ec1 /offset 0 \; ec1 /steps 13 \; ec1 /hits 4 \;
;
#X msg 1221 432 \; ec3 /offset 0 \; ec3 /steps 88 \; ec3 /hits 56 \;
;
#X msg 1219 508 \; ec2 /offset 0 \; ec2 /steps 108 \; ec2 /hits 56
\;;
#X msg 1219 583 \; ec1 /offset 0 \; ec1 /steps 208 \; ec1 /hits 106
\;;
#X msg 1223 653 \; ec1 /offset 0 \; ec1 /steps 120 \; ec1 /hits 50
\;;
#X connect 0 0 1 0;
#X connect 1 0 12 0;
#X connect 2 0 3 1;
#X connect 3 0 9 0;
#X connect 4 0 6 0;
#X connect 4 0 17 0;
#X connect 4 0 68 0;
#X connect 5 0 4 0;
#X connect 6 0 7 0;
#X connect 6 0 3 0;
#X connect 7 0 6 1;
#X connect 8 0 4 1;
#X connect 9 0 0 0;
#X connect 12 0 26 0;
#X connect 13 0 14 0;
#X connect 14 0 20 0;
#X connect 15 0 16 1;
#X connect 16 0 19 0;
#X connect 17 0 18 0;
#X connect 17 0 16 0;
#X connect 18 0 17 1;
#X connect 19 0 13 0;
#X connect 20 0 27 0;
#X connect 25 0 80 0;
#X connect 26 0 25 0;
#X connect 27 0 28 0;
#X connect 28 0 80 0;
#X connect 30 0 31 0;
#X connect 32 0 34 0;
#X connect 33 0 32 0;
#X connect 33 1 36 0;
#X connect 34 0 30 0;
#X connect 35 0 33 0;
#X connect 36 0 34 1;
#X connect 37 0 38 0;
#X connect 39 0 41 0;
#X connect 40 0 39 0;
#X connect 40 1 43 0;
#X connect 41 0 37 0;
#X connect 42 0 40 0;
#X connect 43 0 41 1;
#X connect 46 0 0 0;
#X connect 46 1 2 0;
#X connect 47 0 13 0;
#X connect 47 1 15 0;
#X connect 54 0 17 1;
#X connect 54 0 6 1;
#X connect 54 0 68 1;
#X connect 57 0 58 0;
#X connect 59 0 61 0;
#X connect 60 0 59 0;
#X connect 60 1 63 0;
#X connect 61 0 57 0;
#X connect 62 0 60 0;
#X connect 63 0 61 1;
#X connect 64 0 65 0;
#X connect 65 0 71 0;
#X connect 66 0 67 1;
#X connect 67 0 70 0;
#X connect 68 0 69 0;
#X connect 68 0 67 0;
#X connect 69 0 68 1;
#X connect 70 0 64 0;
#X connect 71 0 72 0;
#X connect 72 0 73 0;
#X connect 73 0 80 0;
#X connect 74 0 64 0;
#X connect 74 1 66 0;
#X connect 80 0 29 0;
#X connect 80 0 29 1;
