#N canvas 620 111 723 544 12;
#X obj 158 20 adc~;
#X obj 220 215 mtof;
#X obj 220 328 osc~;
#X floatatom 67 106 5 0 0 0 - - -;
#X msg 417 348 \; pd dsp \$1;
#X obj 417 308 tgl 15 0 empty empty empty 17 7 0 10 -262144 -1 -1 0
1;
#X floatatom 220 240 5 0 0 0 - - -;
#X obj 220 296 line~;
#X obj 220 265 pack f 400;
#X obj 219 465 dac~;
#X obj 220 182 + 0;
#X floatatom 258 156 5 0 0 0 - - -;
#X text 206 18 <- analog to digital converter... using channel 1;
#X text 308 157 <- addition for offsetting the pitch if desired;
#X text 272 215 <- mtof \, converts midi values to frequency in Hertz
;
#X text 321 112 <- MIDI note value of the incoming pitch;
#X text 150 509 plug in headphones for best results! risk of feedback!
;
#X obj 223 431 *~;
#X obj 281 423 tgl 15 0 empty empty empty 17 7 0 10 -262144 -1 -1 0
1;
#X obj 43 70 sigmund~ -hop 4096 pitch env;
#X text 253 70 <- estimates the pitch;
#X floatatom 259 122 5 0 0 0 - - -;
#X obj 305 315 dbtorms;
#X obj 220 356 *~;
#X floatatom 308 342 5 0 0 0 - - -;
#X obj 346 393 line~;
#X msg 348 368 \$1 50;
#X text 309 425 on/off;
#X connect 0 0 19 0;
#X connect 1 0 6 0;
#X connect 2 0 23 0;
#X connect 3 0 10 0;
#X connect 5 0 4 0;
#X connect 6 0 8 0;
#X connect 7 0 2 0;
#X connect 8 0 7 0;
#X connect 10 0 1 0;
#X connect 11 0 10 1;
#X connect 17 0 9 0;
#X connect 17 0 9 1;
#X connect 18 0 17 1;
#X connect 19 0 3 0;
#X connect 19 1 21 0;
#X connect 21 0 22 0;
#X connect 22 0 24 0;
#X connect 23 0 17 0;
#X connect 24 0 26 0;
#X connect 25 0 23 1;
#X connect 26 0 25 0;
