#N canvas 790 73 1444 695 12;
#X declare -path vstplugin~;
#X obj 241 274 *~ 0.5;
#X obj 301 272 *~ 0.5;
#X obj 266 326 dac~;
#X obj 79 9 bng 15 250 50 0 empty empty empty 17 7 0 10 #fcfcfc #000000
#000000;
#X obj 79 29 openpanel;
#X msg 79 53 open -e \$1;
#X msg 57 100 close;
#X msg 331 160 vis \$1;
#X obj 331 140 tgl 15 0 empty empty empty 17 7 0 10 #fcfcfc #000000
#000000 0 1;
#X msg 625 106 midi_note 1 60 64;
#X msg 626 39 midi_note 1 80 127;
#X msg 623 66 midi_noteoff 1 80;
#X obj 41 661 pdcontrol;
#X msg 623 130 midi_noteoff 1 60;
#X text 787 36 on: channel note velocity;
#X text 787 63 off: channel note;
#N canvas 0 23 1287 754 makenote 0;
#X obj 448 390 pack 1 80 127;
#X floatatom 579 156 5 0 0 0 - - - 0;
#X floatatom 536 366 5 0 0 0 - - - 0;
#X obj 448 416 list prepend midi_note;
#X msg 448 365 1;
#X obj 448 441 list trim;
#X floatatom 686 364 5 0 0 0 - - - 0;
#X msg 626 365 1;
#X obj 626 414 list prepend midi_noteoff;
#X obj 626 389 pack 1 80;
#X obj 626 439 list trim;
#X obj 416 91 bng 15 250 50 0 empty empty empty 17 7 0 10 #fcfcfc #000000
#000000;
#X obj 619 304 bng 15 250 50 0 empty empty empty 17 7 0 10 #fcfcfc
#000000 #000000;
#X obj 619 278 delay 100;
#X floatatom 713 161 5 0 0 0 - - - 0;
#X floatatom 651 158 5 0 0 0 - - - 0;
#X obj 594 84 route /note /velocity /duration;
#X obj 605 42 inlet;
#X obj 380 50 inlet;
#X obj 458 517 outlet;
#X connect 0 0 3 0;
#X connect 1 0 0 1;
#X connect 1 0 6 0;
#X connect 2 0 0 2;
#X connect 3 0 5 0;
#X connect 4 0 0 0;
#X connect 5 0 19 0;
#X connect 6 0 9 1;
#X connect 7 0 9 0;
#X connect 8 0 10 0;
#X connect 9 0 8 0;
#X connect 10 0 19 0;
#X connect 11 0 4 0;
#X connect 11 0 13 0;
#X connect 12 0 7 0;
#X connect 13 0 12 0;
#X connect 14 0 13 1;
#X connect 15 0 2 0;
#X connect 16 0 1 0;
#X connect 16 1 15 0;
#X connect 16 2 14 0;
#X connect 17 0 16 0;
#X connect 18 0 11 0;
#X restore 537 427 pd makenote;
#X obj 528 379 bng 15 250 50 0 empty empty empty 17 7 0 10 #fcfcfc
#000000 #000000;
#X msg 688 379 /note \$1;
#X floatatom 685 355 5 0 0 0 - - - 0;
#X floatatom 764 354 5 0 0 0 - - - 0;
#X msg 763 379 /velocity \$1;
#X floatatom 863 354 5 0 0 0 - - - 0;
#X msg 866 378 /duration \$1;
#X obj 526 276 tgl 15 0 empty empty empty 17 7 0 10 #fcfcfc #000000
#000000 0 1;
#X obj 533 333 t b b;
#N canvas 454 85 1342 919 scales 0;
#X obj 259 219 ftom;
#X floatatom 259 161 15 0 0 0 - - - 0;
#X obj 209 457 / 12;
#X obj 209 479 - 1;
#X floatatom 209 501 5 0 0 1 register - - 0;
#X floatatom 260 456 5 0 0 1 midi_note - - 0;
#X obj 259 139 mtof;
#X obj 209 567 * 12;
#X obj 209 604 +;
#X floatatom 209 626 5 0 0 0 - - - 0;
#X obj 209 735 outlet;
#X obj 209 543 int;
#X obj 270 276 t f f;
#X obj 532 301 % 12;
#X floatatom 532 334 5 0 0 0 pitch_class - - 0;
#X obj 532 355 select 0 1 2 3 4 5 6 7 8 9 10 11, f 55;
#X obj 533 414 int;
#X obj 561 414 int;
#X obj 587 414 int;
#X obj 615 414 int;
#X obj 641 414 int;
#X obj 669 414 int;
#X obj 695 414 int;
#X obj 723 414 int;
#X obj 750 414 int;
#X obj 778 414 int;
#X obj 805 413 int;
#X obj 833 411 int;
#X floatatom 661 452 5 0 0 0 mapped_pitch - - 0;
#X obj 656 308 unpack 0 0 0 0 0 0 0 0 0 0 0 0;
#X msg 632 50 0 1 2 3 4 5 6 7 8 9 10 11;
#X obj 259 4 inlet;
#X text 849 45 chromatic;
#X msg 629 74 0 0 2 2 4 4 6 6 8 8 10 10;
#X text 865 73 whole-tone;
#X msg 1101 523 0 0 0 3 3 3 6 6 6 9 9 9;
#X text 1297 522 diminshed 7th chord;
#X msg 1100 550 0 0 0 0 4 4 4 4 8 8 8 8;
#X text 1276 552 augmented chord;
#X msg 1102 578 0 0 0 0 0 0 6 6 6 6 6 6;
#X text 1282 576 tritone;
#X msg 1093 54 0 0 2 2 4 4 5 5 7 7 9 11;
#X text 1286 48 Ionian;
#X text 1284 75 Dorian;
#X msg 1091 83 0 0 2 2 3 3 5 5 7 7 8 10;
#X msg 1093 131 0 0 1 1 3 3 5 5 7 7 8 10;
#X text 1288 130 Phrygian;
#X text 1280 158 Lydian;
#X msg 1090 174 0 0 2 2 4 4 6 6 7 7 9 11;
#X msg 1093 224 0 0 2 2 4 4 5 5 7 7 9 10;
#X msg 1090 258 0 0 2 2 3 3 5 5 7 7 8 10;
#X text 1294 219 Mixolydian;
#X text 1290 256 Aeolian;
#X msg 1087 296 0 0 1 1 3 3 5 5 6 6 8 10;
#X text 1295 292 Locrian;
#X msg 702 32 0 0 2 2 2 4 4 4 7 7 9 9;
#X text 935 32 major pentatonic;
#X msg 626 98 0 0 3 3 5 5 6 6 7 7 10 10;
#X text 839 91 blues;
#X msg 1097 495 0 0 2 2 4 4 6 6 7 7 9 9;
#X text 1290 494 acoustic;
#X text 838 135 major;
#X text 854 154 minor;
#X msg 624 140 0 2 2 4 4 5 5 7 7 9 9 11;
#X msg 625 162 0 2 2 3 3 5 5 7 7 8 8 10;
#X obj 528 1 inlet;
#X obj 528 27 route /scale;
#X obj 504 100 print;
#X obj 690 4 loadbang;
#X connect 0 0 5 0;
#X connect 0 0 12 0;
#X connect 1 0 0 0;
#X connect 2 0 3 0;
#X connect 3 0 4 0;
#X connect 4 0 11 0;
#X connect 6 0 1 0;
#X connect 7 0 8 0;
#X connect 8 0 9 0;
#X connect 9 0 10 0;
#X connect 11 0 7 0;
#X connect 12 0 2 0;
#X connect 12 1 13 0;
#X connect 13 0 14 0;
#X connect 14 0 15 0;
#X connect 15 0 16 0;
#X connect 15 1 17 0;
#X connect 15 2 18 0;
#X connect 15 3 19 0;
#X connect 15 4 20 0;
#X connect 15 5 21 0;
#X connect 15 6 22 0;
#X connect 15 7 23 0;
#X connect 15 8 24 0;
#X connect 15 9 25 0;
#X connect 15 10 26 0;
#X connect 15 11 27 0;
#X connect 16 0 28 0;
#X connect 17 0 28 0;
#X connect 18 0 28 0;
#X connect 19 0 28 0;
#X connect 20 0 28 0;
#X connect 21 0 28 0;
#X connect 22 0 28 0;
#X connect 23 0 28 0;
#X connect 24 0 28 0;
#X connect 25 0 28 0;
#X connect 26 0 28 0;
#X connect 27 0 28 0;
#X connect 28 0 8 1;
#X connect 29 0 16 1;
#X connect 29 1 17 1;
#X connect 29 2 18 1;
#X connect 29 3 19 1;
#X connect 29 4 20 1;
#X connect 29 5 21 1;
#X connect 29 6 22 1;
#X connect 29 7 23 1;
#X connect 29 8 24 1;
#X connect 29 9 25 1;
#X connect 29 10 26 1;
#X connect 29 11 27 1;
#X connect 30 0 29 0;
#X connect 31 0 6 0;
#X connect 33 0 29 0;
#X connect 35 0 29 0;
#X connect 37 0 29 0;
#X connect 39 0 29 0;
#X connect 41 0 29 0;
#X connect 44 0 29 0;
#X connect 45 0 29 0;
#X connect 48 0 29 0;
#X connect 49 0 29 0;
#X connect 50 0 29 0;
#X connect 53 0 29 0;
#X connect 55 0 29 0;
#X connect 57 0 29 0;
#X connect 59 0 29 0;
#X connect 63 0 29 0;
#X connect 64 0 29 0;
#X connect 65 0 66 0;
#X connect 66 0 29 0;
#X connect 66 0 67 0;
#X connect 68 0 55 0;
#X restore 683 328 pd scales;
#X obj 684 223 f 1;
#X obj 722 221 + 1;
#X floatatom 683 248 5 0 0 0 - - - 0;
#X obj 683 281 mod 36;
#X obj 683 305 + 60;
#X obj 526 301 metro 250;
#X obj 46 543 declare -path vstplugin~;
#X text 42 608 Free Noise Engineering plugins!;
#X msg 41 634 browse https://noiseengineering.us/collections/software
;
#X text 31 391 Important notes: in Audio Settings \, set block size
to 256 You will probably get glitchy audio if the VST gui is in view
(hide it to stop the glitches) On Mac you can find your installed plugins
usually under your hard drive > Library > Audio > Plug-Ins > VST (or
VST3);
#X obj 256 204 vstplugin~;
#X msg 196 23 open -e Virt\ Vereor.vst3;
#X msg 197 50 open -e Sinc\ Vereor.vst3;
#X text 1039 279 ~/Library/Audio/Plug-Ins/VST /Library/Audio/Plug-Ins/VST
, f 33;
#X text 1040 129 %ProgramFiles%/VSTPlugins %ProgramFiles%/Steinberg/VSTPlugins
%ProgramFiles%/Common Files/VST2 %ProgramFiles%/Common Files/Steinberg/VST2
, f 43;
#X obj 974 100 cnv 15 60 20 empty empty empty 20 12 0 14 #f8fc00 #404040
0;
#X obj 972 249 cnv 15 60 20 empty empty empty 20 12 0 14 #f8fc00 #404040
0;
#X text 978 103 Windows:;
#X text 976 252 macOS:;
#X text 989 212 NOTE: "%ProgramFiles%" refers to either "Program Files"
(64-bit) or "Program Files (x86)" (32-bit), f 56;
#X obj 992 128 cnv 15 40 20 empty empty empty 20 12 0 14 #e0e0e0 #404040
0;
#X text 995 131 VST2:;
#X obj 991 182 cnv 15 40 20 empty empty empty 20 12 0 14 #e0e0e0 #404040
0;
#X text 994 185 VST3:;
#X text 1042 185 %ProgramFiles%Common FilesVST3;
#X obj 991 280 cnv 15 40 20 empty empty empty 20 12 0 14 #e0e0e0 #404040
0;
#X text 994 283 VST2:;
#X obj 990 315 cnv 15 40 20 empty empty empty 20 12 0 14 #e0e0e0 #404040
0;
#X text 993 318 VST3:;
#X text 1040 314 ~/Library/Audio/Plug-Ins/VST3 /Library/Audio/Plug-Ins/VST3
, f 33;
#N canvas 101 355 513 414 message-out 0;
#X obj 20 17 inlet;
#X obj 20 63 s \$0-program-data;
#X obj 20 40 route program_data bank_data, f 39;
#X obj 135 63 s \$0-bank-data;
#X obj 278 135 print;
#X obj 278 114 spigot 1;
#X obj 337 114 tgl 15 0 empty empty empty 17 7 0 10 #fcfcfc #000000
#000000 0 1;
#X text 358 113 print messages;
#X obj 251 86 s \$0-out;
#X obj 251 63 t a a;
#X msg 28 178 param_automated <index> <value>;
#X msg 28 204 latency <numsamples>;
#X msg 30 257 midi <bytes...>;
#X msg 29 284 sysex <bytes...>;
#X text 233 172 a parameter has been changed in the GUI (or by changing
a linked parameter)., f 40;
#X text 162 204 the plugin's internal processing latency has changed
;
#X text 139 257 a MIDI message sent by the plugin;
#X text 139 284 a SysEx message sent by the plugin;
#X text 28 153 events:;
#X text 163 222 NOTE: the value includes the additional latency caused
by multithreading (see the "-t" flag for "open"), f 55;
#X msg 29 337 crash;
#X text 312 85 goes to vstpresetbrowser;
#X text 23 87 see [pd preset];
#X text 83 338 the plugin subprocess has crashed.;
#X text 84 356 This is only sent for bridged or sandboxed plugins \,
because normal plugins would simply crash Pd., f 52;
#X msg 29 311 update;
#X text 87 312 multiple parameters have changed internally;
#X connect 0 0 2 0;
#X connect 2 0 1 0;
#X connect 2 1 3 0;
#X connect 2 2 9 0;
#X connect 5 0 4 0;
#X connect 6 0 5 1;
#X connect 9 0 8 0;
#X connect 9 1 5 0;
#X restore 344 236 pd message-out;
#X msg 21 209 param_list;
#X msg 23 184 param_dump;
#X obj 30 258 tgl 15 0 empty empty empty 17 7 0 10 #fcfcfc #000000
#000000 0 1;
#X msg 30 294 param_set 117 \$1 \$1;
#X text 55 257 randomize Virt;
#X obj 28 323 tgl 15 0 empty empty empty 17 7 0 10 #fcfcfc #000000
#000000 0 1;
#X text 53 322 randomize Sinc;
#X msg 28 359 param_set 115 \$1 \$1;
#X connect 0 0 2 0;
#X connect 1 0 2 1;
#X connect 3 0 4 0;
#X connect 4 0 5 0;
#X connect 5 0 37 0;
#X connect 6 0 37 0;
#X connect 7 0 37 0;
#X connect 8 0 7 0;
#X connect 9 0 37 0;
#X connect 10 0 37 0;
#X connect 11 0 37 0;
#X connect 13 0 37 0;
#X connect 16 0 37 0;
#X connect 17 0 16 0;
#X connect 18 0 16 1;
#X connect 19 0 18 0;
#X connect 20 0 21 0;
#X connect 21 0 16 1;
#X connect 22 0 23 0;
#X connect 23 0 16 1;
#X connect 24 0 32 0;
#X connect 25 0 17 0;
#X connect 25 1 27 0;
#X connect 26 0 19 0;
#X connect 27 0 28 0;
#X connect 27 0 29 0;
#X connect 28 0 27 1;
#X connect 29 0 30 0;
#X connect 30 0 31 0;
#X connect 31 0 26 0;
#X connect 32 0 25 0;
#X connect 35 0 12 0;
#X connect 37 0 0 0;
#X connect 37 1 1 0;
#X connect 37 2 57 0;
#X connect 38 0 37 0;
#X connect 39 0 37 0;
#X connect 58 0 37 0;
#X connect 59 0 37 0;
#X connect 60 0 61 0;
#X connect 61 0 37 0;
#X connect 63 0 65 0;
#X connect 65 0 37 0;
