#N canvas 949 88 1444 695 12;
#X declare -path vstplugin~;
#X obj 318 287 *~ 0.5;
#X obj 378 285 *~ 0.5;
#X obj 343 339 dac~;
#X obj 79 9 bng 15 250 50 0 empty empty empty 17 7 0 10 #fcfcfc #000000
#000000;
#X obj 79 29 openpanel;
#X msg 79 53 open -e \$1;
#X msg 57 100 close;
#X msg 445 55 vis \$1;
#X obj 445 35 tgl 15 0 empty empty empty 17 7 0 10 #fcfcfc #000000
#000000 0 1;
#X obj 41 661 pdcontrol;
#X obj 48 332 declare -path vstplugin~;
#X text 42 608 Free Noise Engineering plugins!;
#X msg 41 634 browse https://noiseengineering.us/collections/software
;
#X text 31 391 Important notes: in Audio Settings \, set block size
to 256 You will probably get glitchy audio if the VST gui is in view
(hide it to stop the glitches) On Mac you can find your installed plugins
usually under your hard drive > Library > Audio > Plug-Ins > VST (or
VST3);
#X obj 318 237 vstplugin~;
#X text 1039 279 ~/Library/Audio/Plug-Ins/VST /Library/Audio/Plug-Ins/VST
, f 33;
#X text 1040 129 %ProgramFiles%/VSTPlugins %ProgramFiles%/Steinberg/VSTPlugins
%ProgramFiles%/Common Files/VST2 %ProgramFiles%/Common Files/Steinberg/VST2
, f 43;
#X obj 974 100 cnv 15 60 20 empty empty empty 20 12 0 14 #f8fc00 #404040
0;
#X obj 972 249 cnv 15 60 20 empty empty empty 20 12 0 14 #f8fc00 #404040
0;
#X text 978 103 Windows:;
#X text 976 252 macOS:;
#X text 989 212 NOTE: "%ProgramFiles%" refers to either "Program Files"
(64-bit) or "Program Files (x86)" (32-bit), f 56;
#X obj 992 128 cnv 15 40 20 empty empty empty 20 12 0 14 #e0e0e0 #404040
0;
#X text 995 131 VST2:;
#X obj 991 182 cnv 15 40 20 empty empty empty 20 12 0 14 #e0e0e0 #404040
0;
#X text 994 185 VST3:;
#X text 1042 185 %ProgramFiles%Common FilesVST3;
#X obj 991 280 cnv 15 40 20 empty empty empty 20 12 0 14 #e0e0e0 #404040
0;
#X text 994 283 VST2:;
#X obj 990 315 cnv 15 40 20 empty empty empty 20 12 0 14 #e0e0e0 #404040
0;
#X text 993 318 VST3:;
#X text 1040 314 ~/Library/Audio/Plug-Ins/VST3 /Library/Audio/Plug-Ins/VST3
, f 33;
#X msg 196 23 open -e Ruina.vst3;
#X obj 567 55 openpanel;
#X msg 567 81 open \$1;
#X obj 567 32 bng 15 250 50 0 empty empty empty 17 7 0 10 #fcfcfc #000000
#000000;
#X msg 631 81 1;
#X msg 672 81 0;
#X obj 567 118 readsf~ 2;
#X msg 502 290 open ./For-better-or-for-worse_jukebox-14983_001_00-00-39.wav
\, 1;
#X obj 562 237 spigot;
#X obj 628 200 tgl 15 0 empty empty empty 17 7 0 10 #fcfcfc #000000
#000000 0 1;
#X text 660 196 loop;
#X msg 21 209 param_list;
#N canvas 101 355 513 414 message-out 0;
#X obj 20 17 inlet;
#X obj 20 63 s \$0-program-data;
#X obj 20 40 route program_data bank_data, f 39;
#X obj 135 63 s \$0-bank-data;
#X obj 278 135 print;
#X obj 278 114 spigot 1;
#X obj 337 114 tgl 15 0 empty empty empty 17 7 0 10 #fcfcfc #000000
#000000 0 1;
#X text 358 113 print messages;
#X obj 251 86 s \$0-out;
#X obj 251 63 t a a;
#X msg 28 178 param_automated <index> <value>;
#X msg 28 204 latency <numsamples>;
#X msg 30 257 midi <bytes...>;
#X msg 29 284 sysex <bytes...>;
#X text 233 172 a parameter has been changed in the GUI (or by changing
a linked parameter)., f 40;
#X text 162 204 the plugin's internal processing latency has changed
;
#X text 139 257 a MIDI message sent by the plugin;
#X text 139 284 a SysEx message sent by the plugin;
#X text 28 153 events:;
#X text 163 222 NOTE: the value includes the additional latency caused
by multithreading (see the "-t" flag for "open"), f 55;
#X msg 29 337 crash;
#X text 312 85 goes to vstpresetbrowser;
#X text 23 87 see [pd preset];
#X text 83 338 the plugin subprocess has crashed.;
#X text 84 356 This is only sent for bridged or sandboxed plugins \,
because normal plugins would simply crash Pd., f 52;
#X msg 29 311 update;
#X text 87 312 multiple parameters have changed internally;
#X connect 0 0 2 0;
#X connect 2 0 1 0;
#X connect 2 1 3 0;
#X connect 2 2 9 0;
#X connect 5 0 4 0;
#X connect 6 0 5 1;
#X connect 9 0 8 0;
#X connect 9 1 5 0;
#X restore 423 264 pd message-out;
#X msg 23 159 param_set 1 \$1;
#X floatatom 22 131 5 0 0 0 - - - 0;
#X msg 23 184 param_dump;
#X msg 30 294 param_set 85 \$1 \$1;
#X obj 30 258 tgl 15 0 empty empty empty 17 7 0 10 #fcfcfc #000000
#000000 0 1;
#X text 55 257 randomize Ruina;
#X connect 0 0 2 0;
#X connect 1 0 2 1;
#X connect 3 0 4 0;
#X connect 4 0 5 0;
#X connect 5 0 14 0;
#X connect 6 0 14 0;
#X connect 7 0 14 0;
#X connect 8 0 7 0;
#X connect 12 0 9 0;
#X connect 14 0 0 0;
#X connect 14 1 1 0;
#X connect 14 2 44 0;
#X connect 32 0 14 0;
#X connect 33 0 34 0;
#X connect 34 0 38 0;
#X connect 35 0 33 0;
#X connect 36 0 38 0;
#X connect 37 0 38 0;
#X connect 38 0 14 0;
#X connect 38 1 14 1;
#X connect 38 2 40 0;
#X connect 39 0 38 0;
#X connect 40 0 39 0;
#X connect 41 0 40 1;
#X connect 43 0 14 0;
#X connect 45 0 14 0;
#X connect 46 0 45 0;
#X connect 47 0 14 0;
#X connect 48 0 14 0;
#X connect 49 0 48 0;
