#N canvas 428 159 1444 695 12;
#N canvas 674 529 1287 754 makenote 0;
#X floatatom 579 156 5 0 0 0 - - - 0;
#X floatatom 536 366 5 0 0 0 - - - 0;
#X obj 416 91 bng 15 250 50 0 empty empty empty 17 7 0 10 #fcfcfc #000000
#000000;
#X obj 619 304 bng 15 250 50 0 empty empty empty 17 7 0 10 #fcfcfc
#000000 #000000;
#X obj 619 278 delay 100;
#X floatatom 713 161 5 0 0 0 - - - 0;
#X floatatom 651 158 5 0 0 0 - - - 0;
#X obj 594 84 route /note /velocity /duration;
#X obj 605 42 inlet;
#X obj 380 50 inlet;
#X obj 458 517 outlet;
#X obj 446 342 f;
#X obj 448 390 pack 80 127;
#X obj 626 389 pack 1 0;
#X msg 667 352 0;
#X connect 0 0 11 1;
#X connect 1 0 12 1;
#X connect 2 0 4 0;
#X connect 2 0 11 0;
#X connect 3 0 14 0;
#X connect 4 0 3 0;
#X connect 5 0 4 1;
#X connect 6 0 1 0;
#X connect 7 0 0 0;
#X connect 7 1 6 0;
#X connect 7 2 5 0;
#X connect 8 0 7 0;
#X connect 9 0 2 0;
#X connect 11 0 12 0;
#X connect 11 0 13 0;
#X connect 12 0 10 0;
#X connect 13 0 10 0;
#X connect 14 0 13 1;
#X restore 172 256 pd makenote;
#X obj 163 208 bng 15 250 50 0 empty empty empty 17 7 0 10 #fcfcfc
#000000 #000000;
#X msg 323 208 /note \$1;
#X floatatom 320 184 5 0 0 0 - - - 0;
#X floatatom 399 183 5 0 0 0 - - - 0;
#X msg 398 208 /velocity \$1;
#X floatatom 498 183 5 0 0 0 - - - 0;
#X msg 501 207 /duration \$1;
#X obj 161 105 tgl 15 0 empty empty empty 17 7 0 10 #fcfcfc #000000
#000000 0 1;
#X obj 168 162 t b b;
#N canvas 454 85 1342 919 scales 0;
#X obj 259 219 ftom;
#X floatatom 259 161 15 0 0 0 - - - 0;
#X obj 209 457 / 12;
#X obj 209 479 - 1;
#X floatatom 209 501 5 0 0 1 register - - 0;
#X floatatom 260 456 5 0 0 1 midi_note - - 0;
#X obj 259 139 mtof;
#X obj 209 567 * 12;
#X obj 209 604 +;
#X floatatom 209 626 5 0 0 0 - - - 0;
#X obj 209 735 outlet;
#X obj 209 543 int;
#X obj 270 276 t f f;
#X obj 532 301 % 12;
#X floatatom 532 334 5 0 0 0 pitch_class - - 0;
#X obj 532 355 select 0 1 2 3 4 5 6 7 8 9 10 11, f 55;
#X obj 533 414 int;
#X obj 561 414 int;
#X obj 587 414 int;
#X obj 615 414 int;
#X obj 641 414 int;
#X obj 669 414 int;
#X obj 695 414 int;
#X obj 723 414 int;
#X obj 750 414 int;
#X obj 778 414 int;
#X obj 805 413 int;
#X obj 833 411 int;
#X floatatom 661 452 5 0 0 0 mapped_pitch - - 0;
#X obj 656 308 unpack 0 0 0 0 0 0 0 0 0 0 0 0;
#X msg 632 50 0 1 2 3 4 5 6 7 8 9 10 11;
#X obj 259 4 inlet;
#X text 849 45 chromatic;
#X msg 629 74 0 0 2 2 4 4 6 6 8 8 10 10;
#X text 865 73 whole-tone;
#X msg 1101 523 0 0 0 3 3 3 6 6 6 9 9 9;
#X text 1297 522 diminshed 7th chord;
#X msg 1100 550 0 0 0 0 4 4 4 4 8 8 8 8;
#X text 1276 552 augmented chord;
#X msg 1102 578 0 0 0 0 0 0 6 6 6 6 6 6;
#X text 1282 576 tritone;
#X msg 1093 54 0 0 2 2 4 4 5 5 7 7 9 11;
#X text 1286 48 Ionian;
#X text 1284 75 Dorian;
#X msg 1091 83 0 0 2 2 3 3 5 5 7 7 8 10;
#X msg 1093 131 0 0 1 1 3 3 5 5 7 7 8 10;
#X text 1288 130 Phrygian;
#X text 1280 158 Lydian;
#X msg 1090 174 0 0 2 2 4 4 6 6 7 7 9 11;
#X msg 1093 224 0 0 2 2 4 4 5 5 7 7 9 10;
#X msg 1090 258 0 0 2 2 3 3 5 5 7 7 8 10;
#X text 1294 219 Mixolydian;
#X text 1290 256 Aeolian;
#X msg 1087 296 0 0 1 1 3 3 5 5 6 6 8 10;
#X text 1295 292 Locrian;
#X msg 702 32 0 0 2 2 2 4 4 4 7 7 9 9;
#X text 935 32 major pentatonic;
#X msg 626 98 0 0 3 3 5 5 6 6 7 7 10 10;
#X text 839 91 blues;
#X msg 1097 495 0 0 2 2 4 4 6 6 7 7 9 9;
#X text 1290 494 acoustic;
#X text 838 135 major;
#X text 854 154 minor;
#X msg 624 140 0 2 2 4 4 5 5 7 7 9 9 11;
#X msg 625 162 0 2 2 3 3 5 5 7 7 8 8 10;
#X obj 528 1 inlet;
#X obj 528 27 route /scale;
#X obj 504 100 print;
#X obj 690 4 loadbang;
#X connect 0 0 5 0;
#X connect 0 0 12 0;
#X connect 1 0 0 0;
#X connect 2 0 3 0;
#X connect 3 0 4 0;
#X connect 4 0 11 0;
#X connect 6 0 1 0;
#X connect 7 0 8 0;
#X connect 8 0 9 0;
#X connect 9 0 10 0;
#X connect 11 0 7 0;
#X connect 12 0 2 0;
#X connect 12 1 13 0;
#X connect 13 0 14 0;
#X connect 14 0 15 0;
#X connect 15 0 16 0;
#X connect 15 1 17 0;
#X connect 15 2 18 0;
#X connect 15 3 19 0;
#X connect 15 4 20 0;
#X connect 15 5 21 0;
#X connect 15 6 22 0;
#X connect 15 7 23 0;
#X connect 15 8 24 0;
#X connect 15 9 25 0;
#X connect 15 10 26 0;
#X connect 15 11 27 0;
#X connect 16 0 28 0;
#X connect 17 0 28 0;
#X connect 18 0 28 0;
#X connect 19 0 28 0;
#X connect 20 0 28 0;
#X connect 21 0 28 0;
#X connect 22 0 28 0;
#X connect 23 0 28 0;
#X connect 24 0 28 0;
#X connect 25 0 28 0;
#X connect 26 0 28 0;
#X connect 27 0 28 0;
#X connect 28 0 8 1;
#X connect 29 0 16 1;
#X connect 29 1 17 1;
#X connect 29 2 18 1;
#X connect 29 3 19 1;
#X connect 29 4 20 1;
#X connect 29 5 21 1;
#X connect 29 6 22 1;
#X connect 29 7 23 1;
#X connect 29 8 24 1;
#X connect 29 9 25 1;
#X connect 29 10 26 1;
#X connect 29 11 27 1;
#X connect 30 0 29 0;
#X connect 31 0 6 0;
#X connect 33 0 29 0;
#X connect 35 0 29 0;
#X connect 37 0 29 0;
#X connect 39 0 29 0;
#X connect 41 0 29 0;
#X connect 44 0 29 0;
#X connect 45 0 29 0;
#X connect 48 0 29 0;
#X connect 49 0 29 0;
#X connect 50 0 29 0;
#X connect 53 0 29 0;
#X connect 55 0 29 0;
#X connect 57 0 29 0;
#X connect 59 0 29 0;
#X connect 63 0 29 0;
#X connect 64 0 29 0;
#X connect 65 0 66 0;
#X connect 66 0 29 0;
#X connect 66 0 67 0;
#X connect 68 0 55 0;
#X restore 318 157 pd scales;
#X obj 319 52 f 1;
#X obj 357 50 + 1;
#X floatatom 318 77 5 0 0 0 - - - 0;
#X obj 318 110 mod 36;
#X obj 318 134 + 60;
#X obj 161 130 metro 250;
#X text 599 389 On a Mac \, you'll need to turn on the IAC Driver in
your AudioMIDI application (under Utilities) \, then select this as
the output device in MIDI Settings in Pd;
#X obj 370 435 noteout;
#X obj 365 385 unpack;
#X text 830 68 note on;
#X text 836 98 note off;
#X floatatom 859 246 5 0 0 0 - - - 0;
#X floatatom 804 213 5 0 0 0 - - - 0;
#X msg 750 169 60;
#X text 900 246 duration in milliseconds;
#X text 875 274 creation arguments initialize velocity and duration
, f 29;
#X floatatom 750 314 5 0 0 0 - - - 0;
#X floatatom 859 314 5 0 0 0 - - - 0;
#X obj 750 279 makenote 100 500;
#X msg 774 72 59 127;
#X msg 776 100 50 0;
#X text 597 457 then in the application you want to send MIDI to ---
make sure the IAC Driver is selected as the input device for MIDI;
#X connect 0 0 19 0;
#X connect 1 0 0 0;
#X connect 2 0 0 1;
#X connect 3 0 2 0;
#X connect 4 0 5 0;
#X connect 5 0 0 1;
#X connect 6 0 7 0;
#X connect 7 0 0 1;
#X connect 8 0 16 0;
#X connect 9 0 1 0;
#X connect 9 1 11 0;
#X connect 10 0 3 0;
#X connect 11 0 12 0;
#X connect 11 0 13 0;
#X connect 12 0 11 1;
#X connect 13 0 14 0;
#X connect 14 0 15 0;
#X connect 15 0 10 0;
#X connect 16 0 9 0;
#X connect 19 0 18 0;
#X connect 19 1 18 1;
#X connect 22 0 29 2;
#X connect 23 0 29 1;
#X connect 24 0 29 0;
#X connect 27 0 18 0;
#X connect 28 0 18 1;
#X connect 29 0 27 0;
#X connect 29 1 28 0;
#X connect 30 0 19 0;
#X connect 31 0 19 0;
