#N canvas 539 39 1249 657 10;
#X msg 53 169 close;
#X obj 45 8 cnv 15 440 60 empty empty empty 20 12 0 14 #c0d828 #404040
0;
#X msg 44 142 devices;
#X floatatom 104 150 5 0 0 0 - - - 0;
#X msg 104 169 open \$1;
#X obj 44 256 s;
#X obj 44 234 serial_print any;
#X text 46 88 Requires [comport] object \; install under Help > Find
Externals, f 72;
#X text 52 16 [serial_print]: abstraction that works with Arduinos'
Serial.print() and Serial.println() functions (with the use of [comport]).
It was written by Alexandros Drymonitis. \; See https://github.com/alexdrymonitis/Arduino_Pd
;
#X floatatom 268 221 5 0 0 0 - - - 0;
#X obj 268 148 r proximity:;
#X floatatom 360 221 5 0 0 0 - - - 0;
#X floatatom 471 222 5 0 0 0 - - - 0;
#X obj 44 210 comport 1 9600;
#X obj 360 148 r ambient:;
#X obj 471 149 r raw:;
#X floatatom 563 222 5 0 0 0 - - - 0;
#X obj 563 149 r distance:;
#X floatatom 818 151 5 0 0 0 - - - 0;
#X obj 818 111 ctlin 1 2;
#X floatatom 821 420 5 0 0 0 - - - 0;
#X obj 821 380 ctlin 51 2;
#X obj 821 451 / 127;
#X obj 821 485 tgl 15 0 empty empty empty 17 7 0 10 #fcfcfc #000000
#000000 0 1;
#X obj 818 178 / 127;
#X obj 818 247 line;
#X obj 821 280 hsl 128 15 0 1 0 0 empty empty empty -2 -8 0 10 #fcfcfc
#000000 #000000 0 1;
#X msg 818 205 \$1 100;
#X floatatom 962 150 5 0 0 0 - - - 0;
#X obj 962 177 / 127;
#X obj 962 246 line;
#X obj 965 279 hsl 128 15 0 1 0 0 empty empty empty -2 -8 0 10 #fcfcfc
#000000 #000000 0 1;
#X msg 962 204 \$1 100;
#X floatatom 1109 149 5 0 0 0 - - - 0;
#X obj 1109 176 / 127;
#X obj 1109 245 line;
#X obj 1112 278 hsl 128 15 0 1 0 0 empty empty empty -2 -8 0 10 #fcfcfc
#000000 #000000 0 1;
#X msg 1109 203 \$1 100;
#X obj 962 110 ctlin 2 2;
#X obj 1109 109 ctlin 3 2;
#X connect 0 0 13 0;
#X connect 2 0 13 0;
#X connect 3 0 4 0;
#X connect 4 0 13 0;
#X connect 6 0 5 0;
#X connect 6 1 5 1;
#X connect 10 0 9 0;
#X connect 13 0 6 0;
#X connect 14 0 11 0;
#X connect 15 0 12 0;
#X connect 17 0 16 0;
#X connect 18 0 24 0;
#X connect 19 0 18 0;
#X connect 20 0 22 0;
#X connect 21 0 20 0;
#X connect 22 0 23 0;
#X connect 24 0 27 0;
#X connect 25 0 26 0;
#X connect 27 0 25 0;
#X connect 28 0 29 0;
#X connect 29 0 32 0;
#X connect 30 0 31 0;
#X connect 32 0 30 0;
#X connect 33 0 34 0;
#X connect 34 0 37 0;
#X connect 35 0 36 0;
#X connect 37 0 35 0;
#X connect 38 0 28 0;
#X connect 39 0 33 0;
