#N canvas 580 84 877 598 12;
#X obj 319 389 dac~;
#X obj 321 326 *~ 0.5;
#N canvas 0 22 450 278 (subpatch) 0;
#X array soundfile 352806 float 2;
#X coords 0 1 352806 -1 200 140 1;
#X restore 549 290 graph;
#X obj 321 291 tabread4~ soundfile;
#X obj 505 203 line~;
#X obj 33 36 openpanel;
#X obj 33 8 bng 15 250 50 0 empty empty empty 17 7 0 10 -262144 -1
-1;
#X obj 33 97 soundfiler;
#X msg 33 66 read -resize \$1 soundfile;
#X floatatom 33 128 15 0 0 0 - - -;
#X obj 34 168 / 44100;
#X floatatom 34 201 5 0 0 0 - - -;
#X obj 32 237 * 1000;
#X floatatom 33 271 15 0 0 0 - - -;
#X msg 505 174 0 \, 352806 8000.14;
#X obj 505 234 *~;
#X obj 556 204 tgl 15 0 empty empty empty 17 7 0 10 -262144 -1 -1 0
1;
#X obj 323 227 *~;
#X obj 374 197 tgl 15 0 empty empty empty 17 7 0 10 -262144 -1 -1 0
1;
#X obj 338 113 phasor~;
#X obj 588 71 snapshot~;
#X floatatom 586 99 5 0 0 0 - - -;
#X obj 588 33 metro 20;
#X obj 587 8 tgl 15 0 empty empty empty 17 7 0 10 -262144 -1 -1 1 1
;
#X floatatom 307 23 5 0 0 0 - - -;
#X obj 589 127 hsl 128 15 0 1 0 0 empty empty empty -2 -8 0 10 -262144
-1 -1 2300 1;
#X obj 327 161 *~ 352806;
#X obj 43 362 / 352806;
#X floatatom 46 398 15 0 0 0 - - -;
#X msg 49 323 44100;
#X obj 336 70 * 1;
#X floatatom 381 9 5 0 0 0 - - -;
#X obj 384 38 t b f;
#X connect 1 0 0 0;
#X connect 1 0 0 1;
#X connect 3 0 1 0;
#X connect 4 0 15 0;
#X connect 5 0 8 0;
#X connect 6 0 5 0;
#X connect 7 0 9 0;
#X connect 8 0 7 0;
#X connect 9 0 10 0;
#X connect 10 0 11 0;
#X connect 11 0 12 0;
#X connect 12 0 13 0;
#X connect 14 0 4 0;
#X connect 15 0 3 0;
#X connect 16 0 15 1;
#X connect 17 0 3 0;
#X connect 18 0 17 1;
#X connect 19 0 20 0;
#X connect 19 0 26 0;
#X connect 20 0 21 0;
#X connect 21 0 25 0;
#X connect 22 0 20 0;
#X connect 23 0 22 0;
#X connect 24 0 30 0;
#X connect 26 0 17 0;
#X connect 27 0 28 0;
#X connect 28 0 24 0;
#X connect 29 0 27 0;
#X connect 30 0 19 0;
#X connect 31 0 32 0;
#X connect 32 0 24 0;
#X connect 32 1 30 1;
