#N canvas 540 51 923 696 12;
#X obj 218 549 dac~;
#X obj 221 511 *~ 0.5;
#N canvas 0 22 450 278 (subpatch) 0;
#X array \$0-sample 6839 float 2;
#X coords 0 1 6839 -1 200 140 1;
#X restore 682 49 graph;
#X obj 462 213 soundfiler;
#X obj 462 95 openpanel;
#X obj 462 29 bng 15 250 50 0 empty empty empty 17 7 0 10 -262144 -1
-1;
#X obj 462 60 t b b;
#X obj 539 93 symbol \$0-sample;
#X obj 686 539 f \$0;
#X obj 688 508 bng 15 250 50 0 empty empty empty 17 7 0 10 -262144
-1 -1;
#X floatatom 694 585 5 0 0 0 - - -;
#X obj 462 146 pack s s;
#X msg 462 180 read -resize \$1 \$2;
#X obj 114 185 tabplay~ \$0-sample;
#X msg 115 138 0;
#X obj 138 88 metro 500;
#X obj 158 36 tgl 15 0 empty empty empty 17 7 0 10 -262144 -1 -1 0
1;
#X obj 239 342 delread4~ \$0-delay;
#X obj 355 607 delwrite~ \$0-delay 5000;
#X obj 204 414 +~;
#X obj 242 311 line~;
#X obj 242 287 pack f 1000;
#X floatatom 241 259 5 0 0 0 - - -;
#X floatatom 313 257 5 0 0 0 - - -;
#X obj 354 579 clip~ -1 1;
#X obj 353 552 *~;
#X obj 385 525 line~;
#X obj 386 497 pack f 50;
#X obj 381 465 * 0.01;
#X floatatom 378 438 5 0 0 0 - - -;
#X obj 377 412 hsl 128 15 0 98 0 0 empty empty empty -2 -8 0 10 -262144
-1 -1 5300 1;
#X floatatom 487 500 5 0 0 0 - - -;
#X text 549 24 load sample;
#X text 171 127 sample playback;
#X text 361 298 delay time;
#X text 531 451 delay feedback;
#X connect 1 0 0 0;
#X connect 1 0 0 1;
#X connect 4 0 11 0;
#X connect 5 0 6 0;
#X connect 6 0 4 0;
#X connect 6 1 7 0;
#X connect 7 0 11 1;
#X connect 8 0 10 0;
#X connect 9 0 8 0;
#X connect 11 0 12 0;
#X connect 12 0 3 0;
#X connect 13 0 19 0;
#X connect 14 0 13 0;
#X connect 15 0 14 0;
#X connect 16 0 15 0;
#X connect 17 0 19 1;
#X connect 19 0 1 0;
#X connect 19 0 25 0;
#X connect 20 0 17 0;
#X connect 21 0 20 0;
#X connect 22 0 21 0;
#X connect 23 0 21 1;
#X connect 24 0 18 0;
#X connect 25 0 24 0;
#X connect 26 0 25 1;
#X connect 27 0 26 0;
#X connect 28 0 27 0;
#X connect 28 0 31 0;
#X connect 29 0 28 0;
#X connect 30 0 29 0;
