#N canvas 440 64 1033 735 10;
#X msg 53 169 close;
#X obj 45 8 cnv 15 440 60 empty empty empty 20 12 0 14 -200075 -66577
0;
#X msg 44 142 devices;
#X obj 44 256 s;
#X obj 44 234 serial_print any;
#X text 46 88 Requires [comport] object \; install under Help > Find
Externals, f 72;
#X text 52 16 [serial_print]: abstraction that works with Arduinos'
Serial.print() and Serial.println() functions (with the use of [comport]).
It was written by Alexandros Drymonitis. \; See https://github.com/alexdrymonitis/Arduino_Pd
;
#X floatatom 319 259 5 0 0 0 - - -;
#X symbolatom 137 255 20 0 0 0 - - -;
#X obj 44 212 comport 1 9600;
#X msg 104 169 open 1;
#X obj 321 311 > 550;
#X obj 307 369 tgl 15 0 empty empty empty 17 7 0 10 -262144 -1 -1 0
1;
#X floatatom 381 273 5 0 0 0 - - -;
#X obj 312 403 select 1;
#X obj 316 342 change;
#N canvas 0 22 450 278 (subpatch) 0;
#X array myograph 100 float 1;
#A 0 23 24 24 23 24 24 23 23 23 23 24 24 24 23 23 24 23 23 23 24 24
23 23 23 23 23 23 24 24 24 23 23 23 23 24 23 23 23 24 23 24 23 24 24
24 24 24 25 24 25 24 24 25 24 24 24 25 23 25 24 24 24 25 24 23 23 23
23 23 24 24 24 24 23 24 24 24 23 23 24 24 23 24 23 23 23 22 24 24 24
23 24 24 23 23 23 23 23 24 23;
#X coords 0 1024 99 0 200 140 1 0 0;
#X restore 653 451 graph;
#X obj 721 272 metro 50;
#X obj 721 243 tgl 15 0 empty empty empty 17 7 0 10 -262144 -1 -1 1
1;
#X obj 767 306 + 1;
#X obj 724 306 f 0;
#X obj 725 337 mod 100;
#X obj 319 186 r Myo:;
#X obj 309 439 bng 15 250 50 0 empty empty empty 17 7 0 10 -262144
-1 -1;
#X text 413 273 set threshold to detect flex;
#X obj 642 388 tabwrite myograph;
#X text 745 239 graph;
#X connect 0 0 9 0;
#X connect 2 0 9 0;
#X connect 4 0 3 0;
#X connect 4 1 3 1;
#X connect 4 1 8 0;
#X connect 7 0 11 0;
#X connect 7 0 25 0;
#X connect 9 0 4 0;
#X connect 10 0 9 0;
#X connect 11 0 15 0;
#X connect 12 0 14 0;
#X connect 13 0 11 1;
#X connect 14 0 23 0;
#X connect 15 0 12 0;
#X connect 17 0 20 0;
#X connect 18 0 17 0;
#X connect 19 0 20 1;
#X connect 20 0 19 0;
#X connect 20 0 21 0;
#X connect 21 0 25 1;
#X connect 22 0 7 0;
