#N canvas 165 23 1108 675 10;
#X obj 308 378 dac~;
#N canvas 0 22 450 300 (subpatch) 0;
#X array array_square1 100 float 0;
#X coords 0 1 99 -1 200 140 1 0 0;
#X restore 470 398 graph;
#X obj 793 181 tgl 30 0 empty empty empty 17 7 0 10 -262144 -1 -1 1
1;
#X text 833 182 <- graph;
#X msg 308 475 \; pd dsp \$1;
#X obj 308 427 tgl 30 0 empty empty empty 17 7 0 10 -262144 -1 -1 1
1;
#X obj 533 337 tabwrite~ array_square1;
#X text 98 20 SQUARE WAVE WITH expr~;
#X obj 308 197 ps.square~;
#X obj 308 127 pack f 200;
#X obj 308 165 line~;
#X floatatom 308 86 5 0 0 0 - - -;
#X msg 341 290 0.2;
#X msg 370 290 0;
#X obj 308 313 *~ 0;
#X obj 446 269 *~ 0.75;
#X text 386 197 using an abstraction (Pd patch in same folder);
#X obj 793 218 metro 100;
#X connect 2 0 17 0;
#X connect 5 0 4 0;
#X connect 8 0 14 0;
#X connect 8 0 15 0;
#X connect 9 0 10 0;
#X connect 10 0 8 0;
#X connect 11 0 9 0;
#X connect 12 0 14 1;
#X connect 13 0 14 1;
#X connect 14 0 0 0;
#X connect 14 0 0 1;
#X connect 15 0 6 0;
#X connect 17 0 6 0;
