#N canvas 0 23 1276 685 10;
#X obj 274 365 dac~;
#N canvas 0 22 450 300 (subpatch) 0;
#X array array_tri1 100 float 0;
#X coords 0 1 99 -1 200 140 1 0 0;
#X restore 614 394 graph;
#X obj 740 232 tgl 30 0 empty empty empty 17 7 0 10 -262144 -1 -1 1
1;
#X text 781 236 <- graph;
#X msg 274 500 \; pd dsp \$1;
#X obj 274 452 tgl 30 0 empty empty empty 17 7 0 10 -262144 -1 -1 1
1;
#X obj 515 321 tabwrite~ array_tri1;
#X text 60 23 TRIANGLE WAVE with expr~;
#X obj 273 235 ps.tri~;
#X obj 274 301 *~ 0;
#X msg 327 277 0.2;
#X msg 361 277 0;
#X obj 273 146 pack f 200;
#X obj 273 196 line~;
#X floatatom 273 109 5 0 0 0 - - -;
#X text 333 236 using an abstraction (Pd patch in same folder);
#X obj 515 267 *~ 0.75;
#X obj 740 269 metro 100;
#X connect 2 0 17 0;
#X connect 5 0 4 0;
#X connect 8 0 9 0;
#X connect 8 0 16 0;
#X connect 9 0 0 0;
#X connect 9 0 0 1;
#X connect 10 0 9 1;
#X connect 11 0 9 1;
#X connect 12 0 13 0;
#X connect 13 0 8 0;
#X connect 14 0 12 0;
#X connect 16 0 6 0;
#X connect 17 0 6 0;
