#N canvas 83 47 1522 891 12;
#X obj 149 663 ps.vbap25, f 125;
#X obj 151 720 ps.29dac~;
#X obj 151 613 noise~;
#X msg 1021 591 /azimuth \$1;
#X floatatom 1026 557 5 0 0 0 - - -;
#X floatatom 1136 557 5 0 0 0 - - -;
#X msg 1131 591 /elevation \$1;
#X msg 805 127 0;
#X msg 322 123 30;
#X msg 369 122 60;
#X msg 408 123 90;
#X msg 450 124 120;
#X msg 489 126 150;
#X msg 536 124 180;
#X msg 581 127 -150;
#X msg 631 126 -120;
#X msg 678 125 -90;
#X msg 717 126 -60;
#X msg 759 127 -30;
#X obj 128 93 + 1;
#X obj 92 94 f 1;
#X obj 92 39 tgl 15 0 empty empty empty 17 7 0 10 -262144 -1 -1 0 1
;
#X obj 92 66 metro 250;
#X obj 303 78 select 1 2 3 4 5 6 7 8 9 10 11 12, f 77;
#X obj 92 125 mod 12;
#X obj 92 152 + 1;
#X obj 116 281 + 1;
#X obj 59 284 f 1;
#X obj 59 228 tgl 15 0 empty empty empty 17 7 0 10 -262144 -1 -1 0
1;
#X obj 59 255 metro 250;
#X obj 56 339 + 1;
#X obj 158 314 select 1 2 3 4 5 6 7 8, f 56;
#X obj 56 315 mod 8;
#X msg 183 349 45;
#X msg 230 348 90;
#X msg 269 349 135;
#X msg 311 350 180;
#X msg 350 352 -135;
#X msg 397 350 -90;
#X msg 442 353 -45;
#X msg 492 352 0;
#X msg 1082 165 0;
#X msg 1119 200 32;
#X msg 1164 258 66;
#X obj 127 453 + 1;
#X obj 70 456 f 1;
#X obj 70 397 tgl 15 0 empty empty empty 17 7 0 10 -262144 -1 -1 0
1;
#X obj 70 424 metro 250;
#X obj 70 513 + 1;
#X obj 70 487 mod 4;
#X obj 295 448 select 1 2 3 4, f 17;
#X msg 300 494 90;
#X msg 347 493 180;
#X msg 386 494 -90;
#X msg 422 497 0;
#X msg 1199 312 90;
#X obj 1018 138 hsl 128 15 -180 180 0 0 empty empty empty -2 -8 0 10
-262144 -1 -1 0 1;
#X obj 1020 97 line;
#X msg 1022 64 -180 \, 180 5000;
#X obj 1022 37 metro 5500;
#X obj 1022 4 tgl 15 0 empty empty empty 17 7 0 10 -262144 -1 -1 0
1;
#X obj 1219 370 vsl 15 128 0 90 0 0 empty empty empty 0 -9 0 10 -262144
-1 -1 4500 1;
#X connect 0 0 1 0;
#X connect 0 1 1 1;
#X connect 0 2 1 2;
#X connect 0 3 1 3;
#X connect 0 4 1 4;
#X connect 0 5 1 5;
#X connect 0 6 1 6;
#X connect 0 7 1 7;
#X connect 0 8 1 8;
#X connect 0 9 1 9;
#X connect 0 10 1 10;
#X connect 0 11 1 11;
#X connect 0 12 1 12;
#X connect 0 13 1 13;
#X connect 0 14 1 14;
#X connect 0 15 1 15;
#X connect 0 16 1 16;
#X connect 0 17 1 17;
#X connect 0 18 1 18;
#X connect 0 19 1 19;
#X connect 0 20 1 20;
#X connect 0 21 1 21;
#X connect 0 22 1 22;
#X connect 0 23 1 23;
#X connect 0 24 1 24;
#X connect 2 0 0 0;
#X connect 3 0 0 1;
#X connect 4 0 3 0;
#X connect 5 0 6 0;
#X connect 6 0 0 1;
#X connect 7 0 4 0;
#X connect 8 0 4 0;
#X connect 9 0 4 0;
#X connect 10 0 4 0;
#X connect 11 0 4 0;
#X connect 12 0 4 0;
#X connect 13 0 4 0;
#X connect 14 0 4 0;
#X connect 15 0 4 0;
#X connect 16 0 4 0;
#X connect 17 0 4 0;
#X connect 18 0 4 0;
#X connect 19 0 20 1;
#X connect 20 0 19 0;
#X connect 20 0 24 0;
#X connect 21 0 22 0;
#X connect 22 0 20 0;
#X connect 23 0 8 0;
#X connect 23 1 9 0;
#X connect 23 2 10 0;
#X connect 23 3 11 0;
#X connect 23 4 12 0;
#X connect 23 5 13 0;
#X connect 23 6 14 0;
#X connect 23 7 15 0;
#X connect 23 8 16 0;
#X connect 23 9 17 0;
#X connect 23 10 18 0;
#X connect 23 11 7 0;
#X connect 24 0 25 0;
#X connect 25 0 23 0;
#X connect 26 0 27 1;
#X connect 27 0 26 0;
#X connect 27 0 32 0;
#X connect 28 0 29 0;
#X connect 29 0 27 0;
#X connect 30 0 31 0;
#X connect 31 0 33 0;
#X connect 31 1 34 0;
#X connect 31 2 35 0;
#X connect 31 3 36 0;
#X connect 31 4 37 0;
#X connect 31 5 38 0;
#X connect 31 6 39 0;
#X connect 31 7 40 0;
#X connect 32 0 30 0;
#X connect 33 0 4 0;
#X connect 34 0 4 0;
#X connect 35 0 4 0;
#X connect 36 0 4 0;
#X connect 37 0 4 0;
#X connect 38 0 4 0;
#X connect 39 0 4 0;
#X connect 40 0 4 0;
#X connect 41 0 5 0;
#X connect 42 0 5 0;
#X connect 43 0 5 0;
#X connect 44 0 45 1;
#X connect 45 0 44 0;
#X connect 45 0 49 0;
#X connect 46 0 47 0;
#X connect 47 0 45 0;
#X connect 48 0 50 0;
#X connect 49 0 48 0;
#X connect 50 0 51 0;
#X connect 50 1 52 0;
#X connect 50 2 53 0;
#X connect 50 3 54 0;
#X connect 51 0 4 0;
#X connect 52 0 4 0;
#X connect 53 0 4 0;
#X connect 54 0 4 0;
#X connect 55 0 5 0;
#X connect 56 0 4 0;
#X connect 57 0 56 0;
#X connect 58 0 57 0;
#X connect 59 0 58 0;
#X connect 60 0 59 0;
#X connect 61 0 5 0;
