#N canvas 118 23 1370 887 12;
#X obj 569 124 inlet~;
#X obj 399 28 text define -k \$0-angles;
#A set stereo 45 -45 \; square 0 90 180 270 \; octo 0 45 90 135 180
225 270 315 \; five 0 30 110 250 330 \; cube 45 35.3 135 35.3 225 35.3
315 35.3 45 -35.3 135 -35.3 225 -35.3 315 -35.3 \; tri 45 0 0 35.3
-45 0 \; dodecahedron 180 90 0 26.6 324 -26.6 72 26.6 36 -26.6 144
26.6 108 -26.6 216 26.6 180 -26.6 288 26.6 252 -26.6 180 -90 \; icosahedron
180 69.1 159.1 0 90 20.9 135 35.3 135 -35.3 180 -69.1 20.9 0 90 -20.9
45 35.3 45 -35.3 0 69.1 200.9 0 270 20.9 225 35.3 225 -35.3 0 -69.1
339.1 0 270 -20.9 315 35.3 315 -35.3 \; pulkki 0 0 72 0 144 0 216 0
288 0 60 45 180 45 240 45 \; risd 30 0 60 0 90 0 120 0 150 0 180 0
-150 0 -120 0 -90 0 -60 0 -30 0 0 0 45 32 90 32 135 32 180 32 -135
32 -90 32 -45 32 0 32 90 66 180 66 -90 66 0 66 0 90 \;;
#X obj -95 200 nbx 5 14 -1e+37 1e+37 0 0 empty empty empty 0 -8 0 10
-262144 -1 -1 0 256;
#X obj -95 248 pack f f, f 15;
#X obj -35 199 nbx 5 14 0 90 0 0 empty empty empty 0 -8 0 10 -262144
-1 -1 31.8898 256;
#X obj -35 218 t b f;
#X obj -95 227 f;
#X obj 76 243 bng 15 250 50 0 empty empty empty 17 7 0 10 -262144 -1
-1;
#X msg 125 239 print;
#X obj -95 271 p.vbap 3d text \$0-angles risd;
#X obj -93 437 unpack f f f f f f f f f f f f f f f f f f f f f f f
f f, f 251;
#X floatatom -93 475 5 0 0 0 - - -;
#X floatatom -20 475 5 0 0 0 - - -;
#X floatatom 53 475 5 0 0 0 - - -;
#X floatatom 126 475 5 0 0 0 - - -;
#X floatatom 199 475 5 0 0 0 - - -;
#X floatatom 272 475 5 0 0 0 - - -;
#X floatatom 345 475 5 0 0 0 - - -;
#X floatatom 418 475 5 0 0 0 - - -;
#X floatatom 491 475 5 0 0 0 - - -;
#X floatatom 564 475 5 0 0 0 - - -;
#X floatatom 637 475 5 0 0 0 - - -;
#X floatatom 710 475 5 0 0 0 - - -;
#X floatatom 784 475 5 0 0 0 - - -;
#X floatatom 858 475 5 0 0 0 - - -;
#X floatatom 931 475 5 0 0 0 - - -;
#X floatatom 1003 475 5 0 0 0 - - -;
#X text 600 27 VBAP abstractions by Pierre Guillot - 2016 - 2017;
#X floatatom 1076 475 5 0 0 0 - - -;
#X floatatom 1149 475 5 0 0 0 - - -;
#X floatatom 1222 475 5 0 0 0 - - -;
#X floatatom 1295 475 5 0 0 0 - - -;
#X floatatom 1368 475 5 0 0 0 - - -;
#X floatatom 1441 475 5 0 0 0 - - -;
#X floatatom 1514 475 5 0 0 0 - - -;
#X floatatom 1587 475 5 0 0 0 - - -;
#X floatatom 1661 475 5 0 0 0 - - -;
#X obj -100 537 line~;
#X obj -100 511 pack f 20;
#X obj -118 565 *~;
#X text -96 165 azimuth;
#X text -30 166 elevation;
#X obj -118 608 outlet~;
#X obj -27 537 line~;
#X obj -27 511 pack f 20;
#X obj -45 565 *~;
#X obj -45 608 outlet~;
#X obj 47 538 line~;
#X obj 47 512 pack f 20;
#X obj 29 566 *~;
#X obj 29 609 outlet~;
#X obj 120 538 line~;
#X obj 120 512 pack f 20;
#X obj 102 566 *~;
#X obj 102 609 outlet~;
#X obj 193 537 line~;
#X obj 193 511 pack f 20;
#X obj 175 565 *~;
#X obj 175 608 outlet~;
#X obj 266 537 line~;
#X obj 266 511 pack f 20;
#X obj 248 565 *~;
#X obj 248 608 outlet~;
#X obj 340 538 line~;
#X obj 340 512 pack f 20;
#X obj 322 566 *~;
#X obj 322 609 outlet~;
#X obj 413 538 line~;
#X obj 413 512 pack f 20;
#X obj 395 566 *~;
#X obj 395 609 outlet~;
#X obj 486 538 line~;
#X obj 486 512 pack f 20;
#X obj 468 566 *~;
#X obj 468 609 outlet~;
#X obj 559 538 line~;
#X obj 559 512 pack f 20;
#X obj 541 566 *~;
#X obj 541 609 outlet~;
#X obj 633 539 line~;
#X obj 633 513 pack f 20;
#X obj 615 567 *~;
#X obj 615 610 outlet~;
#X obj 706 539 line~;
#X obj 706 513 pack f 20;
#X obj 688 567 *~;
#X obj 688 610 outlet~;
#X obj 780 539 line~;
#X obj 780 513 pack f 20;
#X obj 762 567 *~;
#X obj 762 610 outlet~;
#X obj 853 539 line~;
#X obj 853 513 pack f 20;
#X obj 835 567 *~;
#X obj 835 610 outlet~;
#X obj 927 540 line~;
#X obj 927 514 pack f 20;
#X obj 909 568 *~;
#X obj 909 611 outlet~;
#X obj 1000 540 line~;
#X obj 1000 514 pack f 20;
#X obj 982 568 *~;
#X obj 982 611 outlet~;
#X obj 1073 540 line~;
#X obj 1073 514 pack f 20;
#X obj 1055 568 *~;
#X obj 1055 611 outlet~;
#X obj 1146 540 line~;
#X obj 1146 514 pack f 20;
#X obj 1128 568 *~;
#X obj 1128 611 outlet~;
#X obj 1220 541 line~;
#X obj 1220 515 pack f 20;
#X obj 1202 569 *~;
#X obj 1202 612 outlet~;
#X obj 1293 541 line~;
#X obj 1293 515 pack f 20;
#X obj 1275 569 *~;
#X obj 1275 612 outlet~;
#X obj 1366 541 line~;
#X obj 1366 515 pack f 20;
#X obj 1348 569 *~;
#X obj 1348 612 outlet~;
#X obj 1439 541 line~;
#X obj 1439 515 pack f 20;
#X obj 1421 569 *~;
#X obj 1421 612 outlet~;
#X obj 1512 541 line~;
#X obj 1512 515 pack f 20;
#X obj 1494 569 *~;
#X obj 1494 612 outlet~;
#X obj 1586 542 line~;
#X obj 1586 516 pack f 20;
#X obj 1568 570 *~;
#X obj 1568 613 outlet~;
#X obj 1659 542 line~;
#X obj 1659 516 pack f 20;
#X obj 1641 570 *~;
#X obj 1641 613 outlet~;
#X obj 706 106 inlet;
#X obj 707 141 route /azimuth /elevation;
#X connect 0 0 39 0;
#X connect 0 0 45 0;
#X connect 0 0 49 0;
#X connect 0 0 53 0;
#X connect 0 0 57 0;
#X connect 0 0 61 0;
#X connect 0 0 65 0;
#X connect 0 0 69 0;
#X connect 0 0 73 0;
#X connect 0 0 77 0;
#X connect 0 0 81 0;
#X connect 0 0 85 0;
#X connect 0 0 89 0;
#X connect 0 0 93 0;
#X connect 0 0 97 0;
#X connect 0 0 101 0;
#X connect 0 0 105 0;
#X connect 0 0 109 0;
#X connect 0 0 113 0;
#X connect 0 0 117 0;
#X connect 0 0 121 0;
#X connect 0 0 125 0;
#X connect 0 0 129 0;
#X connect 0 0 137 0;
#X connect 0 0 133 0;
#X connect 2 0 6 0;
#X connect 3 0 9 0;
#X connect 4 0 5 0;
#X connect 5 0 6 0;
#X connect 5 1 3 1;
#X connect 6 0 3 0;
#X connect 7 0 9 1;
#X connect 8 0 9 1;
#X connect 9 0 10 0;
#X connect 10 0 11 0;
#X connect 10 1 12 0;
#X connect 10 2 13 0;
#X connect 10 3 14 0;
#X connect 10 4 15 0;
#X connect 10 5 16 0;
#X connect 10 6 17 0;
#X connect 10 7 18 0;
#X connect 10 8 19 0;
#X connect 10 9 20 0;
#X connect 10 10 21 0;
#X connect 10 11 22 0;
#X connect 10 12 23 0;
#X connect 10 13 24 0;
#X connect 10 14 25 0;
#X connect 10 15 26 0;
#X connect 10 16 28 0;
#X connect 10 17 29 0;
#X connect 10 18 30 0;
#X connect 10 19 31 0;
#X connect 10 20 32 0;
#X connect 10 21 33 0;
#X connect 10 22 34 0;
#X connect 10 23 35 0;
#X connect 10 24 36 0;
#X connect 11 0 38 0;
#X connect 12 0 44 0;
#X connect 13 0 48 0;
#X connect 14 0 52 0;
#X connect 15 0 56 0;
#X connect 16 0 60 0;
#X connect 17 0 64 0;
#X connect 18 0 68 0;
#X connect 19 0 72 0;
#X connect 20 0 76 0;
#X connect 21 0 80 0;
#X connect 22 0 84 0;
#X connect 23 0 88 0;
#X connect 24 0 92 0;
#X connect 25 0 96 0;
#X connect 26 0 100 0;
#X connect 28 0 104 0;
#X connect 29 0 108 0;
#X connect 30 0 112 0;
#X connect 31 0 116 0;
#X connect 32 0 120 0;
#X connect 33 0 124 0;
#X connect 34 0 128 0;
#X connect 35 0 132 0;
#X connect 36 0 136 0;
#X connect 37 0 39 1;
#X connect 38 0 37 0;
#X connect 39 0 42 0;
#X connect 43 0 45 1;
#X connect 44 0 43 0;
#X connect 45 0 46 0;
#X connect 47 0 49 1;
#X connect 48 0 47 0;
#X connect 49 0 50 0;
#X connect 51 0 53 1;
#X connect 52 0 51 0;
#X connect 53 0 54 0;
#X connect 55 0 57 1;
#X connect 56 0 55 0;
#X connect 57 0 58 0;
#X connect 59 0 61 1;
#X connect 60 0 59 0;
#X connect 61 0 62 0;
#X connect 63 0 65 1;
#X connect 64 0 63 0;
#X connect 65 0 66 0;
#X connect 67 0 69 1;
#X connect 68 0 67 0;
#X connect 69 0 70 0;
#X connect 71 0 73 1;
#X connect 72 0 71 0;
#X connect 73 0 74 0;
#X connect 75 0 77 1;
#X connect 76 0 75 0;
#X connect 77 0 78 0;
#X connect 79 0 81 1;
#X connect 80 0 79 0;
#X connect 81 0 82 0;
#X connect 83 0 85 1;
#X connect 84 0 83 0;
#X connect 85 0 86 0;
#X connect 87 0 89 1;
#X connect 88 0 87 0;
#X connect 89 0 90 0;
#X connect 91 0 93 1;
#X connect 92 0 91 0;
#X connect 93 0 94 0;
#X connect 95 0 97 1;
#X connect 96 0 95 0;
#X connect 97 0 98 0;
#X connect 99 0 101 1;
#X connect 100 0 99 0;
#X connect 101 0 102 0;
#X connect 103 0 105 1;
#X connect 104 0 103 0;
#X connect 105 0 106 0;
#X connect 107 0 109 1;
#X connect 108 0 107 0;
#X connect 109 0 110 0;
#X connect 111 0 113 1;
#X connect 112 0 111 0;
#X connect 113 0 114 0;
#X connect 115 0 117 1;
#X connect 116 0 115 0;
#X connect 117 0 118 0;
#X connect 119 0 121 1;
#X connect 120 0 119 0;
#X connect 121 0 122 0;
#X connect 123 0 125 1;
#X connect 124 0 123 0;
#X connect 125 0 126 0;
#X connect 127 0 129 1;
#X connect 128 0 127 0;
#X connect 129 0 130 0;
#X connect 131 0 133 1;
#X connect 132 0 131 0;
#X connect 133 0 134 0;
#X connect 135 0 137 1;
#X connect 136 0 135 0;
#X connect 137 0 138 0;
#X connect 139 0 140 0;
#X connect 140 0 2 0;
#X connect 140 1 4 0;
