#N canvas 739 138 896 655 12;
#X declare -path cyclone;
#X declare -path pmpd;
#X declare -path pmpd;
#X obj 227 117 adc~;
#X obj 149 54 declare -path cyclone;
#X obj 227 188 peakamp~ 20;
#X floatatom 227 226 5 0 0 0 - - - 0;
#X obj 184 341 *~;
#X obj 227 287 line~;
#X obj 184 391 *~ 0.3;
#X obj 478 552 dac~;
#X obj 103 190 noise~;
#X obj 103 263 bp~ 500 10;
#X obj 375 253 line;
#X msg 375 219 \$1 100;
#X obj 378 287 hsl 128 15 0 1 0 0 empty empty empty -2 -8 0 10 #fcfcfc
#000000 #000000 0 1;
#X obj 375 334 * 600;
#X obj 374 364 + 200;
#X floatatom 374 398 5 0 0 0 - - - 0;
#X msg 227 255 \$1 300;
#X obj 400 71 declare -path pmpd;
#N canvas 179 204 1448 933 pmpd_string 0;
#X obj 379 253 vsl 15 128 0 127 0 0 empty empty empty 0 -8 0 8 #fcfcfc
#000000 #000000 0 1;
#X obj 397 253 vsl 15 128 0 127 0 0 empty empty empty 0 -8 0 8 #fcfcfc
#000000 #000000 0 1;
#X obj 415 253 vsl 15 128 0 127 0 0 empty empty empty 0 -8 0 8 #fcfcfc
#000000 #000000 0 1;
#X obj 433 253 vsl 15 128 0 127 0 0 empty empty empty 0 -8 0 8 #fcfcfc
#000000 #000000 0 1;
#X obj 451 253 vsl 15 128 0 127 0 0 empty empty empty 0 -8 0 8 #fcfcfc
#000000 #000000 0 1;
#X obj 469 253 vsl 15 128 0 127 0 0 empty empty empty 0 -8 0 8 #fcfcfc
#000000 #000000 0 1;
#X obj 361 253 vsl 15 128 0 127 0 0 empty empty empty 0 -8 0 8 #fcfcfc
#000000 #000000 0 1;
#X obj 538 52 metro 10;
#X obj 538 27 loadbang;
#X text 138 362 move the first slider ->;
#X text 570 368 <- or the last one;
#X obj 487 253 vsl 15 128 0 127 0 0 empty empty empty 0 -8 0 8 #fcfcfc
#000000 #000000 0 1;
#X obj 505 253 vsl 15 128 0 127 0 0 empty empty empty 0 -8 0 8 #fcfcfc
#000000 #000000 0 1;
#X obj 538 79 t b b;
#X obj 565 104 s \$0-link;
#X obj 538 130 s \$0-mass;
#X obj 14 196 link \$0-link 0 1 1;
#X obj 145 196 link \$0-link 0 1 1;
#X obj 284 196 link \$0-link 0 1 1;
#X obj 424 195 link \$0-link 0 1 1;
#X obj 565 194 link \$0-link 0 1 1;
#X obj 703 194 link \$0-link 0 1 1;
#X obj 844 193 link \$0-link 0 1 1;
#X obj 981 194 link \$0-link 0 1 1;
#X obj 146 172 mass \$0-mass 30;
#X obj 284 171 mass \$0-mass 30;
#X obj 424 172 mass \$0-mass 30;
#X obj 565 172 mass \$0-mass 30;
#X obj 703 171 mass \$0-mass 30;
#X obj 844 171 mass \$0-mass 30;
#X obj 981 171 mass \$0-mass 30;
#X obj 901 476 noise~;
#X obj 580 520 bp~ 80 5;
#X obj 650 520 bp~ 160 5;
#X obj 726 521 bp~ 380 5;
#X obj 804 522 bp~ 760 5;
#X obj 601 545 / 127;
#X obj 601 595 *;
#X obj 601 569 t f f;
#X msg 601 621 \$1 10;
#X obj 601 648 line~;
#X obj 581 674 *~;
#X obj 672 546 / 127;
#X obj 672 596 *;
#X obj 672 570 t f f;
#X msg 672 622 \$1 10;
#X obj 672 649 line~;
#X obj 652 675 *~;
#X obj 748 546 / 127;
#X obj 748 596 *;
#X obj 748 570 t f f;
#X msg 748 622 \$1 10;
#X obj 748 649 line~;
#X obj 728 675 *~;
#X obj 830 550 / 127;
#X obj 830 600 *;
#X obj 830 574 t f f;
#X msg 830 626 \$1 10;
#X obj 830 653 line~;
#X obj 810 679 *~;
#X obj 915 547 / 127;
#X obj 915 597 *;
#X obj 915 571 t f f;
#X msg 915 623 \$1 10;
#X obj 915 650 line~;
#X obj 895 676 *~;
#X obj 986 548 / 127;
#X obj 986 598 *;
#X obj 986 572 t f f;
#X msg 986 624 \$1 10;
#X obj 986 651 line~;
#X obj 966 678 *~;
#X obj 1062 548 / 127;
#X obj 1062 598 *;
#X obj 1062 572 t f f;
#X msg 1062 624 \$1 10;
#X obj 1062 651 line~;
#X obj 1042 677 *~;
#X obj 894 522 bp~ 1380 5;
#X obj 956 524 bp~ 3160 5;
#X obj 1040 523 bp~ 6380 5;
#X text 22 29 This is the first example of physical modeling: it computes
an elastic string;
#X text 602 67 <- metronome send bangs to masses and links and gives
the general computation speed;
#X text 21 62 All the slider are "linked" together with a link. Slider
got a mass so they have inertial.;
#X text 21 94 You can see the propagation of a wave \, and physical
properties close to an elastic string.;
#X text 612 140 masses and links has to be computed one after the other.
;
#X obj 611 25 declare -path pmpd;
#X obj 1094 65 inlet;
#X obj 1059 98 * 127;
#X obj 779 857 outlet~;
#X connect 0 0 36 0;
#X connect 1 0 42 0;
#X connect 2 0 48 0;
#X connect 3 0 54 0;
#X connect 4 0 60 0;
#X connect 5 0 66 0;
#X connect 6 0 16 0;
#X connect 7 0 13 0;
#X connect 8 0 7 0;
#X connect 11 0 72 0;
#X connect 12 0 23 1;
#X connect 13 0 15 0;
#X connect 13 1 14 0;
#X connect 16 1 24 0;
#X connect 17 0 24 0;
#X connect 17 1 25 0;
#X connect 18 0 25 0;
#X connect 18 1 26 0;
#X connect 19 0 26 0;
#X connect 19 1 27 0;
#X connect 20 0 27 0;
#X connect 20 1 28 0;
#X connect 21 0 28 0;
#X connect 21 1 29 0;
#X connect 22 0 29 0;
#X connect 22 1 30 0;
#X connect 23 0 30 0;
#X connect 24 0 0 0;
#X connect 24 0 16 1;
#X connect 24 0 17 0;
#X connect 25 0 1 0;
#X connect 25 0 17 1;
#X connect 25 0 18 0;
#X connect 26 0 2 0;
#X connect 26 0 18 1;
#X connect 26 0 19 0;
#X connect 27 0 3 0;
#X connect 27 0 19 1;
#X connect 27 0 20 0;
#X connect 28 0 4 0;
#X connect 28 0 20 1;
#X connect 28 0 21 0;
#X connect 29 0 5 0;
#X connect 29 0 21 1;
#X connect 29 0 22 0;
#X connect 30 0 11 0;
#X connect 30 0 22 1;
#X connect 30 0 23 0;
#X connect 31 0 32 0;
#X connect 31 0 33 0;
#X connect 31 0 34 0;
#X connect 31 0 35 0;
#X connect 31 0 78 0;
#X connect 31 0 79 0;
#X connect 31 0 80 0;
#X connect 32 0 41 0;
#X connect 33 0 47 0;
#X connect 34 0 53 0;
#X connect 35 0 59 0;
#X connect 36 0 38 0;
#X connect 37 0 39 0;
#X connect 38 0 37 0;
#X connect 38 1 37 1;
#X connect 39 0 40 0;
#X connect 40 0 41 1;
#X connect 41 0 89 0;
#X connect 42 0 44 0;
#X connect 43 0 45 0;
#X connect 44 0 43 0;
#X connect 44 1 43 1;
#X connect 45 0 46 0;
#X connect 46 0 47 1;
#X connect 47 0 89 0;
#X connect 48 0 50 0;
#X connect 49 0 51 0;
#X connect 50 0 49 0;
#X connect 50 1 49 1;
#X connect 51 0 52 0;
#X connect 52 0 53 1;
#X connect 53 0 89 0;
#X connect 54 0 56 0;
#X connect 55 0 57 0;
#X connect 56 0 55 0;
#X connect 56 1 55 1;
#X connect 57 0 58 0;
#X connect 58 0 59 1;
#X connect 59 0 89 0;
#X connect 60 0 62 0;
#X connect 61 0 63 0;
#X connect 62 0 61 0;
#X connect 62 1 61 1;
#X connect 63 0 64 0;
#X connect 64 0 65 1;
#X connect 65 0 89 0;
#X connect 66 0 68 0;
#X connect 67 0 69 0;
#X connect 68 0 67 0;
#X connect 68 1 67 1;
#X connect 69 0 70 0;
#X connect 70 0 71 1;
#X connect 71 0 89 0;
#X connect 72 0 74 0;
#X connect 73 0 75 0;
#X connect 74 0 73 0;
#X connect 74 1 73 1;
#X connect 75 0 76 0;
#X connect 76 0 77 1;
#X connect 77 0 89 0;
#X connect 78 0 65 0;
#X connect 79 0 71 0;
#X connect 80 0 77 0;
#X connect 87 0 88 0;
#X connect 88 0 6 0;
#X restore 521 374 pd pmpd_string;
#X obj 479 503 *~;
#X obj 503 478 tgl 15 0 empty empty empty 17 7 0 10 #fcfcfc #000000
#000000 0 1;
#X obj 539 505 *~;
#X obj 563 480 tgl 15 0 empty empty empty 17 7 0 10 #fcfcfc #000000
#000000 0 1;
#X text 352 41 make sure this libraries are installed;
#X connect 0 0 2 0;
#X connect 2 0 3 0;
#X connect 3 0 16 0;
#X connect 3 0 11 0;
#X connect 4 0 6 0;
#X connect 5 0 4 1;
#X connect 6 0 19 0;
#X connect 8 0 9 0;
#X connect 9 0 4 0;
#X connect 10 0 12 0;
#X connect 11 0 10 0;
#X connect 12 0 13 0;
#X connect 12 0 18 0;
#X connect 13 0 14 0;
#X connect 14 0 15 0;
#X connect 15 0 9 1;
#X connect 16 0 5 0;
#X connect 18 0 21 0;
#X connect 19 0 7 0;
#X connect 19 0 7 1;
#X connect 20 0 19 1;
#X connect 21 0 7 0;
#X connect 21 0 7 1;
#X connect 22 0 21 1;
