#N canvas 216 99 1065 745 12;
#X obj 158 20 adc~;
#X floatatom 77 265 5 0 0 0 - - - 0;
#X text 206 18 <- analog to digital converter... using channel 1;
#X text 333 139 <- fiddle~ estimates the pitch;
#X text 126 266 <- MIDI note value of the incoming pitch;
#X obj 494 275 dbtorms;
#X floatatom 497 302 5 0 0 0 - - - 0;
#X obj 158 141 fiddle~ 1024 1 20 3;
#X text 559 276 <- amplitude;
#X obj 497 336 ps.scale 0 1 60 127;
#X floatatom 502 397 5 0 0 0 - - - 0;
#X obj 500 368 int;
#X obj 77 234 int;
#X obj 79 295 moses 20;
#X floatatom 127 331 5 0 0 0 - - - 0;
#X floatatom 128 392 5 0 0 0 - - - 0;
#X obj 127 361 moses 108;
#X text 554 403 velocity;
#X obj 251 539 makenote 127 125;
#X obj 256 623 noteout;
#X obj 149 77 *~;
#X obj 191 54 tgl 15 0 empty empty empty 17 7 0 10 #fcfcfc #000000
#000000 0 1;
#X text 241 47 on/off;
#X connect 0 0 20 0;
#X connect 1 0 13 0;
#X connect 5 0 6 0;
#X connect 6 0 9 0;
#X connect 7 2 12 0;
#X connect 7 3 5 0;
#X connect 9 0 11 0;
#X connect 10 0 18 1;
#X connect 11 0 10 0;
#X connect 12 0 1 0;
#X connect 13 1 14 0;
#X connect 14 0 16 0;
#X connect 15 0 18 0;
#X connect 16 0 15 0;
#X connect 18 0 19 0;
#X connect 18 1 19 1;
#X connect 20 0 7 0;
#X connect 21 0 20 1;
