#N canvas 685 147 1066 868 12;
#X obj 381 56 hsl 128 15 0 127 0 0 empty empty empty -2 -8 0 10 #fcfcfc
#000000 #000000 0 1;
#X floatatom 379 87 5 0 0 0 - - - 0;
#X obj 380 120 > 70;
#X obj 381 143 tgl 15 0 empty empty empty 17 7 0 10 #fcfcfc #000000
#000000 0 1;
#X obj 381 250 bng 15 250 50 0 empty empty empty 17 7 0 10 #fcfcfc
#000000 #000000;
#X obj 381 223 select 1;
#X obj 380 168 change;
#X floatatom 380 198 5 0 0 0 - - - 0;
#X text 416 29 sensor;
#X text 424 142 trigger for event;
#X obj 379 347 makenote 127 125;
#X obj 546 460 noteout;
#X msg 380 305 60;
#X obj 565 62 hsl 128 15 0 127 0 0 empty empty empty -2 -8 0 10 #fcfcfc
#000000 #000000 0 1;
#X floatatom 563 93 5 0 0 0 - - - 0;
#X obj 564 126 > 70;
#X obj 565 149 tgl 15 0 empty empty empty 17 7 0 10 #fcfcfc #000000
#000000 0 1;
#X obj 565 256 bng 15 250 50 0 empty empty empty 17 7 0 10 #fcfcfc
#000000 #000000;
#X obj 565 229 select 1;
#X obj 564 174 change;
#X floatatom 564 204 5 0 0 0 - - - 0;
#X text 600 35 sensor;
#X text 608 148 trigger for event;
#X obj 563 353 makenote 127 125;
#X obj 757 68 hsl 128 15 0 127 0 0 empty empty empty -2 -8 0 10 #fcfcfc
#000000 #000000 0 1;
#X floatatom 755 99 5 0 0 0 - - - 0;
#X obj 756 132 > 70;
#X obj 757 155 tgl 15 0 empty empty empty 17 7 0 10 #fcfcfc #000000
#000000 0 1;
#X obj 757 262 bng 15 250 50 0 empty empty empty 17 7 0 10 #fcfcfc
#000000 #000000;
#X obj 757 235 select 1;
#X obj 756 180 change;
#X floatatom 756 210 5 0 0 0 - - - 0;
#X text 792 41 sensor;
#X text 800 154 trigger for event;
#X obj 755 359 makenote 127 125;
#X msg 563 311 62;
#X msg 756 317 63;
#X obj 83 90 hsl 128 15 0 127 0 0 empty empty empty -2 -8 0 10 #fcfcfc
#000000 #000000 0 1;
#X floatatom 81 121 5 0 0 0 - - - 0;
#X text 118 63 sensor;
#X obj 89 207 ctlout 60;
#X obj 253 221 metro 200;
#X obj 258 191 tgl 15 0 empty empty empty 17 7 0 10 #fcfcfc #000000
#000000 0 1;
#X connect 0 0 1 0;
#X connect 1 0 2 0;
#X connect 2 0 3 0;
#X connect 3 0 6 0;
#X connect 4 0 12 0;
#X connect 5 0 4 0;
#X connect 6 0 7 0;
#X connect 7 0 5 0;
#X connect 10 0 11 0;
#X connect 10 1 11 1;
#X connect 12 0 10 0;
#X connect 13 0 14 0;
#X connect 14 0 15 0;
#X connect 15 0 16 0;
#X connect 16 0 19 0;
#X connect 17 0 35 0;
#X connect 18 0 17 0;
#X connect 19 0 20 0;
#X connect 20 0 18 0;
#X connect 23 0 11 0;
#X connect 23 1 11 1;
#X connect 24 0 25 0;
#X connect 25 0 26 0;
#X connect 26 0 27 0;
#X connect 27 0 30 0;
#X connect 28 0 36 0;
#X connect 29 0 28 0;
#X connect 30 0 31 0;
#X connect 31 0 29 0;
#X connect 34 0 11 0;
#X connect 34 1 11 1;
#X connect 35 0 23 0;
#X connect 36 0 34 0;
#X connect 37 0 38 0;
#X connect 38 0 40 0;
#X connect 41 0 12 0;
#X connect 42 0 41 0;
