#N canvas 127 38 1066 868 12;
#X obj 210 35 hsl 128 15 0 127 0 0 empty empty empty -2 -8 0 10 #fcfcfc
#000000 #000000 0 1;
#X floatatom 208 66 5 0 0 0 - - - 0;
#X obj 550 178 > 70;
#X obj 208 155 < 30;
#X obj 551 201 tgl 15 0 empty empty empty 17 7 0 10 #fcfcfc #000000
#000000 0 1;
#X obj 207 202 tgl 15 0 empty empty empty 17 7 0 10 #fcfcfc #000000
#000000 0 1;
#X obj 207 278 select 1;
#X obj 553 343 ps.sampleplay~ m1;
#X text 755 276 open window to select sample;
#X msg 671 270 \; m1 /open;
#X obj 551 308 bng 15 250 50 0 empty empty empty 17 7 0 10 #fcfcfc
#000000 #000000;
#X obj 553 506 dac~;
#X obj 551 281 select 1;
#X obj 550 226 change;
#X floatatom 550 256 5 0 0 0 - - - 0;
#X text 245 8 sensor;
#X msg 207 316 0 \, 1 100;
#X obj 206 359 line~;
#X obj 185 414 *~;
#X obj 144 358 noise~;
#X msg 290 315 1 \, 0 100;
#X obj 183 503 dac~;
#X obj 185 447 *~ 0.1;
#X obj 206 233 change;
#X text 243 205 trigger for mixer;
#X text 594 200 trigger for event;
#X connect 0 0 1 0;
#X connect 1 0 2 0;
#X connect 1 0 3 0;
#X connect 2 0 4 0;
#X connect 3 0 5 0;
#X connect 4 0 13 0;
#X connect 5 0 23 0;
#X connect 6 0 16 0;
#X connect 6 1 20 0;
#X connect 7 0 11 0;
#X connect 7 0 11 1;
#X connect 10 0 7 0;
#X connect 12 0 10 0;
#X connect 13 0 14 0;
#X connect 14 0 12 0;
#X connect 16 0 17 0;
#X connect 17 0 18 1;
#X connect 18 0 22 0;
#X connect 19 0 18 0;
#X connect 20 0 17 0;
#X connect 22 0 21 0;
#X connect 22 0 21 1;
#X connect 23 0 6 0;
