#N canvas 142 25 765 556 12;
#N canvas 0 22 450 278 (subpatch) 0;
#X array sound1 88200 float 2;
#X coords 0 1 88200 -1 200 140 1;
#X restore 40 238 graph;
#X obj 353 160 tabwrite~ sound1;
#X obj 363 106 adc~;
#X obj 435 72 bng 15 250 50 0 empty empty empty 17 7 0 10 #fcfcfc #000000
#000000;
#X obj 348 270 phasor~;
#X obj 348 293 *~ 88200;
#X obj 348 248 * 1, f 8;
#X floatatom 347 221 5 0 0 0 - - - 0;
#X floatatom 413 222 5 0 0 0 - - - 0;
#X msg 347 198 0.5;
#X obj 398 396 *~;
#X obj 529 318 line~;
#X obj 392 453 dac~;
#X obj 395 429 *~ 0.5;
#X obj 348 323 tabread4~ sound1;
#X msg 524 283 \$1 100;
#X msg 520 255 0;
#X msg 557 255 1;
#X obj 238 24 ctlin 51;
#X floatatom 238 48 5 0 0 0 - - - 0;
#X obj 237 77 / 127;
#X obj 235 107 tgl 15 0 empty empty empty 17 7 0 10 #fcfcfc #000000
#000000 0 1;
#X obj 237 132 select 1;
#X floatatom 586 63 5 0 0 0 - - - 0;
#X obj 585 92 / 127;
#X obj 583 122 tgl 15 0 empty empty empty 17 7 0 10 #fcfcfc #000000
#000000 0 1;
#X obj 585 147 select 1;
#X obj 586 39 ctlin 52;
#X msg 459 255 0;
#X connect 2 0 1 0;
#X connect 3 0 1 0;
#X connect 3 0 16 0;
#X connect 4 0 5 0;
#X connect 5 0 14 0;
#X connect 6 0 4 0;
#X connect 7 0 6 0;
#X connect 8 0 6 1;
#X connect 9 0 7 0;
#X connect 10 0 13 0;
#X connect 11 0 10 1;
#X connect 13 0 12 0;
#X connect 13 0 12 1;
#X connect 14 0 10 0;
#X connect 15 0 11 0;
#X connect 16 0 15 0;
#X connect 17 0 15 0;
#X connect 18 0 19 0;
#X connect 19 0 20 0;
#X connect 20 0 21 0;
#X connect 21 0 22 0;
#X connect 22 0 3 0;
#X connect 23 0 24 0;
#X connect 24 0 25 0;
#X connect 25 0 26 0;
#X connect 26 0 17 0;
#X connect 26 0 28 0;
#X connect 26 1 16 0;
#X connect 27 0 23 0;
#X connect 28 0 4 1;
