#N canvas 764 188 450 300 12;
#X obj 171 147 * \$1;
#X obj 171 184 + \$2;
#X obj 171 227 outlet;
#X obj 171 84 inlet;
#X obj 223 84 inlet;
#X obj 275 84 inlet;
#X text 206 142 scale;
#X text 206 184 offset;
#X connect 0 0 1 0;
#X connect 1 0 2 0;
#X connect 3 0 0 0;
#X connect 4 0 0 1;
#X connect 5 0 1 1;
