#N canvas 576 149 450 300 12;
#X obj 180 67 inlet;
#X obj 180 139 f 0;
#X obj 241 139 + 1;
#X obj 180 230 outlet;
#X obj 254 67 inlet;
#X connect 0 0 1 0;
#X connect 1 0 2 0;
#X connect 1 0 3 0;
#X connect 2 0 1 1;
#X connect 4 0 1 1;
