#N canvas 633 110 583 300 12;
#X obj 164 75 inlet;
#X obj 164 234 outlet;
#X obj 214 136 + 1;
#X obj 164 136 f 0;
#X obj 164 197 mod \$1;
#X obj 222 197 mod \$2;
#X obj 278 197 mod \$3;
#X obj 336 197 mod \$4;
#X obj 222 234 outlet;
#X obj 278 234 outlet;
#X obj 336 234 outlet;
#X obj 328 78 inlet;
#X obj 372 78 inlet;
#X obj 417 78 inlet;
#X obj 461 78 inlet;
#X connect 0 0 3 0;
#X connect 2 0 3 1;
#X connect 3 0 2 0;
#X connect 3 0 4 0;
#X connect 3 0 5 0;
#X connect 3 0 6 0;
#X connect 3 0 7 0;
#X connect 4 0 1 0;
#X connect 5 0 8 0;
#X connect 6 0 9 0;
#X connect 7 0 10 0;
#X connect 11 0 4 1;
#X connect 12 0 5 1;
#X connect 13 0 6 1;
#X connect 14 0 7 1;
