#N canvas 86 131 1448 860 10;
#X obj 572 329 coll;
#C restore;
#X obj 478 158 msgfile;
#X msg 567 76 prev;
#X msg 572 283 clear;
#X obj 478 255 t s b;
#X msg 488 76 rewind;
#X obj 548 76 bng 15 250 50 0 empty empty empty 17 7 0 10 -262144 -1
-1;
#X obj 567 103 t b a;
#X floatatom 286 395 5 0 0 0 - - -, f 5;
#X obj 478 181 tosymbol;
#X obj 478 230 unpack s f;
#X obj 478 207 6_killspaces;
#X obj 478 282 6_csv;
#X obj 727 11 cnv 15 380 60 empty empty empty 20 12 0 14 -262130 -66577
0;
#X text 739 15 [6_csv];
#X text 741 30 Parsing comma separated values \, output with index
;
#X msg 478 14 read psvdata/sampledata7.txt cr;
#X obj 571 490 bng 15 250 50 0 empty empty empty 17 7 0 10 -262144
-1 -1;
#X obj 588 490 bng 15 250 50 0 empty empty empty 17 7 0 10 -262144
-1 -1;
#X obj 606 490 bng 15 250 50 0 empty empty empty 17 7 0 10 -262144
-1 -1;
#X obj 623 490 bng 15 250 50 0 empty empty empty 17 7 0 10 -262144
-1 -1;
#X obj 641 490 bng 15 250 50 0 empty empty empty 17 7 0 10 -262144
-1 -1;
#X obj 658 490 bng 15 250 50 0 empty empty empty 17 7 0 10 -262144
-1 -1;
#X obj 676 490 bng 15 250 50 0 empty empty empty 17 7 0 10 -262144
-1 -1;
#X obj 737 616 6_ezdac~;
#X obj 572 372 6_addspaces;
#X obj 571 461 select x o * - ^ #;
#X obj 571 437 6_iter;
#X obj 572 394 unpack s f;
#X obj 571 416 fromsymbol;
#X obj 435 309 unpack f s;
#X floatatom 435 336 5 0 0 0 - - -, f 5;
#X floatatom 313 311 10 0 0 0 - - -, f 10;
#X obj 313 284 expr 60000 / $f1;
#X floatatom 313 201 8 0 0 1 bpm - -, f 8;
#X obj 286 345 metro;
#X obj 286 252 tgl 15 0 empty empty empty 17 7 0 10 -262144 -1 -1 1
1;
#X obj 286 371 6_cup 1 1;
#X obj 286 417 select 5;
#X msg 441 405 1;
#X msg 773 404 \; ol5 /read ./sounds/bossdr550mk2/HiHatOp1.wav;
#X obj 515 547 6_sampleplay~ ol1;
#X obj 626 547 6_sampleplay~ ol2;
#X obj 737 547 6_sampleplay~ ol3;
#X obj 848 547 6_sampleplay~ ol4;
#X obj 959 547 6_sampleplay~ ol5;
#X obj 1070 547 6_sampleplay~ ol6;
#X msg 773 442 \; ol6 /read ./sounds/bossdr550mk2/Cowbell1.wav;
#X msg 773 260 \; ol1 /read ./sounds/bossdr550mk2/BassLo.wav;
#X msg 773 332 \; ol3 /read ./sounds/bossdr550mk2/Cymbol5.wav;
#X msg 773 368 \; ol4 /read ./sounds/bossdr550mk2/RimShot1.wav;
#X msg 773 296 \; ol2 /read ./sounds/bossdr550mk2/Tom8.wav;
#X msg 1070 260 \; ol1 /speed 0.7;
#X msg 1070 296 \; ol2 /speed 0.4;
#X msg 1070 368 \; ol4 /speed 0.7;
#X msg 1070 442 \; ol6 /speed 2;
#X msg 1070 404 \; ol5 /speed 1.5;
#X floatatom 328 226 5 0 0 0 - - -, f 5;
#X obj 313 250 * 2;
#X msg 484 38 read psvdata/sampledata8.txt cr;
#X msg 1070 332 \; ol3 /speed 0.3;
#X msg 640 119 goto \$1;
#X floatatom 606 254 5 0 0 0 - - -, f 5;
#X msg 640 168 where;
#X floatatom 640 101 5 0 0 0 - - -, f 5;
#X obj 606 233 - 1;
#X obj 640 142 t b b a;
#X msg 1175 260 \; ol1 /speed 0.4;
#X msg 1175 296 \; ol2 /speed 0.6;
#X msg 1175 332 \; ol3 /speed 0.2;
#X msg 1175 368 \; ol4 /speed 0.8;
#X msg 1175 404 \; ol5 /speed 0.6;
#X msg 1175 442 \; ol6 /speed 0.5;
#X obj 101 669 6_setmessage;
#X msg 101 693 *x\\\,k\\\,x*\\\,k\\\,-\\\,*x\\\,k\\\,x*\\\,k\\\,-;
#X obj 241 640 6_setmessage;
#X msg 241 664 - ;
#X obj 937 146 loadbang;
#X obj 937 172 t b b b b b b b b b b b b b, f 41;
#X msg 313 175 170;
#X obj 383 464 random 10;
#X obj 383 442 t b;
#X floatatom 383 494 5 0 0 0 - - -, f 5;
#X obj 383 539 tgl 15 0 empty empty empty 17 7 0 10 -262144 -1 -1 0
1;
#X obj 383 598 random 10;
#X floatatom 383 628 5 0 0 0 - - -, f 5;
#X obj 383 571 sel 1;
#X obj 383 513 > 7;
#X obj 383 682 spigot;
#X obj 416 655 tgl 15 0 empty empty empty 17 7 0 10 -262144 -1 -1 0
1;
#X msg 284 37 read psvdata/sampledata9.txt cr;
#X connect 0 0 25 0;
#X connect 1 0 9 0;
#X connect 1 1 65 0;
#X connect 2 0 7 0;
#X connect 3 0 0 0;
#X connect 4 0 12 0;
#X connect 4 1 3 0;
#X connect 5 0 1 0;
#X connect 6 0 1 0;
#X connect 7 0 1 0;
#X connect 7 1 1 0;
#X connect 8 0 0 0;
#X connect 8 0 38 0;
#X connect 9 0 11 0;
#X connect 10 0 4 0;
#X connect 10 0 73 0;
#X connect 11 0 10 0;
#X connect 12 0 0 0;
#X connect 12 0 30 0;
#X connect 16 0 1 0;
#X connect 17 0 41 0;
#X connect 18 0 42 0;
#X connect 19 0 43 0;
#X connect 20 0 44 0;
#X connect 21 0 45 0;
#X connect 22 0 46 0;
#X connect 25 0 28 0;
#X connect 26 0 17 0;
#X connect 26 1 18 0;
#X connect 26 2 19 0;
#X connect 26 3 20 0;
#X connect 26 4 21 0;
#X connect 26 5 22 0;
#X connect 26 6 23 0;
#X connect 27 0 26 0;
#X connect 28 0 29 0;
#X connect 28 0 75 0;
#X connect 29 0 27 0;
#X connect 30 0 31 0;
#X connect 31 0 38 1;
#X connect 32 0 35 1;
#X connect 33 0 32 0;
#X connect 34 0 58 0;
#X connect 35 0 37 0;
#X connect 36 0 35 0;
#X connect 37 0 8 0;
#X connect 38 0 39 0;
#X connect 39 0 37 1;
#X connect 39 0 81 0;
#X connect 41 0 24 0;
#X connect 41 0 24 1;
#X connect 42 0 24 0;
#X connect 42 0 24 1;
#X connect 43 0 24 0;
#X connect 43 0 24 1;
#X connect 44 0 24 0;
#X connect 44 0 24 1;
#X connect 45 0 24 0;
#X connect 45 0 24 1;
#X connect 46 0 24 0;
#X connect 46 0 24 1;
#X connect 57 0 58 1;
#X connect 58 0 33 0;
#X connect 59 0 1 0;
#X connect 61 0 66 0;
#X connect 63 0 1 0;
#X connect 64 0 61 0;
#X connect 65 0 62 0;
#X connect 66 0 63 0;
#X connect 66 1 1 0;
#X connect 66 2 1 0;
#X connect 73 0 74 0;
#X connect 75 0 76 0;
#X connect 77 0 78 0;
#X connect 78 0 48 0;
#X connect 78 1 51 0;
#X connect 78 2 49 0;
#X connect 78 3 50 0;
#X connect 78 4 40 0;
#X connect 78 5 47 0;
#X connect 78 6 67 0;
#X connect 78 7 68 0;
#X connect 78 8 69 0;
#X connect 78 9 70 0;
#X connect 78 10 71 0;
#X connect 78 11 72 0;
#X connect 78 12 79 0;
#X connect 79 0 34 0;
#X connect 80 0 82 0;
#X connect 81 0 80 0;
#X connect 82 0 87 0;
#X connect 83 0 86 0;
#X connect 84 0 85 0;
#X connect 85 0 88 0;
#X connect 86 0 84 0;
#X connect 87 0 83 0;
#X connect 88 0 64 0;
#X connect 89 0 88 1;
#X connect 90 0 1 0;
