#N canvas 495 128 1126 675 10;
#X obj 488 168 msgfile;
#X msg 577 86 prev;
#X msg 498 86 rewind;
#X obj 558 86 bng 15 250 50 0 empty empty empty 17 7 0 10 -262144 -1
-1;
#X obj 577 113 t b a;
#X obj 545 169 t b;
#X obj 488 194 tosymbol;
#X text 245 69 CSV to Pd array;
#N canvas 0 22 450 278 (subpatch) 0;
#X array csv_array 4 float 1;
#A 0 0 0.92 -0.55 0;
#X coords 0 1 3 -1 200 140 1 0 0;
#X restore 702 168 graph;
#X obj 488 357 tabwrite csv_array;
#X floatatom 488 264 5 0 0 0 - - -, f 5;
#X obj 488 240 unpack f s;
#X obj 488 311 swap;
#X floatatom 545 287 5 0 0 0 - - -, f 5;
#X obj 545 264 fromsymbol;
#X msg 488 24 read psvdata/sampledata6.txt cr;
#X msg 398 79 goto \$1;
#X floatatom 398 55 5 1 1000 0 - - -, f 5;
#X obj 398 115 t b a;
#X obj 488 287 - 1;
#X obj 146 281 tabdump csv_array;
#X obj 146 246 bng 15 250 50 0 empty empty empty 17 7 0 10 -262144
-1 -1;
#X floatatom 222 392 10 0 0 0 - - -, f 10;
#X obj 13 348 prepend set;
#X msg 13 386 0 0.5 0.37 0;
#X floatatom 287 392 10 0 0 0 - - -, f 10;
#X obj 146 389 unpack f f;
#X floatatom 354 392 10 0 0 0 - - -, f 10;
#X text 169 244 run some statistics on array;
#X floatatom 146 443 10 0 0 0 - - -, f 10;
#X floatatom 211 443 10 0 0 0 - - -, f 10;
#X obj 488 218 6_csv;
#X obj 287 345 6_median;
#X obj 354 345 6_deviation;
#X obj 222 345 6_mean;
#X obj 146 345 6_maxmin;
#X connect 0 0 6 0;
#X connect 0 1 5 0;
#X connect 1 0 4 0;
#X connect 2 0 0 0;
#X connect 3 0 0 0;
#X connect 4 0 0 0;
#X connect 4 1 0 0;
#X connect 5 0 2 0;
#X connect 6 0 31 0;
#X connect 10 0 19 0;
#X connect 11 0 10 0;
#X connect 11 1 14 0;
#X connect 12 0 9 0;
#X connect 12 1 9 1;
#X connect 13 0 12 1;
#X connect 14 0 13 0;
#X connect 15 0 0 0;
#X connect 16 0 18 0;
#X connect 17 0 16 0;
#X connect 18 0 0 0;
#X connect 18 1 0 0;
#X connect 19 0 12 0;
#X connect 20 0 23 0;
#X connect 20 0 32 0;
#X connect 20 0 33 0;
#X connect 20 0 34 0;
#X connect 20 0 35 0;
#X connect 21 0 20 0;
#X connect 23 0 24 0;
#X connect 26 0 29 0;
#X connect 26 1 30 0;
#X connect 31 0 11 0;
#X connect 32 0 25 0;
#X connect 33 0 27 0;
#X connect 34 0 22 0;
#X connect 35 0 26 0;
