#N canvas 285 32 1205 830 10;
#X obj 302 331 coll;
#C restore;
#X obj 478 158 msgfile;
#X msg 567 76 prev;
#X msg 302 285 clear;
#X obj 208 257 t s b;
#X msg 488 76 rewind;
#X obj 67 438 scrolllist 100 400 300 {Helvetica 16 bold} white black
red;
#X msg 67 376 add \$1;
#X obj 67 349 tosymbol;
#X obj 571 307 route 1 2 3 4 5 6 7 8 9 10 11 12 13 14;
#X obj 468 380 prepend set;
#X msg 468 403 x#o^x;
#X obj 492 434 prepend set;
#X msg 492 457 x^;
#X obj 512 532 prepend set;
#X msg 512 555 x^o-;
#X obj 550 663 prepend set;
#X msg 550 686 x#;
#X obj 601 551 prepend set;
#X msg 601 574 x#;
#X obj 636 599 prepend set;
#X msg 636 622 ml;
#X obj 710 741 prepend set;
#X msg 710 764 16;
#X obj 811 713 prepend set;
#X msg 811 736 91;
#X obj 851 639 prepend set;
#X msg 851 662 0.03882;
#X obj 957 677 prepend set;
#X msg 957 700 0.05;
#X obj 953 552 prepend set;
#X msg 953 575 ci;
#X obj 920 469 prepend set;
#X msg 920 492 ci15477177;
#X obj 1066 465 prepend set;
#X msg 1066 488 2014-03-17T20:22:49.610Z;
#X obj 1048 363 prepend set;
#X msg 1048 386 7kmSofIdyllwild\\\,California;
#X obj 548 76 bng 15 250 50 0 empty empty empty 17 7 0 10 -262144 -1
-1;
#X obj 567 103 t b a;
#X floatatom 384 278 5 0 0 0 - - -, f 5;
#X obj 302 355 prepend set;
#X msg 302 379 n'est;
#X obj 535 159 t b;
#X msg 460 42 read psvdata/sampledata3.txt cr;
#X symbolatom 19 181 20 0 0 0 - - -, f 20;
#X obj 478 181 tosymbol;
#X obj 478 230 unpack s f;
#X msg 420 15 read psvdata/sampledata4.txt cr;
#X obj 160 106 makefilename %c;
#X msg 160 86 44;
#X obj 160 157 list2symbol;
#X text 201 82 here's a way to get commas into messages;
#X msg 160 131 112 \$1 QHr \$1 555 \$1 1444 \$1 hellow;
#X obj 160 180 6_killspaces;
#X obj 478 207 6_killspaces;
#X obj 208 284 6_csv;
#X obj 725 142 cnv 15 380 60 empty empty empty 20 12 0 14 -262130 -66577
0;
#X text 737 146 [6_csv];
#X text 739 161 Parsing comma separated values \, output with index
;
#X text 735 117 See 6_csv-help2.pd example for using with a Pd array.
;
#X text 734 30 Comma seprated values. Notice the means to get a CSV
file into Pd with the [msgfile] object and the [6_killspaces] object
that removes spaces that [msgfile] adds... which may or may not be
beneficial \, depends on the data as it removes ALL spaces (not just
ones added by [msgfile]).;
#X text 247 158 [list2symbol] from zexy;
#X msg 210 15 read psvdata/sampledata7.txt cr;
#X connect 0 0 41 0;
#X connect 1 0 46 0;
#X connect 1 1 43 0;
#X connect 2 0 39 0;
#X connect 3 0 0 0;
#X connect 3 0 6 0;
#X connect 4 0 56 0;
#X connect 4 1 3 0;
#X connect 5 0 1 0;
#X connect 7 0 6 0;
#X connect 8 0 7 0;
#X connect 9 0 10 0;
#X connect 9 1 12 0;
#X connect 9 2 14 0;
#X connect 9 3 16 0;
#X connect 9 4 18 0;
#X connect 9 5 20 0;
#X connect 9 6 22 0;
#X connect 9 7 24 0;
#X connect 9 8 26 0;
#X connect 9 9 28 0;
#X connect 9 10 30 0;
#X connect 9 11 32 0;
#X connect 9 12 34 0;
#X connect 9 13 36 0;
#X connect 10 0 11 0;
#X connect 12 0 13 0;
#X connect 14 0 15 0;
#X connect 16 0 17 0;
#X connect 18 0 19 0;
#X connect 20 0 21 0;
#X connect 22 0 23 0;
#X connect 24 0 25 0;
#X connect 26 0 27 0;
#X connect 28 0 29 0;
#X connect 30 0 31 0;
#X connect 32 0 33 0;
#X connect 34 0 35 0;
#X connect 36 0 37 0;
#X connect 38 0 1 0;
#X connect 39 0 1 0;
#X connect 39 1 1 0;
#X connect 40 0 0 0;
#X connect 41 0 42 0;
#X connect 43 0 5 0;
#X connect 44 0 1 0;
#X connect 45 0 4 0;
#X connect 46 0 55 0;
#X connect 47 0 4 0;
#X connect 48 0 1 0;
#X connect 49 0 53 0;
#X connect 50 0 49 0;
#X connect 51 0 54 0;
#X connect 53 0 51 0;
#X connect 54 0 4 0;
#X connect 55 0 47 0;
#X connect 56 0 0 0;
#X connect 56 0 8 0;
#X connect 56 0 9 0;
#X connect 63 0 1 0;
