#N canvas 100 30 1170 505 10;
#X obj 22 154 bng 15 250 50 0 empty empty empty 17 7 0 10 -262144 -1
-1;
#X floatatom 22 260 5 0 0 1 day_of_week - -, f 5;
#X floatatom 127 260 5 0 0 1 day_of_month - -, f 5;
#X floatatom 237 260 5 0 0 1 month - -, f 5;
#X floatatom 309 260 5 0 0 1 year - -, f 5;
#X floatatom 375 260 5 0 0 1 hour - -, f 5;
#X floatatom 439 260 5 0 0 1 minute - -, f 5;
#X floatatom 514 260 5 0 0 1 second - -, f 5;
#X obj 22 124 metro 1000;
#X obj 22 101 tgl 15 0 empty empty empty 17 7 0 10 -262144 -1 -1 0
1;
#X obj 22 180 6_datetime, f 97;
#X obj 603 60 cnv 15 380 60 empty empty empty 20 12 0 14 -262130 -66577
0;
#X text 615 64 [6_addspaces];
#X text 617 79 Get the OS date and time;
#X connect 0 0 10 0;
#X connect 8 0 0 0;
#X connect 9 0 8 0;
#X connect 10 0 1 0;
#X connect 10 1 2 0;
#X connect 10 2 3 0;
#X connect 10 3 4 0;
#X connect 10 4 5 0;
#X connect 10 5 6 0;
#X connect 10 6 7 0;
