#N canvas 100 30 1301 515 10;
#X msg 334 313 abcdefghijklmnopqrstuvwxyz;
#X obj 334 142 tosymbol;
#X obj 334 221 unpack s f;
#X floatatom 391 246 5 0 0 1 number_of_spaces_removed - -, f 5;
#X msg 95 170 p r o v i d e n c e;
#X msg 92 90 providence cranston warwick;
#X msg 256 57 abc defghi jklm nop qrstuv wxyz;
#X msg 415 100 -asda asdsa a s s s ss s;
#X msg 533 138 there is a way to the forest under the bridge;
#X msg 323 93 x s s x x o;
#X obj 334 166 6_killspaces;
#X obj 615 214 cnv 15 380 60 empty empty empty 20 12 0 14 -262130 -66577
0;
#X text 627 218 [6_killspaces];
#X text 629 233 Remove spaces between characters in a string;
#X obj 334 277 6_setmessage;
#X connect 1 0 10 0;
#X connect 2 0 14 0;
#X connect 2 1 3 0;
#X connect 4 0 1 0;
#X connect 5 0 1 0;
#X connect 6 0 1 0;
#X connect 7 0 1 0;
#X connect 8 0 1 0;
#X connect 9 0 1 0;
#X connect 10 0 2 0;
#X connect 14 0 0 0;
