#N canvas 100 30 812 453 10;
#X obj 146 122 tosymbol;
#X msg 231 30 Who WouLD FORmaT anYthinG LIKE thiS!;
#X msg 184 30 where;
#X msg 146 30 what;
#X floatatom 146 174 5 0 0 0 - - -, f 5;
#X msg 231 50 WhoWouLDFORmaTanYthinGLIKEthiS!;
#X msg 233 73 3.32255e+11;
#X floatatom 324 84 10 0 0 0 - - -, f 10;
#X obj 302 221 tosymbol;
#X floatatom 302 273 5 0 0 0 - - -, f 5;
#X msg 387 149 WhoWouLDFORmaTanYthinGLIKEthiS!;
#X msg 389 172 3.32255e+11;
#X floatatom 480 183 10 0 0 0 - - -, f 10;
#X msg 387 129 Who sahdjshaksh FOasjjkjasdRmaT anYthinG LIKE thiS!
;
#X msg 340 129 no;
#X msg 302 129 yes;
#X obj 146 148 6_length;
#X obj 302 247 6_length;
#X obj 416 256 cnv 15 380 60 empty empty empty 20 12 0 14 -262130 -66577
0;
#X text 430 275 Get the length of a string;
#X text 428 260 [6_length];
#X connect 0 0 16 0;
#X connect 1 0 0 0;
#X connect 2 0 0 0;
#X connect 3 0 0 0;
#X connect 5 0 0 0;
#X connect 6 0 0 0;
#X connect 7 0 0 0;
#X connect 8 0 17 0;
#X connect 10 0 8 0;
#X connect 11 0 8 0;
#X connect 12 0 8 0;
#X connect 13 0 8 0;
#X connect 14 0 8 0;
#X connect 15 0 8 0;
#X connect 16 0 4 0;
#X connect 17 0 9 0;
