#N canvas 100 30 768 374 10;
#X floatatom 116 135 5 0 0 0 - - -, f 5;
#X floatatom 116 218 5 0 0 0 - - -, f 5;
#X obj 155 218 print;
#X text 254 99 object automatically converts negative numbers to positive
(absolute value) to avoid NAN errors;
#X obj 116 169 6_log10;
#X obj 280 159 cnv 15 380 60 empty empty empty 20 12 0 14 -262130 -66577
0;
#X text 292 163 [6_log10];
#X text 294 178 Base-10 logarithm of input float;
#X connect 0 0 4 0;
#X connect 4 0 1 0;
#X connect 4 0 2 0;
