#N canvas 100 30 1215 838 10;
#X msg 425 129 what;
#X obj 425 164 tosymbol;
#X obj 260 162 tosymbol;
#X msg 260 85 whathow;
#X symbolatom 260 234 20 0 0 0 - - -, f 20;
#X msg 238 64 what how;
#X msg 214 42 what what;
#X msg 511 90 w;
#X obj 260 296 scrolllist 100 400 400 {Helvetica 10 bold} white black
red;
#X msg 260 264 add \$1;
#X msg 308 264 clear;
#X msg 540 90 h;
#X msg 574 90 a;
#X msg 605 90 o;
#X msg 146 67 wwooaaaaww;
#X msg 72 109 whatwofsxoo;
#X msg 58 40 wwwhhhoooaawwwwww;
#X obj 164 376 + 1;
#X obj 109 365 f 1;
#X msg 139 339 1;
#X obj 109 396 t f f;
#X floatatom 109 443 5 0 0 1 matches - -, f 5;
#X obj 139 317 t b;
#X obj 109 318 t b;
#X msg 314 118 howhowhowhow;
#X msg 318 79 how how how how;
#X msg 82 165 xx;
#X msg 81 194 xoxoxo;
#X msg 586 124 x;
#X msg 408 105 what what;
#X msg 733 129 how how how how;
#X msg 733 150 howhowhow;
#X msg 733 171 howhow;
#X msg 733 192 how;
#X msg 618 125 xox;
#X msg 651 126 oxo;
#X text 464 53 pattern matching! for strings (no numbers!);
#X text 340 203 can be initialized with a default pattern (strings
only);
#X obj 260 202 6_match xo;
#X obj 674 294 cnv 15 380 60 empty empty empty 20 12 0 14 -262130 -66577
0;
#X text 686 298 [6_match];
#X text 688 313 Match patterns in a string;
#X connect 0 0 1 0;
#X connect 1 0 38 1;
#X connect 2 0 22 0;
#X connect 2 0 38 0;
#X connect 3 0 2 0;
#X connect 4 0 9 0;
#X connect 5 0 2 0;
#X connect 6 0 2 0;
#X connect 7 0 1 0;
#X connect 9 0 8 0;
#X connect 10 0 8 0;
#X connect 11 0 1 0;
#X connect 12 0 1 0;
#X connect 13 0 1 0;
#X connect 14 0 2 0;
#X connect 15 0 2 0;
#X connect 16 0 2 0;
#X connect 17 0 18 1;
#X connect 18 0 20 0;
#X connect 19 0 18 1;
#X connect 20 0 21 0;
#X connect 20 1 17 0;
#X connect 22 0 19 0;
#X connect 23 0 18 0;
#X connect 24 0 2 0;
#X connect 25 0 2 0;
#X connect 26 0 2 0;
#X connect 27 0 2 0;
#X connect 28 0 1 0;
#X connect 29 0 1 0;
#X connect 30 0 1 0;
#X connect 31 0 1 0;
#X connect 32 0 1 0;
#X connect 33 0 1 0;
#X connect 34 0 1 0;
#X connect 35 0 1 0;
#X connect 38 0 4 0;
#X connect 38 0 23 0;
