#N canvas 100 30 886 536 10;
#X obj 102 226 print;
#X floatatom 207 249 20 0 0 0 - - -, f 20;
#X msg 33 25 99 33 44;
#X msg 161 105 3312 33 3333 12233 33312 9939 1000;
#X msg 145 48 12 178 33 44;
#X msg 258 385 works;
#X msg 202 138 hello it works with strings though for what purpose?
;
#X obj 102 173 6_max;
#X obj 458 211 cnv 15 380 60 empty empty empty 20 12 0 14 -262130 -66577
0;
#X text 470 215 [6_max];
#X text 472 230 Get maximum value in a list;
#X obj 247 341 6_setmessage;
#X connect 2 0 7 0;
#X connect 3 0 7 0;
#X connect 4 0 7 0;
#X connect 6 0 7 0;
#X connect 7 0 0 0;
#X connect 7 0 1 0;
#X connect 7 0 11 0;
#X connect 11 0 5 0;
