#N canvas 100 30 901 438 10;
#X obj 314 200 print;
#X msg 291 109 33 22 555 11;
#X floatatom 260 201 5 0 0 0 - - -, f 5;
#X msg 154 87 212 433 222 22 55;
#X obj 291 143 6_mean;
#X obj 448 92 cnv 15 380 60 empty empty empty 20 12 0 14 -262130 -66577
0;
#X text 460 96 [6_mean];
#X text 462 111 Get the average (mean) in a list of numbers;
#X connect 1 0 4 0;
#X connect 3 0 4 0;
#X connect 4 0 0 0;
#X connect 4 0 2 0;
