#N canvas 100 30 901 438 10;
#X obj 314 200 print;
#X msg 400 40 33 22 555 11;
#X floatatom 189 219 10 0 0 0 - - -, f 10;
#X msg 252 17 212 433 222 22 55;
#X msg 128 62 1 22 333 22222;
#X obj 291 143 6_median;
#X obj 491 102 cnv 15 380 60 empty empty empty 20 12 0 14 -262130 -66577
0;
#X text 503 106 [6_median];
#X text 505 121 Get the median from a list of numbers;
#X connect 1 0 5 0;
#X connect 3 0 5 0;
#X connect 4 0 5 0;
#X connect 5 0 0 0;
#X connect 5 0 2 0;
