#N canvas 100 30 711 638 10;
#X obj 84 282 print;
#X floatatom 228 279 20 0 0 0 - - -, f 20;
#X msg 63 37 99 33 44;
#X msg 171 115 3312 33 3333 12233 33312 9939 1000;
#X msg 155 58 12 178 33 44;
#X msg 188 152 1.11 11.11 1 111.11 11.1 0.5 0.49;
#X obj 257 351 prepend set;
#X msg 268 395 33;
#X msg 277 188 hello it works with strings though for what purpose?
;
#X obj 84 229 6_min;
#X obj 101 474 cnv 15 380 60 empty empty empty 20 12 0 14 -262130 -66577
0;
#X text 113 478 [6_min];
#X text 115 493 Get the minimum value in a list of numbers;
#X connect 2 0 9 0;
#X connect 3 0 9 0;
#X connect 4 0 9 0;
#X connect 5 0 9 0;
#X connect 6 0 7 0;
#X connect 8 0 9 0;
#X connect 9 0 0 0;
#X connect 9 0 1 0;
#X connect 9 0 6 0;
