#N canvas 365 23 1018 770 10;
#X floatatom 89 220 5 0 0 0 - - -, f 5;
#X floatatom 140 220 5 0 0 0 - - -, f 5;
#X symbolatom 391 191 10 0 0 0 - - -, f 10;
#X symbolatom 448 220 10 0 0 0 - - -, f 10;
#X msg 226 194 Wh;
#X msg 312 165 ere;
#X msg 283 165 o;
#X msg 344 165 en;
#X msg 639 130 car down the street?;
#X msg 610 88 tree next to the house?;
#X msg 671 165 ocean swimming?;
#X floatatom 189 193 5 0 0 0 - - -, f 5;
#X floatatom 413 220 5 0 0 0 - - -, f 5;
#X floatatom 678 220 5 0 0 0 - - -, f 5;
#X obj 95 457 tosymbol;
#X obj 200 460 tosymbol;
#X msg 200 434 So;
#X msg 95 431 This;
#X obj 435 583 cnv 15 380 60 empty empty empty 20 12 0 14 -262130 -66577
0;
#X text 449 602 Combine two input atoms as strings;
#X obj 89 247 6_prepend;
#X text 447 587 [6_prepend];
#X obj 226 246 6_prepend;
#X obj 391 247 6_prepend;
#X obj 553 246 6_prepend;
#X obj 226 220 symbol;
#X obj 283 220 symbol;
#X msg 226 293 en Wh;
#X obj 553 220 tosymbol;
#X obj 610 220 tosymbol;
#X obj 95 488 6_prepend well;
#X text 208 487 argument gives you a default string to prepend;
#X msg 95 585 So This;
#X msg 89 326 33 55;
#X obj 89 349 print;
#X obj 89 300 t b a;
#X msg 553 54 Who is in the;
#X obj 226 270 6_setmessage;
#X obj 89 275 6_setmessage;
#X obj 95 523 6_setmessage;
#X msg 391 303 27 dd;
#X obj 391 280 6_setmessage;
#X msg 553 303 50 Who is in the;
#X obj 553 280 6_setmessage;
#X text 528 426 cyclone [tosymbol] becomes necessary when there are
spaces in the symbol;
#X connect 0 0 20 0;
#X connect 1 0 20 1;
#X connect 2 0 23 0;
#X connect 3 0 23 1;
#X connect 4 0 25 0;
#X connect 5 0 26 0;
#X connect 6 0 26 0;
#X connect 7 0 26 0;
#X connect 8 0 29 0;
#X connect 9 0 29 0;
#X connect 10 0 29 0;
#X connect 11 0 22 0;
#X connect 12 0 23 1;
#X connect 13 0 24 1;
#X connect 14 0 30 0;
#X connect 15 0 30 1;
#X connect 16 0 15 0;
#X connect 17 0 14 0;
#X connect 20 0 38 0;
#X connect 22 0 37 0;
#X connect 23 0 41 0;
#X connect 24 0 43 0;
#X connect 25 0 22 0;
#X connect 26 0 22 1;
#X connect 28 0 24 0;
#X connect 29 0 24 1;
#X connect 30 0 39 0;
#X connect 33 0 34 0;
#X connect 35 0 33 0;
#X connect 35 1 33 0;
#X connect 36 0 28 0;
#X connect 37 0 27 0;
#X connect 38 0 35 0;
#X connect 39 0 32 0;
#X connect 41 0 40 0;
#X connect 43 0 42 0;
