#N canvas 100 30 1205 830 10;
#X obj 302 331 coll;
#C restore;
#X obj 331 170 msgfile;
#X msg 419 88 prev;
#X obj 208 231 tosymbol;
#X msg 47 107 400|220|222;
#X msg 302 285 clear;
#X msg 100 58 411100|20|2|666|888;
#X obj 208 257 t s b;
#X msg 340 88 rewind;
#X text 743 38 Ceci n'est pas une pipe.;
#X msg 312 54 read psvdata/sampledata2.txt cr;
#X obj 67 438 scrolllist 100 400 300 {Helvetica 16 bold} white black
red;
#X msg 67 376 add \$1;
#X obj 67 349 tosymbol;
#X obj 571 307 route 1 2 3 4 5 6 7 8 9 10 11 12 13 14;
#X obj 468 380 prepend set;
#X msg 468 403 wow;
#X obj 492 434 prepend set;
#X msg 492 457 me;
#X obj 483 529 prepend set;
#X msg 483 552 who;
#X obj 496 650 prepend set;
#X msg 496 673 me;
#X obj 601 551 prepend set;
#X msg 601 574 2.34233e+06;
#X obj 636 599 prepend set;
#X msg 636 622 0;
#X obj 715 721 prepend set;
#X msg 715 744 1115;
#X obj 758 656 prepend set;
#X msg 758 679 0;
#X obj 857 718 prepend set;
#X msg 857 741 89;
#X obj 887 658 prepend set;
#X msg 887 681 46;
#X obj 913 583 prepend set;
#X msg 913 606 765;
#X obj 908 526 prepend set;
#X msg 908 549 574;
#X obj 915 448 prepend set;
#X msg 915 471 670;
#X obj 1000 453 prepend set;
#X msg 1000 476 -9999;
#X obj 400 88 bng 15 250 50 0 empty empty empty 17 7 0 10 -262144 -1
-1;
#X obj 419 115 t b a;
#X floatatom 384 278 5 0 0 0 - - -, f 5;
#X obj 302 355 prepend set;
#X msg 302 379 n'est;
#X obj 387 171 t b;
#X msg 144 88 ceci|n'est|pas|une|pipe;
#X msg 12 184 "one"|"two"|"three";
#X msg 278 23 read psvdata/sampledata1.txt cr;
#X text 731 57 Pipe Seperated Values to individual index;
#X obj 208 284 6_psv;
#X obj 550 171 cnv 15 380 60 empty empty empty 20 12 0 14 -262130 -66577
0;
#X text 562 175 [6_psv];
#X text 564 190 Parse pipe seperated values;
#X connect 0 0 46 0;
#X connect 1 0 3 0;
#X connect 1 1 48 0;
#X connect 2 0 44 0;
#X connect 3 0 7 0;
#X connect 4 0 3 0;
#X connect 5 0 0 0;
#X connect 5 0 11 0;
#X connect 6 0 3 0;
#X connect 7 0 53 0;
#X connect 7 1 5 0;
#X connect 8 0 1 0;
#X connect 10 0 1 0;
#X connect 12 0 11 0;
#X connect 13 0 12 0;
#X connect 14 0 15 0;
#X connect 14 1 17 0;
#X connect 14 2 19 0;
#X connect 14 3 21 0;
#X connect 14 4 23 0;
#X connect 14 5 25 0;
#X connect 14 6 27 0;
#X connect 14 7 29 0;
#X connect 14 8 31 0;
#X connect 14 9 33 0;
#X connect 14 10 35 0;
#X connect 14 11 37 0;
#X connect 14 12 39 0;
#X connect 14 13 41 0;
#X connect 15 0 16 0;
#X connect 17 0 18 0;
#X connect 19 0 20 0;
#X connect 21 0 22 0;
#X connect 23 0 24 0;
#X connect 25 0 26 0;
#X connect 27 0 28 0;
#X connect 29 0 30 0;
#X connect 31 0 32 0;
#X connect 33 0 34 0;
#X connect 35 0 36 0;
#X connect 37 0 38 0;
#X connect 39 0 40 0;
#X connect 41 0 42 0;
#X connect 43 0 1 0;
#X connect 44 0 1 0;
#X connect 44 1 1 0;
#X connect 45 0 0 0;
#X connect 46 0 47 0;
#X connect 48 0 8 0;
#X connect 49 0 3 0;
#X connect 50 0 3 0;
#X connect 51 0 1 0;
#X connect 53 0 0 0;
#X connect 53 0 13 0;
#X connect 53 0 14 0;
