#N canvas 100 30 945 659 10;
#X obj 68 172 tosymbol;
#X msg 68 67 an;
#X floatatom 125 172 5 0 0 1 set_repetition_number - -, f 5;
#X msg 100 67 123;
#X obj 439 172 tosymbol;
#X msg 439 67 an;
#X floatatom 520 172 5 0 0 1 set_repetition_number - -, f 5;
#X msg 471 67 123;
#X text 542 200 set default argument;
#X msg 439 300 anananananananananananananananananananananananananananananananananananananananananananananananananananananananananananananananananananananananananananananananananananananananananananananananananananananananananananananananananananananananananananananananananananananananananananananananananananananananananananananananananananananananananananananananananananananananananananananananananananananananananananananananananananananananananananananananananananananananananananananananananananananananananananananananananananananananananananananananananananananananananananananananananananananananananananananananananananananananananananananananananananananananananananananananananananananananananananananananananananananananananananananananananananananananananananananananananananananananananananananananananananananananananananananananananananananananananananananananananananananananananananananananananan
;
#X msg 130 67 a;
#X text 147 201 default \, repeats once;
#X text 721 223 maxes out at 998 characters?;
#X obj 68 201 6_repeat;
#X obj 439 201 6_repeat 100;
#X obj 368 418 cnv 15 380 60 empty empty empty 20 12 0 14 -262130 -66577
0;
#X text 380 422 [6_repeat];
#X text 382 437 Repeat characters in a string;
#X obj 439 260 6_setmessage;
#X msg 68 300 ananananananananananananananananananananananananananananananananananananananananananananananananananananananananananananananananananananananananananananananananananananananananananan
;
#X obj 68 260 6_setmessage;
#X connect 0 0 13 0;
#X connect 1 0 0 0;
#X connect 2 0 13 1;
#X connect 3 0 0 0;
#X connect 4 0 14 0;
#X connect 5 0 4 0;
#X connect 6 0 14 1;
#X connect 7 0 4 0;
#X connect 10 0 0 0;
#X connect 13 0 20 0;
#X connect 14 0 18 0;
#X connect 18 0 9 0;
#X connect 20 0 19 0;
