#N canvas 100 30 1500 712 10;
#X msg 163 462 y e s ;
#X obj 163 248 tosymbol;
#X msg 249 462 n o ;
#X msg 336 462 t he r e ;
#X msg 110 161 yes/no/there/is/a/reason;
#X obj 163 312 route 1 2 3 4 5 6;
#X msg 422 462 i s;
#X msg 508 462 a ;
#X msg 595 462 r e a s o n;
#X msg 50 124 asldsal/alksdaksj/adljaskjdksa/asldaskdj/alksjdasjd/alkwje
;
#X msg 184 201 y e s /n o /t he r e /i s/a /r e a s o n;
#X obj 928 188 tosymbol;
#X obj 928 121 pack f f f f;
#X obj 928 252 route 1 2 3 4;
#X floatatom 781 42 5 0 0 0 - - -, f 5;
#X floatatom 899 42 5 0 0 0 - - -, f 5;
#X floatatom 990 44 5 0 0 0 - - -, f 5;
#X floatatom 1082 66 5 0 0 0 - - -, f 5;
#X msg 928 157 \$1/\$2/\$3/\$4;
#X obj 880 313 fromsymbol;
#X floatatom 880 338 5 0 0 0 - - -, f 5;
#X obj 948 313 fromsymbol;
#X floatatom 948 338 5 0 0 0 - - -, f 5;
#X obj 1016 313 fromsymbol;
#X floatatom 1016 338 5 0 0 0 - - -, f 5;
#X obj 1085 314 fromsymbol;
#X floatatom 1085 339 5 0 0 0 - - -, f 5;
#X msg 1097 142 323/5545/654/746;
#X msg 1098 166 1/2/3/4;
#X msg 1074 103 1113/535/624/26;
#X obj 163 282 6_ssv;
#X obj 928 222 6_ssv;
#X obj 163 398 prepend set;
#X obj 249 398 prepend set;
#X obj 336 398 prepend set;
#X obj 422 398 prepend set;
#X obj 508 398 prepend set;
#X obj 595 398 prepend set;
#X obj 480 145 cnv 15 380 60 empty empty empty 20 12 0 14 -262130 -66577
0;
#X text 492 149 [6_ssv];
#X text 494 164 Parse slash separated values;
#X connect 1 0 30 0;
#X connect 4 0 1 0;
#X connect 5 0 32 0;
#X connect 5 1 33 0;
#X connect 5 2 34 0;
#X connect 5 3 35 0;
#X connect 5 4 36 0;
#X connect 5 5 37 0;
#X connect 9 0 1 0;
#X connect 10 0 1 0;
#X connect 11 0 31 0;
#X connect 12 0 18 0;
#X connect 13 0 19 0;
#X connect 13 1 21 0;
#X connect 13 2 23 0;
#X connect 13 3 25 0;
#X connect 14 0 12 0;
#X connect 15 0 12 1;
#X connect 16 0 12 2;
#X connect 17 0 12 3;
#X connect 18 0 11 0;
#X connect 19 0 20 0;
#X connect 21 0 22 0;
#X connect 23 0 24 0;
#X connect 25 0 26 0;
#X connect 27 0 11 0;
#X connect 28 0 11 0;
#X connect 29 0 11 0;
#X connect 30 0 5 0;
#X connect 31 0 13 0;
#X connect 32 0 0 0;
#X connect 33 0 2 0;
#X connect 34 0 3 0;
#X connect 35 0 6 0;
#X connect 36 0 7 0;
#X connect 37 0 8 0;
