#N canvas 100 30 1015 714 10;
#X obj 295 380 print;
#X obj 295 176 tosymbol;
#X obj 394 195 makefilename %c;
#X msg 394 171 44;
#X text 428 172 set a comma;
#X msg 509 79 big \, bgger \, biggest \, small \, smaller \, smallest
;
#X obj 534 202 tosymbol;
#X msg 534 171 ***;
#X msg 478 46 mini***maxi***minimini***medium***huge;
#X msg 571 171 ^;
#X msg 272 58 candy^food^sugar^plant^water;
#X msg 604 171 .;
#X msg 91 59 who.what.when.where.how;
#X msg 640 171 /;
#X msg 23 33 who/what/when/where/how;
#X msg 674 171 |;
#X obj 480 354 scrolllist 100 400 300 {Helvetica 16 bold} white black
red;
#X msg 480 292 add \$1;
#X msg 246 31 candy|food|sugar|plant|water;
#X msg 409 314 clear;
#X msg 369 149 32;
#X text 403 150 set a space;
#X msg 19 254 this would be useful for any delimited line;
#X obj 295 234 6_stringsplit .;
#X obj 31 460 cnv 15 380 60 empty empty empty 20 12 0 14 -262130 -66577
0;
#X text 43 464 [6_stringsplit];
#X text 45 479 Split string according to a specified delimiter;
#X connect 1 0 23 0;
#X connect 2 0 23 1;
#X connect 3 0 2 0;
#X connect 5 0 1 0;
#X connect 6 0 23 1;
#X connect 7 0 6 0;
#X connect 8 0 1 0;
#X connect 9 0 6 0;
#X connect 10 0 1 0;
#X connect 11 0 6 0;
#X connect 12 0 1 0;
#X connect 13 0 6 0;
#X connect 14 0 1 0;
#X connect 15 0 6 0;
#X connect 17 0 16 0;
#X connect 18 0 1 0;
#X connect 19 0 16 0;
#X connect 20 0 2 0;
#X connect 22 0 1 0;
#X connect 23 0 0 0;
#X connect 23 0 17 0;
