#N canvas 362 31 911 470 10;
#X obj 314 200 print;
#X floatatom 260 201 5 0 0 0 - - -, f 5;
#X obj 448 92 cnv 15 380 60 empty empty empty 20 12 0 14 -262130 -66577
0;
#X obj 291 143 6_sum;
#X msg 245 76 20 20;
#X text 460 96 [6_sum];
#X text 462 111 Get the sum of a list of numbers;
#X msg 125 60 20 200 1 2 3 6;
#X msg 311 31 9 9 9 9 9 9 9;
#X msg 321 80 1 2 3 4 5;
#X floatatom 468 236 5 0 0 0 - - -, f 5;
#X floatatom 515 236 5 0 0 0 - - -, f 5;
#X floatatom 562 236 5 0 0 0 - - -, f 5;
#X floatatom 609 236 5 0 0 0 - - -, f 5;
#X floatatom 468 337 5 0 0 0 - - -, f 5;
#X obj 468 300 6_sum;
#X obj 123 324 6_sum, f 12;
#X obj 202 324 6_sum, f 12;
#X obj 281 324 6_sum, f 12;
#X obj 123 365 6_pak 3;
#X obj 123 388 6_setmessage;
#X msg 123 414 3 3 3;
#X obj 123 279 tgl 15 0 empty empty empty 17 7 0 10 -262144 -1 -1 1
1;
#X obj 123 301 6_pak 3;
#X obj 142 279 tgl 15 0 empty empty empty 17 7 0 10 -262144 -1 -1 1
1;
#X obj 162 279 tgl 15 0 empty empty empty 17 7 0 10 -262144 -1 -1 1
1;
#X obj 202 279 tgl 15 0 empty empty empty 17 7 0 10 -262144 -1 -1 1
1;
#X obj 202 301 6_pak 3;
#X obj 221 279 tgl 15 0 empty empty empty 17 7 0 10 -262144 -1 -1 1
1;
#X obj 241 279 tgl 15 0 empty empty empty 17 7 0 10 -262144 -1 -1 1
1;
#X obj 281 279 tgl 15 0 empty empty empty 17 7 0 10 -262144 -1 -1 1
1;
#X obj 281 301 6_pak 3;
#X obj 300 279 tgl 15 0 empty empty empty 17 7 0 10 -262144 -1 -1 1
1;
#X obj 320 279 tgl 15 0 empty empty empty 17 7 0 10 -262144 -1 -1 1
1;
#X obj 468 266 6_pak 4, f 24;
#X connect 3 0 0 0;
#X connect 3 0 1 0;
#X connect 4 0 3 0;
#X connect 7 0 3 0;
#X connect 8 0 3 0;
#X connect 9 0 3 0;
#X connect 10 0 34 0;
#X connect 11 0 34 1;
#X connect 12 0 34 2;
#X connect 13 0 34 3;
#X connect 15 0 14 0;
#X connect 16 0 19 0;
#X connect 17 0 19 1;
#X connect 18 0 19 2;
#X connect 19 0 20 0;
#X connect 20 0 21 0;
#X connect 22 0 23 0;
#X connect 23 0 16 0;
#X connect 24 0 23 1;
#X connect 25 0 23 2;
#X connect 26 0 27 0;
#X connect 27 0 17 0;
#X connect 28 0 27 1;
#X connect 29 0 27 2;
#X connect 30 0 31 0;
#X connect 31 0 18 0;
#X connect 32 0 31 1;
#X connect 33 0 31 2;
#X connect 34 0 15 0;
