#N canvas 100 30 1330 839 10;
#X symbolatom 225 135 20 0 0 1 input_string - -, f 20;
#X symbolatom 292 164 20 0 0 1 string_to_replace - -, f 20;
#X symbolatom 360 235 20 0 0 1 substitution - -, f 20;
#X text 356 12 remember right to left order;
#X obj 89 121 tosymbol;
#X obj 309 210 tosymbol;
#X msg 89 76 The cow jumped over the cow who jumped over the moon where
a cow lives.;
#X obj 386 284 tosymbol;
#X msg 309 185 cow;
#X msg 386 259 idiot;
#X obj 225 381 unpack s f;
#X msg 225 472 The idiot jumped over the idiot who jumped over the moon where a idiot lives.
;
#X floatatom 283 405 5 0 0 1 number_of_substitutions - -, f 5;
#X obj 631 169 tosymbol;
#X msg 631 131 no no no no no no no no;
#X obj 631 265 unpack s f;
#X msg 631 356 yesyesyesyesyesyesyesyes;
#X floatatom 688 289 5 0 0 1 number_of_substitutions - -, f 5;
#X msg 790 142 nononononononono;
#X msg 430 260 hammer;
#X msg 338 185 moon;
#X obj 631 432 tosymbol;
#X obj 631 528 unpack s f;
#X msg 631 619 .#..#..#..#..#..#..#..#.;
#X floatatom 688 552 5 0 0 1 number_of_substitutions - -, f 5;
#X msg 631 405 - - - -;
#X msg 790 405 --------;
#X text 559 65 argument 1 is string to replace \; argument 2 is the
subsitution;
#X obj 225 352 6_substitute cow goon;
#X obj 631 221 6_substitute no yes;
#X obj 631 484 6_substitute - .#.;
#X obj 886 61 cnv 15 380 60 empty empty empty 20 12 0 14 -262130 -66577
0;
#X text 898 65 [6_substitute;
#X text 900 80 Substitute part of a string;
#X obj 225 438 6_setmessage;
#X obj 631 585 6_setmessage;
#X obj 631 322 6_setmessage;
#X connect 0 0 28 0;
#X connect 1 0 28 1;
#X connect 2 0 28 2;
#X connect 4 0 28 0;
#X connect 5 0 28 1;
#X connect 6 0 4 0;
#X connect 7 0 28 2;
#X connect 8 0 5 0;
#X connect 9 0 7 0;
#X connect 10 0 34 0;
#X connect 10 1 12 0;
#X connect 13 0 29 0;
#X connect 14 0 13 0;
#X connect 15 0 36 0;
#X connect 15 1 17 0;
#X connect 18 0 13 0;
#X connect 19 0 7 0;
#X connect 20 0 5 0;
#X connect 21 0 30 0;
#X connect 22 0 35 0;
#X connect 22 1 24 0;
#X connect 25 0 21 0;
#X connect 26 0 21 0;
#X connect 28 0 10 0;
#X connect 29 0 15 0;
#X connect 30 0 22 0;
#X connect 34 0 11 0;
#X connect 35 0 23 0;
#X connect 36 0 16 0;
