#N canvas 435 23 1182 775 10;
#X floatatom 207 242 5 0 0 0 - - -, f 5;
#X obj 171 12 bng 15 250 50 0 empty empty empty 17 7 0 10 -262144 -1
-1;
#X obj 193 14 loadbang;
#X obj 102 82 bng 15 250 50 0 empty empty empty 17 7 0 10 -262144 -1
-1;
#X obj 132 121 bng 15 250 50 0 empty empty empty 17 7 0 10 -262144
-1 -1;
#X obj 132 81 bng 15 250 50 0 empty empty empty 17 7 0 10 -262144 -1
-1;
#N canvas 0 22 450 278 (subpatch) 0;
#X array tabdump_array 4 float 1;
#A 0 0 0.875 0.4375 0.5;
#X coords 0 1 3 -1 200 140 1 0 0;
#X restore 380 263 graph;
#X obj 28 454 tabwrite tabdump_array;
#X obj 49 317 6_index;
#X obj 45 362 unpack f f;
#X obj 53 408 swap;
#X obj 102 238 print dump;
#X text 400 109 next table manipulation \; table.concat \; table.move
\; \; table.sort;
#X obj 612 210 array;
#X floatatom 339 521 5 0 10 0 - - -, f 5;
#X obj 322 496 bng 15 250 50 0 empty empty empty 17 7 0 10 -262144
-1 -1;
#X floatatom 369 544 5 -1 10 0 - - -, f 5;
#X text 416 546 number of points or -1 for end of array;
#X text 344 496 bang for output;
#X text 580 572 set name or pointer;
#X text 385 520 onset (first index to output) \, zero for start of
array;
#X obj 329 639 6_setmessage;
#X msg 329 665 0.875 0.4375 0.5625 0.5;
#X obj 11 14 table tab-A 4;
#X obj 329 614 array get tab-A, f 31;
#N canvas 18 116 608 418 fill-tables 0;
#X obj 27 37 inlet;
#X obj 27 61 t b b;
#X obj 220 134 until;
#X obj 220 177 random 16;
#X obj 220 155 t b b;
#X obj 311 166 f 0;
#X obj 350 151 + 1;
#X obj 30 134 until;
#X obj 30 177 random 16;
#X obj 30 155 t b b;
#X obj 121 166 f 0;
#X obj 160 151 + 1;
#X msg 33 112 4;
#X obj 160 174 mod 4;
#X msg 223 112 4;
#X obj 32 223 / 16;
#X obj 225 220 / 16;
#X obj 29 259 tabwrite tab-A;
#X obj 219 259 tabwrite tab-B;
#X obj 350 174 mod 4;
#X connect 0 0 1 0;
#X connect 1 0 12 0;
#X connect 1 1 14 0;
#X connect 2 0 4 0;
#X connect 3 0 16 0;
#X connect 4 0 3 0;
#X connect 4 1 5 0;
#X connect 5 0 6 0;
#X connect 5 0 18 1;
#X connect 6 0 19 0;
#X connect 7 0 9 0;
#X connect 8 0 15 0;
#X connect 9 0 8 0;
#X connect 9 1 10 0;
#X connect 10 0 11 0;
#X connect 10 0 17 1;
#X connect 11 0 13 0;
#X connect 12 0 7 0;
#X connect 13 0 10 1;
#X connect 14 0 2 0;
#X connect 15 0 17 0;
#X connect 16 0 18 0;
#X connect 19 0 5 1;
#X restore 171 39 pd fill-tables;
#X msg 562 592 symbol tab-B;
#X msg 416 573 symbol tab-A;
#X obj 102 201 6_tabdump tab-A;
#X obj 132 99 symbol tab-A;
#X obj 132 139 symbol tab-B;
#X obj 11 34 table tab-B 4;
#X connect 1 0 25 0;
#X connect 2 0 25 0;
#X connect 3 0 28 0;
#X connect 4 0 30 0;
#X connect 5 0 29 0;
#X connect 8 0 9 0;
#X connect 9 0 10 0;
#X connect 9 1 10 1;
#X connect 10 0 7 0;
#X connect 10 1 7 1;
#X connect 14 0 24 0;
#X connect 15 0 24 0;
#X connect 16 0 24 1;
#X connect 21 0 22 0;
#X connect 24 0 21 0;
#X connect 26 0 24 2;
#X connect 27 0 24 2;
#X connect 28 0 8 0;
#X connect 28 0 11 0;
#X connect 28 1 0 0;
#X connect 29 0 28 0;
#X connect 30 0 28 0;
