#N canvas 453 23 789 493 12;
#X obj 45 66 comport 4 9600;
#X obj 47 120 serial_print any;
#X obj 51 159 s;
#X obj 201 37 r touch_values:;
#X obj 208 76 unpack f f;
#X floatatom 203 123 5 0 0 0 - - -;
#X floatatom 273 132 5 0 0 0 - - -;
#X floatatom 163 215 5 0 0 0 - - -;
#X obj 232 170 ps.scale 630 7200 0 1;
#X floatatom 238 206 5 0 0 0 - - -;
#X msg 7 18 devices;
#X msg 77 19 close;
#X msg 131 20 open 4;
#X obj 163 182 / 8000;
#X obj 164 152 - 600;
#X connect 0 0 1 0;
#X connect 1 0 2 0;
#X connect 1 1 2 1;
#X connect 3 0 4 0;
#X connect 4 0 5 0;
#X connect 4 1 6 0;
#X connect 5 0 14 0;
#X connect 6 0 8 0;
#X connect 8 0 9 0;
#X connect 10 0 0 0;
#X connect 11 0 0 0;
#X connect 12 0 0 0;
#X connect 13 0 7 0;
#X connect 14 0 13 0;
